<?xml version="1.0" encoding="UTF-8" standalone="no"?>
<svg
   version="1.0"
   width="215.69971pt"
   height="252.45982pt"
   viewBox="0 0 215.69971 252.45982"
   preserveAspectRatio="xMidYMid"
   id="svg48"
   sodipodi:docname="logo_Eurovision.svg"
   inkscape:version="1.3 (0e150ed6c4, 2023-07-21)"
   xml:space="preserve"
   inkscape:export-filename="Infovision.svg"
   inkscape:export-xdpi="96"
   inkscape:export-ydpi="96"
   xmlns:inkscape="http://www.inkscape.org/namespaces/inkscape"
   xmlns:sodipodi="http://sodipodi.sourceforge.net/DTD/sodipodi-0.dtd"
   xmlns="http://www.w3.org/2000/svg"
   xmlns:svg="http://www.w3.org/2000/svg"><defs
     id="defs52" /><sodipodi:namedview
     id="namedview50"
     pagecolor="#ffffff"
     bordercolor="#ffffff"
     borderopacity="0.24705882"
     inkscape:showpageshadow="2"
     inkscape:pageopacity="0"
     inkscape:pagecheckerboard="0"
     inkscape:deskcolor="#d1d1d1"
     inkscape:document-units="pt"
     showgrid="false"
     inkscape:zoom="0.99874749"
     inkscape:cx="677.84901"
     inkscape:cy="210.76398"
     inkscape:window-width="1920"
     inkscape:window-height="1017"
     inkscape:window-x="-8"
     inkscape:window-y="-8"
     inkscape:window-maximized="1"
     inkscape:current-layer="svg48" /><path
     id="path2"
     style="fill:#000000;fill-opacity:1;stroke-width:0.1"
     d="M 85.863293,4.4449407e-4 C 84.649893,0.01685449 83.616653,0.49011849 82.820813,1.4462445 c -0.85748,1.019869 -0.85748,2.463844 0,6.968262 0.77172,3.9944845 0.94368,8.8391805 0.4292,16.7431635 -1.11473,18.272643 -0.60042,20.821625 4.97314,24.221191 9.26071,5.694275 20.065137,0.850194 21.694337,-9.773437 C 111.11795,31.531468 105.97198,18.18827 97.740243,8.3295455 93.241203,2.8929025 88.964213,-0.04149251 85.863293,4.4449407e-4 Z M 163.50001,25.733354 c -6.19999,0.1 -10.59913,0.699415 -15.59912,2.399414 -13.39999,4.399995 -22.60079,10.199816 -34.30078,21.799804 -4,3.999996 -9.4004,10.299516 -11.90039,13.999512 l -4.599607,6.80127 -1.69922,-2.800782 c -6.6,-10.799989 -24.10002,-18.899999 -39,-18 -18.99998,1.099999 -40.1004,18.399633 -49.40039,40.599609 C 1.700503,103.03218 1.2966566e-5,112.83288 1.2966566e-5,129.73286 0.10001297,147.43285 1.500893,155.73268 6.900893,168.03267 c 5.09999,11.79999 9.19991,17.99942 18.3999,27.89941 10.69999,11.39999 20.10012,18.60139 43.1001,33.40137 11.69999,7.49999 20.59883,13.99971 24.29883,17.69971 3.39999,3.49999 6.30009,5.69941 7.10009,5.39941 0.799997,-0.3 3.100587,-3.69961 5.100587,-7.59961 4.8,-9.09999 15.19953,-20.20041 37.99951,-40.40039 44.49996,-39.69996 62.70118,-63.29934 70.20117,-91.29931 2.2,-8.4 2.59864,-11.90089 2.59864,-23.400879 0,-11.799991 -0.39971,-14.700012 -2.69971,-22.500004 -3.5,-11.599988 -6.79991,-17.500105 -13.8999,-25.100098 -10.79999,-11.699988 -21.20012,-16.398925 -35.6001,-16.398925 z m -7.1001,15.298828 c 5.5,0.299999 8.89991,1.001173 12.3999,2.701172 8.3,4.199995 14.30069,12.700012 18.20069,25.5 1.4,4.499995 1.79922,9.199522 1.69922,18.499507 0,14.699999 -2.49874,24.399339 -9.69873,38.799319 -9.39999,18.59998 -20.50023,33.00072 -50.2002,64.70068 -17.79998,18.99999 -27.90029,31.49972 -30.300287,37.19971 l -1.19971,3.09961 -4.70068,-5.09912 c -2.6,-2.7 -10.30021,-9.49962 -17.2002,-15.09961 -30.49997,-24.59998 -44.29922,-41.70061 -51.19922,-63.60059 -3.19999,-10.49999 -3.19999,-32.19952 0,-45.49951 4.4,-17.599989 13.49933,-31.0001 25.29932,-37.100094 4.49999,-2.399998 6.60088,-2.900781 12.90088,-2.800781 13.09999,0 22.69912,6.800696 27.59912,19.700683 1.8,4.699993 3.40098,7.199903 5.00098,7.899903 3.19999,1.50001 4.69931,0.0999 7.299307,-7.1001 3.1,-8.499988 8.90079,-16.699713 17.80078,-25.199705 13.09999,-12.499987 23.29884,-17.201074 36.29883,-16.601074 z M 98.201673,100.26314 c -1.13749,-0.0372 -2.20473,0.10682 -3.14795,0.44678 -3.17265,1.18984 -3.34316,1.9554 -1.54248,6.88476 2.82968,7.81899 1.80038,23.96624 -3.00146,50.73779 -4.80185,26.51659 -5.14451,30.17065 -4.02979,41.21924 0.68598,7.39404 1.28543,9.85983 3.60059,14.44922 2.14368,4.16447 3.34472,5.60884 4.88818,5.77881 2.82966,0.42496 3.34337,-0.34039 4.71533,-7.56445 0.685967,-3.56954 4.373117,-16.91178 8.145997,-29.74512 8.31747,-28.04639 10.29009,-36.4614 10.97607,-45.38525 0.94322,-13.1733 -2.91579,-25.83634 -9.86133,-32.04053 -3.27983,-2.93212 -7.33069,-4.6697 -10.743157,-4.78125 z" /></svg>
