<?xml version="1.0" encoding="UTF-8" standalone="no"?>
<svg
   version="1.0"
   width="873.94281pt"
   height="252.45982pt"
   viewBox="0 0 873.94281 252.45982"
   preserveAspectRatio="xMidYMid"
   id="svg48"
   sodipodi:docname="Infovision.svg"
   inkscape:version="1.3 (0e150ed6c4, 2023-07-21)"
   xml:space="preserve"
   xmlns:inkscape="http://www.inkscape.org/namespaces/inkscape"
   xmlns:sodipodi="http://sodipodi.sourceforge.net/DTD/sodipodi-0.dtd"
   xmlns="http://www.w3.org/2000/svg"
   xmlns:svg="http://www.w3.org/2000/svg"><defs
     id="defs52" /><sodipodi:namedview
     id="namedview50"
     pagecolor="#ffffff"
     bordercolor="#ffffff"
     borderopacity="0.24705882"
     inkscape:showpageshadow="2"
     inkscape:pageopacity="0"
     inkscape:pagecheckerboard="0"
     inkscape:deskcolor="#d1d1d1"
     inkscape:document-units="pt"
     showgrid="false"
     inkscape:zoom="0.99874749"
     inkscape:cx="677.84901"
     inkscape:cy="210.76398"
     inkscape:window-width="1366"
     inkscape:window-height="705"
     inkscape:window-x="1912"
     inkscape:window-y="113"
     inkscape:window-maximized="1"
     inkscape:current-layer="svg48" /><path
     id="path2"
     style="fill:#F5F5F5;fill-opacity:1;stroke-width:0.1"
     d="M 410.04715,4.4449407e-4 C 408.83375,0.01685449 407.80051,0.49011849 407.00467,1.4462445 c -0.85748,1.019869 -0.85748,2.463844 0,6.968262 0.77172,3.9944845 0.94368,8.8391805 0.4292,16.7431635 -1.11473,18.272643 -0.60042,20.821625 4.97314,24.221191 9.26071,5.694275 20.06514,0.850194 21.69434,-9.773437 C 435.30181,31.531468 430.15584,18.18827 421.9241,8.3295455 417.42506,2.8929025 413.14807,-0.04149251 410.04715,4.4449407e-4 Z M 487.68387,25.733354 c -6.19999,0.1 -10.59913,0.699415 -15.59912,2.399414 -13.39999,4.399995 -22.60079,10.199816 -34.30078,21.799804 -4,3.999996 -9.4004,10.299516 -11.90039,13.999512 l -4.59961,6.80127 -1.69922,-2.800782 c -6.6,-10.799989 -24.10002,-18.899999 -39,-18 -18.99998,1.099999 -40.1004,18.399633 -49.40039,40.599609 -5.3,12.499999 -7.00049,22.300699 -7.00049,39.200679 0.1,17.69999 1.50088,25.99982 6.90088,38.29981 5.09999,11.79999 9.19991,17.99942 18.3999,27.89941 10.69999,11.39999 20.10012,18.60139 43.1001,33.40137 11.69999,7.49999 20.59883,13.99971 24.29883,17.69971 3.39999,3.49999 6.30009,5.69941 7.10009,5.39941 0.8,-0.3 3.10059,-3.69961 5.10059,-7.59961 4.8,-9.09999 15.19953,-20.20041 37.99951,-40.40039 44.49996,-39.69996 62.70118,-63.29934 70.20117,-91.29931 2.2,-8.4 2.59864,-11.90089 2.59864,-23.400879 0,-11.799991 -0.39971,-14.700012 -2.69971,-22.500004 -3.5,-11.599988 -6.79991,-17.500105 -13.8999,-25.100098 -10.79999,-11.699988 -21.20012,-16.398925 -35.6001,-16.398925 z m -7.1001,15.298828 c 5.5,0.299999 8.89991,1.001173 12.3999,2.701172 8.3,4.199995 14.30069,12.700012 18.20069,25.5 1.4,4.499995 1.79922,9.199522 1.69922,18.499507 0,14.699999 -2.49874,24.399339 -9.69873,38.799319 -9.39999,18.59998 -20.50023,33.00072 -50.2002,64.70068 -17.79998,18.99999 -27.90029,31.49972 -30.30029,37.19971 l -1.19971,3.09961 -4.70068,-5.09912 c -2.6,-2.7 -10.30021,-9.49962 -17.2002,-15.09961 -30.49997,-24.59998 -44.29922,-41.70061 -51.19922,-63.60059 -3.19999,-10.49999 -3.19999,-32.19952 0,-45.49951 4.4,-17.599989 13.49933,-31.0001 25.29932,-37.100094 4.49999,-2.399998 6.60088,-2.900781 12.90088,-2.800781 13.09999,0 22.69912,6.800696 27.59912,19.700683 1.8,4.699993 3.40098,7.199903 5.00098,7.899903 3.19999,1.50001 4.69931,0.0999 7.29931,-7.1001 3.1,-8.499988 8.90079,-16.699713 17.80078,-25.199705 13.09999,-12.499987 23.29884,-17.201074 36.29883,-16.601074 z m -58.19824,59.230958 c -1.13749,-0.0372 -2.20473,0.10682 -3.14795,0.44678 -3.17265,1.18984 -3.34316,1.9554 -1.54248,6.88476 2.82968,7.81899 1.80038,23.96624 -3.00146,50.73779 -4.80185,26.51659 -5.14451,30.17065 -4.02979,41.21924 0.68598,7.39404 1.28543,9.85983 3.60059,14.44922 2.14368,4.16447 3.34472,5.60884 4.88818,5.77881 2.82966,0.42496 3.34337,-0.34039 4.71533,-7.56445 0.68597,-3.56954 4.37312,-16.91178 8.146,-29.74512 8.31747,-28.04639 10.29009,-36.4614 10.97607,-45.38525 0.94322,-13.1733 -2.91579,-25.83634 -9.86133,-32.04053 -3.27983,-2.93212 -7.33069,-4.6697 -10.74316,-4.78125 z" /><path
     id="path10"
     style="display:inline;fill:#F5F5F5;fill-opacity:1;stroke-width:0.0971822"
     d="m 215.05939,103.42127 c -2.77344,-0.0986 -6.08002,0.0681 -11.79474,0.43192 -16.44161,1.02184 -36.8254,6.43835 -42.57783,11.14764 -3.90555,3.263 -4.50095,6.26623 -2.24293,10.78786 1.69427,3.36764 4.14848,4.87189 8.34612,5.02115 2.49859,0.0889 2.98941,0.39043 2.54775,1.69768 -0.65651,1.7721 -5.31811,22.58503 -5.35701,23.81211 -0.012,0.37756 -1.82039,0.59592 -4.01616,0.42335 -6.77511,2.25114 -8.14074,10.05969 -2.70486,12.18021 7.24896,2.70501 5.33793,0.20135 4.74893,6.15638 -1.05807,4.97071 -3.64182,32.06798 -4.0637,45.37701 -0.34707,10.94927 -0.11945,13.22578 1.16485,13.74393 1.97494,0.8262 6.1897,-2.70905 9.15568,-7.89541 4.76077,-8.14643 6.67837,-14.97778 11.37504,-40.04142 1.62406,-6.23271 0.24186,-12.44432 3.66755,-16.44416 1.10353,-1.28849 11.36713,-1.98798 15.95219,-2.58248 13.78647,-1.41038 22.73593,-0.33849 20.84293,-10.07562 -1.28982,-6.63461 -7.88481,-5.59967 -15.84925,-4.9181 -7.96444,0.68159 0.16219,0.50519 -14.1806,1.60163 l -6.31769,0.43703 1.06782,-11.58543 c 0.60324,-6.40433 1.29118,-12.33373 1.62093,-13.26698 0.5476,-1.49248 6.99775,-2.96298 23.07547,-5.13171 4.37149,-0.60054 9.38332,-0.84747 13.60854,-0.77992 3.09386,0.0494 12.28789,-0.26612 16.84069,-3.72087 3.10388,-2.3553 2.49326,-9.8119 -0.70255,-11.31101 -5.06283,-2.37493 -6.83633,-3.1235 -14.39701,-4.02834 -3.58,-0.69428 -7.03673,-0.93783 -9.81016,-1.03645 z"
     sodipodi:nodetypes="scccscscccscccscszcccccssscs" /><path
     d="m 26.049541,43.355027 c -0.8,0.5494 -1.6,5.906053 -2.2,12.636206 -1.1,14.833807 -2.5,22.52541 -11.500002,60.983427 -9.6999995,41.06767 -11.39999954,51.50627 -12.19999954,71.42203 -0.6,18.13021 0.6,31.72787 3.70000004,41.61707 1.7,5.08195 2.3,5.90605 4.6,5.494 2.3999995,-0.41205 2.9999995,-1.6482 5.8999995,-13.4603 1.8,-7.14221 5.6,-21.15191 8.500002,-30.90377 19.59999,-66.88948 24.89999,-104.798089 17.99999,-130.207855 -2.6,-9.614504 -5.4,-14.559107 -9.6,-16.894058 -3.89999,-2.197601 -3.49999,-2.197601 -5.19999,-0.68675 z"
     id="path12"
     style="fill:#F5F5F5;fill-opacity:1;stroke-width:0.117196" /><path
     d="m 584.27877,95.732811 c -10.8,1.2 -22.7,5.299999 -29.2,9.999999 -10.1,7.2 -14.5,17 -13.6,29.9 0.6,8 3.2,13.4 8.9,18.5 6,5.5 13.5,8.4 27.3,10.6 18.7,3.1 22.6,4 22.6,5.5 0,1.8 -4.4,5.1 -28,20.7 -26.7,17.6 -39.5,29.1 -47.1,42.3 -3.2,5.6 -3.6,8.7 -1.4,10.5 1.2,1 3.1,0.3 10.8,-4.2 5,-3.1 20.3,-11.7 34,-19.1 28.1,-15.5 34.8,-19.8 43.1,-27.6 7.5,-7.2 10,-12 10,-19.1 0,-7.5 -3,-13.1 -8.9,-16.5 -3.7,-2.2 -6.7,-2.9 -18.4,-4.1 -17,-1.7 -22.4,-2.8 -27.6,-5.9 -7.4,-4.3 -9.2,-12.1 -4,-17.5 4.3,-4.5 12.1,-6.9 27,-8.4 14.5,-1.4 16.7,-2.2 19.5,-6.9 2.4,-3.8 2.5,-7.8 0.5,-12.1 -3,-6.399999 -10.5,-8.299999 -25.5,-6.599999 z"
     id="path14"
     style="fill:#F5F5F5;fill-opacity:1;stroke-width:0.1" /><path
     d="m 642.27877,95.432811 c -3.7,1.4 -3.9,2.3 -1.8,8.099999 3.3,9.2 2.1,28.2 -3.5,59.7 -5.6,31.2 -6,35.5 -4.7,48.5 0.8,8.7 1.5,11.6 4.2,17 2.5,4.9 3.9,6.6 5.7,6.8 3.3,0.5 3.9,-0.4 5.5,-8.9 0.8,-4.2 5.1,-19.9 9.5,-35 9.7,-33 12,-42.9 12.8,-53.4 1.1,-15.5 -3.4,-30.4 -11.5,-37.7 -5.1,-4.599999 -11.8,-6.699999 -16.2,-5.099999 z"
     id="path16"
     style="fill:#F5F5F5;fill-opacity:1;stroke-width:0.1" /><path
     d="m 710.47877,95.932811 c -1.4,1.4 -1.6,6.699999 -0.3,10.099999 0.8,2.1 0.1,3.3 -6.7,10.3 -16,16.6 -25.2,42.4 -23.9,66.9 1.3,24 10.8,40.9 27.4,48.8 6.3,3 7.5,3.2 17.3,3.2 9.7,0 11,-0.2 17.3,-3.2 12,-5.7 20.7,-16.5 24.2,-30 1.9,-7.3 1.9,-21.8 0,-30.8 -3,-14 -12.5,-34.5 -22.3,-47.9 -2.4,-3.3 -3.2,-5.2 -2.6,-6.1 0.5,-0.6 2.4,-3.2 4.2,-5.6 6.2,-8.2 2.8,-13.299999 -8.8,-13.299999 -3.2,0 -6.8,0.7 -8.7,1.699999 -2,1.1 -3.4,1.3 -3.8,0.7 -0.7,-1.099999 -9.9,-5.999999 -11.3,-5.999999 -0.4,0 -1.3,0.5 -2,1.2 z m 30.4,50.299999 c 7.4,15.3 9.8,24.5 9.2,36 -1.7,29.9 -26.5,46.4 -40.2,26.6 -3.9,-5.6 -5.6,-12.2 -5.6,-21.6 0,-15.2 6,-31.7 18.2,-50.2 l 6.3,-9.5 3.3,3.9 c 1.9,2.1 5.8,8.7 8.8,14.8 z"
     id="path18"
     style="fill:#F5F5F5;fill-opacity:1;stroke-width:0.1"
     inkscape:label="path18" /><path
     d="m 810.37877,96.932811 c -9.9,4.899999 -19,19.399999 -23.6,37.499999 -3.8,15.3 -4.9,27 -4.9,51.8 0,30.1 3,48.6 8.1,49.3 2.9,0.4 5.5,-3.8 8.8,-14.1 4.6,-14.5 6.9,-27.2 11.1,-61.2 1.4,-12.1 3,-23 3.5,-24.3 1.9,-5.1 15,-7.9 22.3,-4.8 3.8,1.6 7.4,5 8.8,8.6 0.6,1.4 1.4,11.7 1.9,23 0.9,23 3,39.8 6.1,49.8 4.3,14.1 12.2,25.7 17,25 l 2.3,-0.3 -0.3,-19 c -0.2,-10.9 0.3,-30.9 1.3,-46.8 2,-32.7 1.7,-38.1 -3.1,-47.7 -5,-10 -13.3,-16.6 -23.6,-18.9 -5.8,-1.3 -16.7,0.3 -23.6,3.4 -3,1.4 -5.5,2.5 -5.7,2.5 -0.1,0 0,-3.3 0.3,-7.3 0.5,-8.699999 -0.4,-9.599999 -6.7,-6.499999 z"
     id="path20"
     style="fill:#F5F5F5;fill-opacity:1;stroke-width:0.1" /><path
     d="m 271.78426,98.332811 c -8,3.999999 -17.1,14.499999 -23.1,26.699999 -17.6,35.5 -14.9,80.3 6,100.2 8.5,8.1 13.2,10 24.9,10 7.9,0 10.3,-0.4 14.2,-2.3 22.6,-11.2 30.9,-42.4 19.8,-75.2 -3.2,-9.6 -11,-25.4 -17.2,-34.9 l -5.5,-8.3 2,-4.8 c 2.5,-5.9 1.8,-9.4 -2.6,-11.999999 -4.7,-2.9 -12,-2.6 -18.5,0.6 z m 21.4,40.699999 c 11.9,23 13.4,41.8 4.9,59.4 -7.3,15.1 -18.8,19 -27.7,9.5 -7.8,-8.4 -10.3,-28.4 -5.8,-45.7 2.4,-8.9 9.2,-23.9 14.8,-32.8 l 3.7,-5.8 2.8,3.3 c 1.5,1.8 4.8,7.3 7.3,12.1 z"
     id="path22"
     style="fill:#F5F5F5;fill-opacity:1;stroke-width:0.1" /><path
     d="m 76.388221,96.323851 c -9.9,4.899999 -19,19.399999 -23.6,37.499999 -3.8,15.3 -4.9,27 -4.9,51.8 0,30.1 3,48.6 8.1,49.3 2.9,0.4 5.5,-3.8 8.8,-14.1 4.6,-14.5 6.9,-27.2 11.1,-61.2 1.4,-12.1 3,-23 3.5,-24.3 1.9,-5.1 15,-7.9 22.299999,-4.8 3.8,1.6 7.4,5 8.8,8.6 0.6,1.4 1.4,11.7 1.9,23 0.9,23 3,39.8 6.1,49.8 4.3,14.1 12.2,25.7 17,25 l 2.3,-0.3 -0.3,-19 c -0.2,-10.9 0.3,-30.9 1.3,-46.8 2,-32.7 1.7,-38.1 -3.1,-47.7 -5,-10 -13.3,-16.6 -23.6,-18.9 -5.8,-1.3 -16.699999,0.3 -23.599999,3.4 -3,1.4 -5.5,2.5 -5.7,2.5 -0.1,0 0,-3.3 0.3,-7.3 0.5,-8.699999 -0.4,-9.599999 -6.7,-6.499999 z"
     id="path15"
     style="fill:#F5F5F5;fill-opacity:1;stroke-width:0.1" /></svg>
