<?xml version="1.0" encoding="UTF-8" standalone="no"?>
<svg
   id="LOGO_LAYER"
   viewBox="0 0 125.34375 131.44334"
   version="1.1"
   sodipodi:docname="ESC-HEART-ROMANIA-BLACK.svg"
   width="125.34375"
   height="131.44334"
   xmlns:inkscape="http://www.inkscape.org/namespaces/inkscape"
   xmlns:sodipodi="http://sodipodi.sourceforge.net/DTD/sodipodi-0.dtd"
   xmlns="http://www.w3.org/2000/svg"
   xmlns:svg="http://www.w3.org/2000/svg">
  <sodipodi:namedview
     id="namedview5"
     pagecolor="#ffffff"
     bordercolor="#cccccc"
     borderopacity="1"
     inkscape:showpageshadow="0"
     inkscape:pageopacity="1"
     inkscape:pagecheckerboard="0"
     inkscape:deskcolor="#d1d1d1" />
  <defs
     id="defs1">
    <style
       id="style1">.cls-1{fill:none;}.cls-2{fill:#002b7f;}.cls-3{fill:#fcd115;}.cls-4{fill:#ce1026;}</style>
  </defs>
  <g
     id="LOGO_GROUP"
     transform="translate(-232.75178,-97.88034)">
    <g
       id="SELECT_FLAG_HERE">
      <g
         id="BLACK_FLAG">
        <path
           class="cls-1"
           d="m 311.68,109.59 v 79.83 c 0.05,-0.05 0.1,-0.1 0.15,-0.15 v -79.75 c 0,0 -0.1,0.05 -0.15,0.07 z"
           id="path1" />
        <path
           class="cls-3"
           d="m 291.83,132.03 c -1.37,6.25 -5.64,3.2 -6.4,-0.61 -0.58,-2.91 -3.43,-8.59 -9.74,-11.13 v 84.28 c 6.4,5.11 11.77,9.22 13.54,12.8 2.54,-7.55 12.11,-16.95 22.46,-27.95 v -79.83 c -10.9,5.56 -18.81,17.7 -19.85,22.44 z"
           id="path2" />
        <path
           class="cls-2"
           d="m 268.71,118.99 c -8.08,0 -22.92,8.92 -23.23,37.43 -0.26,23.03 17.12,37.7 30.2,48.15 v -84.28 c -1.97,-0.8 -4.28,-1.3 -6.96,-1.3 z"
           id="path3" />
        <path
           class="cls-4"
           d="m 322.79,106.72 c -3.87,0 -7.56,1.08 -10.96,2.8 v 79.75 c 14.26,-15.18 29.93,-33.4 30.63,-54.03 0.45,-13.11 -4.73,-28.52 -19.67,-28.52 z"
           id="path4" />
        <path
           d="m 328.12,97.88 c -13.42,0 -29.29,9.91 -38.89,26.38 -2.59,-5.95 -11.83,-12.43 -22.8,-12.43 -8.84,0 -33.67,11.05 -33.67,46.73 0,46.05 46.59,55.51 56.01,69.82 0.65,0.99 2.73,1.73 3.53,-0.62 7.51,-22.18 65.79,-47.24 65.79,-92.37 0,-25.31 -16.53,-37.51 -29.95,-37.51 z m 14.33,37.36 c -0.71,20.63 -16.37,38.85 -30.63,54.03 -0.05,0.05 -0.1,0.1 -0.15,0.15 -10.34,11 -19.92,20.4 -22.46,27.95 -1.77,-3.58 -7.14,-7.68 -13.54,-12.8 -13.08,-10.45 -30.45,-25.11 -30.2,-48.15 0.32,-28.51 15.16,-37.43 23.23,-37.43 2.69,0 4.99,0.5 6.96,1.3 6.31,2.55 9.16,8.23 9.74,11.13 0.76,3.81 5.03,6.86 6.4,0.61 1.04,-4.75 8.96,-16.88 19.85,-22.44 0.05,-0.02 0.1,-0.05 0.15,-0.07 3.41,-1.72 7.1,-2.8 10.96,-2.8 14.94,0 20.12,15.41 19.67,28.52 z"
           id="path5" />
      </g>
    </g>
  </g>
</svg>
