<?xml version="1.0" encoding="UTF-8" standalone="no"?>
<svg
   id="LOGO_LAYER"
   viewBox="0 0 125.34375 131.44334"
   version="1.1"
   sodipodi:docname="ESC-HEART-BELARUS-BLACK.svg"
   inkscape:export-filename="ESC-HEART-BELARUS-BLACK.svg"
   inkscape:export-xdpi="96"
   inkscape:export-ydpi="96"
   inkscape:version="1.3 (0e150ed6c4, 2023-07-21)"
   width="125.34375"
   height="131.44334"
   xmlns:inkscape="http://www.inkscape.org/namespaces/inkscape"
   xmlns:sodipodi="http://sodipodi.sourceforge.net/DTD/sodipodi-0.dtd"
   xmlns="http://www.w3.org/2000/svg"
   xmlns:svg="http://www.w3.org/2000/svg">
  <sodipodi:namedview
     id="namedview26"
     pagecolor="#ffffff"
     bordercolor="#cccccc"
     borderopacity="1"
     inkscape:showpageshadow="0"
     inkscape:pageopacity="1"
     inkscape:pagecheckerboard="0"
     inkscape:deskcolor="#d1d1d1"
     inkscape:zoom="0.437022"
     inkscape:cx="288.315"
     inkscape:cy="140.72518"
     inkscape:window-width="1366"
     inkscape:window-height="705"
     inkscape:window-x="-8"
     inkscape:window-y="-8"
     inkscape:window-maximized="1"
     inkscape:current-layer="LOGO_LAYER" />
  <defs
     id="defs1">
    <style
       id="style1">.cls-1{fill:#f9f9f9;}.cls-2{fill:#007c30;}.cls-3{fill:#cf1721;}</style>
  </defs>
  <g
     id="LOGO_GROUP"
     transform="translate(-232.75178,-97.88034)">
    <g
       id="SELECT_FLAG_HERE">
      <g
         id="BLACK_FLAG">
        <path
           class="cls-2"
           d="m 269.11,179.41 v 19.77 c 9.04,7.75 17.76,13.44 20.11,18.19 3.74,-11.11 22.71,-26.23 36.96,-44.58 l -57.07,6.02 v 0.59 z"
           id="path1" />
        <polygon
           class="cls-1"
           points="265.98,195.58 267.02,195.46 267.02,194.57 267.02,193.68 265.98,193.79 265.98,194.68 "
           id="polygon1" />
        <path
           class="cls-1"
           d="m 268.07,195.35 v 1.78 l -1.05,0.11 v 0.11 c 0.7,0.62 1.39,1.23 2.09,1.83 v -3.93 l -1.04,0.11 z"
           id="path2" />
        <path
           class="cls-1"
           d="m 246.35,152.71 v 0.89 l 1.04,-0.11 v 1.78 l 1.04,-0.11 v 1.78 l 1.05,-0.11 v -1.78 l 0.94,-0.1 v -1.78 l 1.04,-0.11 v -1.78 l 1.05,-0.11 v -1.69 l 1.04,-0.11 v -1.78 l 1.04,-0.11 v -1.78 l -1.04,0.11 v -1.78 l -1.04,0.11 v -1.78 l -1.05,0.11 -1.04,0.11 -0.94,0.1 v 1.78 l 0.94,-0.1 1.04,-0.11 v 1.78 l -1.04,0.11 v 1.78 l -0.94,0.1 v 1.78 l -1.05,0.11 v -1.78 l -1.04,0.11 v -1.78 l -1.04,0.11 v -0.62 c -0.13,0.79 -0.25,1.6 -0.35,2.43 l 0.35,-0.04 v 1.78 l -0.55,0.06 c -0.05,0.56 -0.1,1.13 -0.14,1.7 l 0.69,-0.07 v 0.89 z"
           id="path3" />
        <polygon
           class="cls-1"
           points="259.82,129.31 260.86,129.2 260.86,128.31 260.86,127.42 259.82,127.53 259.82,128.42 "
           id="polygon3" />
        <polygon
           class="cls-1"
           points="269.11,174.07 269.11,172.37 268.07,172.49 268.07,171.6 268.07,170.71 267.02,170.82 267.02,169.93 267.02,169.04 265.98,169.15 265.98,168.26 265.98,167.37 264.93,167.48 264.93,168.37 264.93,169.26 263.89,169.37 263.89,170.26 263.89,171.15 262.85,171.26 262.85,172.15 262.85,173.04 261.91,173.13 261.91,174.02 261.91,174.83 260.86,174.94 260.86,175.83 260.86,176.72 259.82,176.83 259.82,177.72 259.82,178.61 260.86,178.5 260.86,179.38 260.86,180.28 261.91,180.17 261.91,181.05 261.91,181.94 262.85,181.85 263.89,181.74 264.93,181.63 264.93,180.74 264.93,179.85 263.89,179.96 262.85,180.07 262.85,179.18 262.85,178.29 263.89,178.18 263.89,177.29 263.89,176.4 264.93,176.29 264.93,175.4 264.93,174.51 265.98,174.4 265.98,175.29 265.98,176.18 267.02,176.07 267.02,176.96 267.02,177.84 268.07,177.74 268.07,178.63 268.07,179.52 269.11,179.41 269.11,178.81 269.11,175.85 268.07,175.96 268.07,175.07 268.07,174.18 "
           id="polygon4" />
        <polygon
           class="cls-1"
           points="267.02,158.45 265.98,158.56 265.98,159.45 265.98,160.34 264.93,160.45 264.93,161.34 264.93,162.23 265.98,162.12 265.98,163.01 265.98,163.9 267.02,163.79 267.02,164.68 267.02,165.57 268.07,165.46 268.07,166.34 268.07,167.15 269.11,167.04 269.11,154.76 268.07,154.87 268.07,155.67 268.07,156.56 267.02,156.67 267.02,157.56 "
           id="polygon5" />
        <path
           class="cls-1"
           d="m 264.93,193.9 v -1.69 l 1.04,-0.11 v -1.78 l 1.04,-0.11 v 1.78 l 1.05,-0.11 v 1.69 l 1.04,-0.11 v -5.25 l -1.04,0.11 v -1.78 l 1.04,-0.11 v -3.47 l -1.04,0.11 v 1.69 l -1.04,0.11 v 1.78 l -1.04,0.11 v 1.78 l -1.04,0.11 v 1.78 l -1.04,0.11 v 1.78 l -1.04,0.11 v -1.78 l -0.94,0.1 v -1.78 l -1.04,0.11 v -1.78 l -1.04,0.11 v -1.78 l -1.04,0.11 v -1.69 l -1.05,0.11 v -1.78 l -1.04,0.11 v 1.78 l -1.04,0.11 v 0.92 c 0.61,0.8 1.23,1.59 1.87,2.35 l 0.21,-0.02 v 0.28 c 0.86,1.03 1.75,2.03 2.66,3 l 0.47,-0.05 v 0.54 c 0.99,1.05 2,2.06 3.03,3.04 V 194 l 1.04,-0.11 z"
           id="path5" />
        <path
           class="cls-1"
           d="m 247.4,166.75 v -0.89 l 1.04,-0.11 v -1.78 l 1.05,-0.11 v -1.78 l -1.05,0.11 v -1.78 l -1.04,0.11 v -1.78 l -1.04,0.11 v -1.69 l -0.87,0.09 c 0.03,3.69 0.51,7.17 1.35,10.45 l 0.56,-0.06 z"
           id="path6" />
        <path
           class="cls-1"
           d="m 250.43,132.88 v 0 c -0.16,0.3 -0.31,0.61 -0.47,0.94 l 0.47,-0.05 z"
           id="path7" />
        <path
           class="cls-1"
           d="m 251.47,132.77 v 0.89 l 1.05,-0.11 v 1.78 l 1.04,-0.11 V 137 l 1.05,-0.11 v 1.78 l 1.04,-0.11 v 1.69 l 1.05,-0.11 v 1.78 l 1.04,-0.11 v -1.78 l 1.04,-0.11 v -1.69 l 1.04,-0.11 v -1.78 l 1.04,-0.11 v -1.78 l 1.04,-0.11 v -1.78 l 0.94,-0.1 v -1.78 l 1.04,-0.11 v 1.78 l 1.04,-0.11 v 1.78 l 1.04,-0.11 v 1.78 l 1.04,-0.11 v 1.78 l 1.05,-0.11 v 1.69 l 1.04,-0.11 v -3.47 l -1.04,0.11 v -1.78 l 1.04,-0.11 v -5.25 l -1.04,0.11 v 1.69 l -1.05,0.11 v 1.78 l -1.04,0.11 v -1.78 l -1.04,0.11 v -1.69 l -1.04,0.11 v -1.78 l 1.04,-0.11 v -1.78 l 1.04,-0.11 v -1.78 h 0.05 c 0,0 0.99,-0.11 0.99,-0.11 v 1.78 l 1.05,-0.11 v 1.78 l 1.04,-0.11 v -5.34 l -1.04,0.11 v -1.69 l 1.04,-0.11 v -0.51 c -0.14,0 -0.26,-0.02 -0.4,-0.02 -0.54,0 -1.1,0.04 -1.69,0.12 v 0.63 l -1.04,0.11 v 1.69 l -1.05,0.11 v 1.78 l -1.04,0.11 v 1.78 l -1.05,0.11 v -1.78 l -0.94,0.1 v -1.78 l -1.05,0.11 v -0.79 c -1.04,0.59 -2.09,1.31 -3.13,2.16 v 0.74 l -0.97,0.1 c -0.66,0.6 -1.31,1.26 -1.94,1.98 l 0.82,-0.09 v 1.78 l 1.04,-0.11 v 1.78 l -1.04,0.11 v 1.69 l -1.04,0.11 v 1.78 l -1.04,0.11 v -1.78 l -1.04,0.11 v -1.69 l -0.56,0.06 c -0.36,0.58 -0.71,1.17 -1.05,1.8 l 0.56,-0.06 v 0.89 z m 6.26,-4.13 v -0.89 l 1.04,-0.11 v -1.78 l 1.05,-0.11 v -1.78 l 1.04,-0.11 v 1.78 l 1.05,-0.11 v 1.78 l 0.94,-0.1 v 1.78 l -0.94,0.1 v 1.69 l -1.05,0.11 v 1.78 l -1.04,0.11 V 131 l -1.05,0.11 v -1.69 l -1.04,0.11 z m -1.04,7.14 v -2.67 l 1.04,-0.11 v 3.56 l -1.04,0.11 z"
           id="path8" />
        <path
           class="cls-1"
           d="m 249.49,134.88 c -0.11,0.26 -0.22,0.54 -0.33,0.81 l 0.33,-0.04 z"
           id="path9" />
        <polygon
           class="cls-1"
           points="267.02,146.17 265.98,146.28 265.98,147.17 265.98,148.06 264.93,148.17 264.93,147.28 264.93,146.39 263.89,146.5 263.89,145.61 263.89,144.72 262.85,144.83 262.85,143.94 262.85,143.05 263.89,142.94 264.93,142.83 264.93,141.94 264.93,141.05 263.89,141.16 262.85,141.27 261.91,141.37 261.91,142.26 261.91,143.15 260.86,143.26 260.86,144.15 260.86,145.04 259.82,145.15 259.82,146.04 259.82,146.93 260.86,146.82 260.86,147.71 260.86,148.6 261.91,148.49 261.91,149.29 261.91,150.18 262.85,150.08 262.85,150.97 262.85,151.86 263.89,151.75 263.89,152.64 263.89,153.53 264.93,153.42 264.93,154.31 264.93,155.2 265.98,155.09 265.98,154.2 265.98,153.31 267.02,153.2 267.02,152.31 267.02,151.42 268.07,151.31 268.07,150.42 268.07,149.53 269.11,149.42 269.11,147.73 268.07,147.84 268.07,146.95 268.07,146.06 269.11,145.95 269.11,142.39 268.07,142.5 268.07,143.39 268.07,144.28 267.02,144.39 267.02,145.28 "
           id="polygon9" />
        <path
           class="cls-1"
           d="m 261.91,156.32 v -0.8 l -1.04,0.11 v -1.78 l -1.04,0.11 v -1.78 l -1.05,0.11 v -1.78 l -1.04,0.11 v -1.69 l -1.04,0.11 v 1.69 l -1.04,0.11 v 1.78 l -1.04,0.11 v 1.78 l -1.04,0.11 v 1.78 l -1.04,0.11 v 1.69 l -1.04,0.11 v 8.9 l 1.04,-0.11 v 1.69 l 1.04,-0.11 v 1.78 l 1.04,-0.11 v 1.78 l 1.04,-0.11 v 1.78 l 1.04,-0.11 v 1.69 l 1.04,-0.11 v -1.69 l 1.04,-0.11 v -1.78 l 1.05,-0.11 v -1.78 l 1.04,-0.11 v -1.78 l 1.04,-0.11 v -1.69 l 0.94,-0.1 v -8.9 l -0.94,0.1 z m -8.14,6.2 v 0.89 l -1.05,0.11 v -1.78 l 1.05,-0.11 z m 2.92,-9.12 v -0.89 l 1.04,-0.11 v 1.78 l -1.04,0.11 z m 1.04,17.51 v 0.89 l -1.04,0.11 v -1.78 l 1.04,-0.11 z m 2.09,-14.37 v 2.67 l -1.05,0.11 v 1.78 l -1.04,0.11 v 1.78 l 1.04,-0.11 v 1.78 l 1.05,-0.11 v 3.47 l -1.05,0.11 v -1.69 l -1.04,0.11 v -1.78 l -1.04,0.11 v 1.78 l -1.04,0.11 v 1.69 l -1.04,0.11 v -3.47 l 1.04,-0.11 v -1.78 l 1.04,-0.11 v -1.78 l -1.04,0.11 v -1.78 l -1.04,0.11 v -3.47 l 1.04,-0.11 v 1.69 l 1.04,-0.11 v 1.78 l 1.04,-0.11 v -1.78 l 1.04,-0.11 v -1.69 l 1.05,-0.11 z m 1.88,5.14 v 0.89 l -1.04,0.11 v -1.78 l 1.04,-0.11 z"
           id="path10" />
        <path
           class="cls-1"
           d="m 253.56,180.16 v -0.89 l 1.04,-0.11 v -1.78 l -1.04,0.11 v -1.78 l -1.04,0.11 v -1.69 l -1.05,0.11 v -1.78 l -1.04,0.11 v -1.78 l -0.94,0.1 v -1.78 l -1.05,0.11 V 171 l -0.6,0.06 c 1.25,3.61 2.93,6.95 4.9,10.07 l 0.82,-0.09 v -0.89 z"
           id="path11" />
        <polygon
           class="cls-1"
           points="253.56,129.97 254.6,129.86 254.6,128.97 254.6,128.08 253.56,128.19 253.56,129.08 "
           id="polygon11" />
        <path
           class="cls-1"
           d="m 263.89,119.9 c -0.21,0.07 -0.42,0.15 -0.63,0.24 l 0.63,-0.07 z"
           id="path12" />
        <polygon
           class="cls-1"
           points="267.02,126.77 265.98,126.88 265.98,127.77 265.98,128.66 267.02,128.55 267.02,127.66 "
           id="polygon12" />
        <polygon
           class="cls-3"
           points="269.11,186.43 268.07,186.54 268.07,187.43 268.07,188.33 269.11,188.22 269.11,187.33 "
           id="polygon13" />
        <polygon
           class="cls-3"
           points="261.7,160.79 260.66,160.9 260.66,161.79 260.66,162.68 261.7,162.57 261.7,161.68 "
           id="polygon14" />
        <polygon
           class="cls-3"
           points="257.73,170.02 256.69,170.13 256.69,171.02 256.69,171.91 257.73,171.8 257.73,170.91 "
           id="polygon15" />
        <polygon
           class="cls-3"
           points="253.77,161.63 252.72,161.74 252.72,162.63 252.72,163.52 253.77,163.41 253.77,162.52 "
           id="polygon16" />
        <polygon
           class="cls-3"
           points="256.69,154.29 257.73,154.18 257.73,153.29 257.73,152.4 256.69,152.51 256.69,153.4 "
           id="polygon17" />
        <path
           class="cls-3"
           d="m 268.07,197.13 v -1.78 l 1.04,-0.11 v -1.78 l -1.04,0.11 v -1.69 l -1.05,0.11 v -1.78 l -1.04,0.11 v 1.78 l -1.04,0.11 v 1.69 l -1.04,0.11 v 0.44 c 1.04,1 2.08,1.96 3.13,2.9 v -0.11 l 1.05,-0.11 z m -2.09,-2.45 v -0.89 l 1.04,-0.11 v 1.78 l -1.04,0.11 z"
           id="path17" />
        <path
           class="cls-3"
           d="m 257.52,187.66 c 0.07,0.09 0.14,0.17 0.21,0.26 v -0.28 z"
           id="path18" />
        <path
           class="cls-3"
           d="m 260.39,190.91 c 0.16,0.17 0.31,0.33 0.47,0.5 v -0.54 l -0.47,0.05 z"
           id="path19" />
        <path
           class="cls-3"
           d="m 258.78,130.31 v 0.8 l 1.05,-0.11 v 1.78 l 1.04,-0.11 v -1.78 l 1.05,-0.11 v -1.69 l 0.94,-0.1 v -1.78 l -0.94,0.1 v -1.78 l -1.05,0.11 v -1.78 l -1.04,0.11 v 1.78 l -1.05,0.11 v 1.78 l -1.04,0.11 v 1.78 l 1.04,-0.11 z m 1.05,-1.89 v -0.89 l 1.04,-0.11 v 1.78 l -1.04,0.11 z"
           id="path20" />
        <polygon
           class="cls-3"
           points="257.73,159.43 256.69,159.54 256.69,158.65 256.69,157.76 255.65,157.87 255.65,156.98 255.65,156.18 254.6,156.29 254.6,157.09 254.6,157.98 254.6,158.87 254.6,159.76 255.65,159.65 255.65,160.54 255.65,161.43 256.69,161.32 256.69,162.21 256.69,163.1 255.65,163.21 255.65,164.1 255.65,164.99 254.6,165.1 254.6,165.99 254.6,166.88 254.6,167.77 254.6,168.57 255.65,168.46 255.65,167.66 255.65,166.77 256.69,166.66 256.69,165.77 256.69,164.88 257.73,164.77 257.73,165.66 257.73,166.55 258.78,166.44 258.78,167.33 258.78,168.13 259.82,168.02 259.82,167.22 259.82,166.33 259.82,165.44 259.82,164.55 258.78,164.66 258.78,163.77 258.78,162.88 257.73,162.99 257.73,162.1 257.73,161.21 258.78,161.1 258.78,160.21 258.78,159.32 259.82,159.21 259.82,158.32 259.82,157.43 259.82,156.54 259.82,155.74 258.78,155.85 258.78,156.65 258.78,157.54 257.73,157.65 257.73,158.54 "
           id="polygon20" />
        <path
           class="cls-3"
           d="m 246.36,149.24 v -0.89 l -0.35,0.04 c -0.07,0.59 -0.13,1.19 -0.19,1.8 l 0.55,-0.06 v -0.89 z"
           id="path21" />
        <path
           class="cls-3"
           d="m 252.52,130.97 v 0.8 l 1.04,-0.11 v 1.78 l 1.04,-0.11 v -1.78 l 1.04,-0.11 v -1.69 l 1.04,-0.11 v -1.78 l -1.04,0.11 v -1.78 l -0.82,0.09 c -1,1.13 -1.96,2.42 -2.87,3.86 l 0.56,-0.06 v 0.89 z m 1.04,-1.89 v -0.89 l 1.04,-0.11 v 1.78 l -1.04,0.11 z"
           id="path22" />
        <path
           class="cls-3"
           d="m 261.91,121.98 v 1.78 l 0.94,-0.1 v 1.78 l 1.05,-0.11 v -1.78 l 1.04,-0.11 v -1.78 l 1.05,-0.11 v -1.69 l 1.04,-0.11 v -0.63 c -0.99,0.14 -2.04,0.4 -3.13,0.79 v 0.17 l -0.63,0.07 c -0.79,0.31 -1.59,0.7 -2.4,1.15 v 0.79 l 1.05,-0.11 z"
           id="path23" />
        <path
           class="cls-3"
           d="m 257.73,123.46 c -0.32,0.27 -0.65,0.55 -0.97,0.84 l 0.97,-0.1 z"
           id="path24" />
        <polygon
           class="cls-3"
           points="256.69,133.11 256.69,134 256.69,134.89 256.69,135.78 256.69,136.67 257.73,136.56 257.73,135.67 257.73,134.78 257.73,133.89 257.73,133 "
           id="polygon24" />
        <path
           class="cls-3"
           d="m 322.79,106.72 c -16.31,0 -29.59,19.06 -30.96,25.31 -1.37,6.25 -5.64,3.2 -6.4,-0.61 -0.75,-3.77 -5.32,-12.2 -16.31,-12.41 v 0.51 l -1.04,0.11 v 1.69 l 1.04,-0.11 v 5.34 l -1.04,0.11 v -1.78 l -1.05,0.11 v -1.78 l -0.99,0.1 h -0.05 v 1.79 l -1.04,0.11 v 1.78 l -1.04,0.11 v 1.78 l 1.04,-0.11 v 1.69 l 1.04,-0.11 v 1.78 l 1.04,-0.11 v -1.78 l 1.05,-0.11 v -1.69 l 1.04,-0.11 v 5.25 l -1.04,0.11 v 1.78 l 1.04,-0.11 v 3.47 l -1.04,0.11 v -1.69 l -1.05,0.11 v -1.78 l -1.04,0.11 v -1.78 l -1.04,0.11 v -1.78 l -1.04,0.11 v -1.78 l -1.04,0.11 v 1.78 l -0.94,0.1 v 1.78 l -1.04,0.11 v 1.78 l -1.04,0.11 v 1.78 l -1.04,0.11 v 1.69 l -1.04,0.11 v 1.78 l -1.04,0.11 v -1.78 l -1.05,0.11 v -1.69 l -1.04,0.11 v -1.78 l -1.05,0.11 v -1.78 l -1.04,0.11 v -1.78 l -1.05,0.11 v -1.78 l -0.56,0.06 c -0.16,0.3 -0.32,0.62 -0.48,0.93 v 0 0.9 l -0.47,0.05 c -0.16,0.35 -0.32,0.7 -0.48,1.06 v 0.77 l -0.33,0.04 c -1.19,2.95 -2.16,6.36 -2.8,10.27 v 0.62 l 1.04,-0.11 v 1.78 l 1.04,-0.11 v 1.78 l 1.05,-0.11 v -1.78 l 0.94,-0.1 v -1.78 l 1.04,-0.11 v -1.78 l -1.04,0.11 -0.94,0.1 v -1.78 l 0.94,-0.1 1.04,-0.11 1.05,-0.11 v 1.78 l 1.04,-0.11 v 1.78 l 1.04,-0.11 v 1.78 l -1.04,0.11 v 1.78 l -1.04,0.11 v 1.69 l -1.05,0.11 v 1.78 l -1.04,0.11 v 1.78 l -0.94,0.1 v 1.78 l -1.05,0.11 v -1.78 l -1.04,0.11 v -1.78 l -1.04,0.11 v -1.78 l -0.69,0.07 c -0.1,1.46 -0.17,2.96 -0.19,4.53 0,0.28 0,0.55 0,0.82 l 0.87,-0.09 v 1.69 l 1.04,-0.11 v 1.78 l 1.04,-0.11 v 1.78 l 1.05,-0.11 v 1.78 l -1.05,0.11 v 1.78 l -1.04,0.11 v 1.78 l -0.56,0.06 c 0.29,1.15 0.63,2.27 1.01,3.36 l 0.6,-0.06 v -1.78 l 1.05,-0.11 v 1.78 l 0.94,-0.1 v 1.78 l 1.04,-0.11 v 1.78 l 1.05,-0.11 v 1.69 l 1.04,-0.11 v 1.78 l 1.04,-0.11 v 1.78 l -1.04,0.11 v 1.78 l -0.82,0.09 c 0.91,1.44 1.88,2.82 2.9,4.17 v -0.92 l 1.04,-0.11 v -1.78 l 1.04,-0.11 v 1.78 l 1.05,-0.11 v 1.69 l 1.04,-0.11 v 1.78 l 1.04,-0.11 v 1.78 l 1.04,-0.11 v 1.78 l 0.94,-0.1 v 1.78 l 1.04,-0.11 v -1.78 l 1.04,-0.11 v -1.78 l 1.04,-0.11 v -1.78 l 1.04,-0.11 v -1.78 l 1.04,-0.11 v -1.69 l 1.04,-0.11 v -3.56 l -1.04,0.11 v -1.78 l -1.05,0.11 v -1.78 l -1.04,0.11 v -1.78 l -1.04,0.11 v 1.78 l -1.04,0.11 v 1.78 l -1.04,0.11 v 1.78 l 1.04,-0.11 1.04,-0.11 v 1.78 l -1.04,0.11 -1.04,0.11 -0.94,0.1 v -1.78 l -1.04,0.11 v -1.78 l -1.04,0.11 v -1.78 l 1.04,-0.11 v -1.78 l 1.04,-0.11 v -1.69 l 0.94,-0.1 v -1.78 l 1.04,-0.11 v -1.78 l 1.04,-0.11 v -1.78 l 1.04,-0.11 v 1.78 l 1.04,-0.11 v 1.78 l 1.05,-0.11 v 1.78 l 1.04,-0.11 v 1.69 l -1.04,0.11 v 1.78 l 1.04,-0.11 v 2.97 l 57.07,-6.02 c 8.81,-11.35 15.81,-23.93 16.28,-37.56 0.45,-13.11 -4.73,-28.52 -19.67,-28.52 z m -55.77,20.95 v 0.89 l -1.04,0.11 v -1.78 l 1.04,-0.11 z m -4.17,30.34 v 8.01 l -0.94,0.1 v 1.69 l -1.04,0.11 v 1.78 l -1.04,0.11 v 1.78 l -1.05,0.11 v 1.78 l -1.04,0.11 v 1.69 l -1.04,0.11 v -1.69 l -1.04,0.11 v -1.78 l -1.04,0.11 v -1.78 l -1.04,0.11 v -1.78 l -1.04,0.11 v -1.69 l -1.04,0.11 v -8.9 l 1.04,-0.11 v -1.69 l 1.04,-0.11 v -1.78 l 1.04,-0.11 v -1.78 l 1.04,-0.11 v -1.78 l 1.04,-0.11 v -1.69 l 1.04,-0.11 v 1.69 l 1.04,-0.11 v 1.78 l 1.05,-0.11 v 1.78 l 1.04,-0.11 v 1.78 l 1.04,-0.11 v 1.69 l 0.94,-0.1 z m 6.26,9.03 -1.04,0.11 v -1.69 l -1.05,0.11 v -1.78 l -1.04,0.11 v -1.78 l -1.04,0.11 v -1.78 l 1.04,-0.11 v -1.78 l 1.04,-0.11 v -1.78 l 1.05,-0.11 v -1.69 l 1.04,-0.11 z m 0,-21.08 -1.04,0.11 v 1.78 l 1.04,-0.11 v 1.69 l -1.04,0.11 v 1.78 l -1.05,0.11 v 1.78 l -1.04,0.11 v 1.78 l -1.04,0.11 v -1.78 l -1.04,0.11 v -1.78 l -1.04,0.11 v -1.78 l -0.94,0.1 v -1.69 l -1.04,0.11 v -1.78 l -1.04,0.11 v -1.78 l 1.04,-0.11 v -1.78 l 1.04,-0.11 v -1.78 l 0.94,-0.1 1.04,-0.11 1.04,-0.11 v 1.78 l -1.04,0.11 -1.04,0.11 v 1.78 l 1.04,-0.11 v 1.78 l 1.04,-0.11 v 1.78 l 1.04,-0.11 v -1.78 l 1.04,-0.11 v -1.78 l 1.05,-0.11 v -1.78 l 1.04,-0.11 z"
           id="path25" />
        <path
           d="m 328.12,97.88 c -13.42,0 -29.29,9.91 -38.89,26.38 -2.59,-5.95 -11.83,-12.43 -22.8,-12.43 -8.84,0 -33.67,11.05 -33.67,46.73 0,46.05 46.59,55.51 56.01,69.82 0.65,0.99 2.73,1.73 3.53,-0.62 7.51,-22.18 65.79,-47.24 65.79,-92.37 0,-25.31 -16.53,-37.51 -29.95,-37.51 z m 14.33,37.36 c -0.47,13.63 -7.47,26.21 -16.28,37.56 -14.24,18.35 -33.22,33.47 -36.96,44.58 -2.35,-4.76 -11.07,-10.44 -20.11,-18.19 -0.7,-0.6 -1.39,-1.21 -2.09,-1.83 -1.05,-0.94 -2.1,-1.9 -3.13,-2.9 -1.02,-0.98 -2.04,-2 -3.03,-3.04 -0.16,-0.16 -0.31,-0.33 -0.47,-0.5 -0.91,-0.97 -1.8,-1.97 -2.66,-3 -0.07,-0.09 -0.14,-0.17 -0.21,-0.26 -0.64,-0.77 -1.26,-1.55 -1.87,-2.35 -1.02,-1.34 -1.99,-2.73 -2.9,-4.17 -1.97,-3.12 -3.65,-6.47 -4.9,-10.07 -0.38,-1.1 -0.71,-2.22 -1.01,-3.36 -0.84,-3.28 -1.32,-6.75 -1.35,-10.45 0,-0.27 0,-0.55 0,-0.82 0.02,-1.57 0.09,-3.08 0.19,-4.53 0.04,-0.58 0.09,-1.14 0.14,-1.7 0.06,-0.61 0.12,-1.21 0.19,-1.8 0.1,-0.83 0.22,-1.64 0.35,-2.43 0.64,-3.91 1.61,-7.32 2.8,-10.27 0.11,-0.27 0.22,-0.54 0.33,-0.81 0.15,-0.36 0.31,-0.71 0.48,-1.06 0.15,-0.32 0.31,-0.64 0.47,-0.95 0.16,-0.31 0.31,-0.63 0.48,-0.93 0.34,-0.63 0.69,-1.22 1.05,-1.8 0.9,-1.44 1.87,-2.73 2.87,-3.86 0.64,-0.72 1.28,-1.38 1.94,-1.98 0.32,-0.29 0.64,-0.57 0.97,-0.84 1.04,-0.85 2.09,-1.57 3.13,-2.16 0.81,-0.46 1.61,-0.84 2.4,-1.15 0.21,-0.08 0.42,-0.16 0.63,-0.24 1.09,-0.39 2.14,-0.65 3.13,-0.79 0.59,-0.08 1.15,-0.12 1.69,-0.12 0.14,0 0.26,0.02 0.4,0.02 10.99,0.21 15.56,8.64 16.31,12.41 0.76,3.81 5.03,6.86 6.4,0.61 1.37,-6.25 14.65,-25.31 30.96,-25.31 14.94,0 20.12,15.41 19.67,28.52 z"
           id="path26" />
      </g>
    </g>
  </g>
</svg>
