<?xml version="1.0" encoding="UTF-8" standalone="no"?>
<svg
   id="LOGO_LAYER"
   viewBox="0 0 125.34375 131.44334"
   version="1.1"
   sodipodi:docname="ESC-HEART-UNITEDKINGDOM-BLACK.svg"
   width="125.34375"
   height="131.44334"
   xmlns:inkscape="http://www.inkscape.org/namespaces/inkscape"
   xmlns:sodipodi="http://sodipodi.sourceforge.net/DTD/sodipodi-0.dtd"
   xmlns="http://www.w3.org/2000/svg"
   xmlns:svg="http://www.w3.org/2000/svg">
  <sodipodi:namedview
     id="namedview16"
     pagecolor="#ffffff"
     bordercolor="#cccccc"
     borderopacity="1"
     inkscape:showpageshadow="0"
     inkscape:pageopacity="1"
     inkscape:pagecheckerboard="0"
     inkscape:deskcolor="#d1d1d1" />
  <defs
     id="defs1">
    <style
       id="style1">.cls-1{fill:#f9f9f9;}.cls-2{fill:#012169;}.cls-3{fill:#c8102e;}</style>
  </defs>
  <g
     id="LOGO_GROUP"
     transform="translate(-232.75178,-97.88034)">
    <g
       id="SELECT_FLAG_HERE">
      <g
         id="BLACK_FLAG">
        <path
           class="cls-2"
           d="m 341.27,143.97 c 0.55,-2.33 0.92,-4.69 1.1,-7.09 v 0 l -12.78,8.32 z"
           id="path1" />
        <path
           class="cls-2"
           d="m 302.07,199.62 c 0.07,-0.08 0.15,-0.16 0.22,-0.24 4.71,-5.08 10.14,-10.61 15.45,-16.54 l -15.67,-6.9 z"
           id="path2" />
        <path
           class="cls-2"
           d="m 278.56,121.8 c -2.49,-1.65 -5.72,-2.81 -9.84,-2.81 -4.12,0 -10.08,2.36 -14.91,8.51 -1.7,2.16 -3.26,4.79 -4.56,7.95 l 29.31,12.91 v -26.57 z"
           id="path3" />
        <path
           class="cls-2"
           d="m 245.72,151.11 v 0 c -0.08,0.95 -0.14,1.92 -0.18,2.92 l 5.49,-0.58 z"
           id="path4" />
        <path
           class="cls-2"
           d="m 260,190.49 c 4.17,4.53 8.75,8.47 13.04,11.97 1.92,1.56 3.78,3.03 5.52,4.42 V 178.42 L 260,190.5 Z"
           id="path5" />
        <path
           class="cls-2"
           d="m 340.51,120.88 c -0.27,-0.82 -0.58,-1.61 -0.92,-2.39 -2.93,-6.75 -8.28,-11.77 -16.81,-11.77 -7.99,0 -15.23,4.57 -20.72,9.97 v 29.21 z"
           id="path6" />
        <path
           class="cls-1"
           d="m 323.12,176.61 -9.3,-4.1 10.51,-1.1 2.18,0.96 c 1.72,-2.23 3.36,-4.51 4.9,-6.83 v 0 l -34.05,3.58 v 35.77 c 1.45,-1.7 3.03,-3.45 4.7,-5.26 v -23.68 l 15.67,6.9 v 0 c 1.82,-2.03 3.62,-4.11 5.38,-6.23 v 0 z"
           id="path7" />
        <path
           class="cls-3"
           d="m 266.8,151.8 -19.89,-8.76 c -0.37,1.67 -0.67,3.45 -0.91,5.34 l 10.29,4.53 10.51,-1.1 z"
           id="path8" />
        <path
           class="cls-3"
           d="m 313.82,146.86 28.35,-18.45 v 0 c -0.21,-1.73 -0.52,-3.45 -0.95,-5.12 v 0 l -37.91,24.67 z"
           id="path9" />
        <path
           class="cls-3"
           d="m 266.8,177.45 -11.45,7.45 c 0.97,1.3 1.99,2.55 3.04,3.77 v 0 l 18.94,-12.32 -10.52,1.11 z"
           id="path10" />
        <path
           class="cls-3"
           d="m 313.82,172.51 9.3,4.1 c 1.15,-1.39 2.29,-2.81 3.39,-4.24 v 0 l -2.18,-0.96 z"
           id="path11" />
        <path
           class="cls-1"
           d="m 249.06,174.19 v 0 c 1.67,3.87 3.83,7.43 6.29,10.72 v 0 l 11.45,-7.45 10.52,-1.11 -18.94,12.32 c 0.53,0.62 1.07,1.22 1.62,1.81 v 0 l 18.56,-12.08 v 28.46 c 1.7,1.36 3.29,2.64 4.7,3.86 v -40.15 l -34.2,3.59 z"
           id="path12" />
        <path
           class="cls-1"
           d="m 339.72,149.26 c 0.61,-1.74 1.13,-3.51 1.55,-5.29 v 0 l -11.68,1.23 12.78,-8.32 c 0.04,-0.55 0.07,-1.1 0.09,-1.65 0.08,-2.24 -0.02,-4.54 -0.29,-6.83 l -28.35,18.45 -10.51,1.1 37.91,-24.67 c -0.21,-0.82 -0.45,-1.62 -0.71,-2.41 v 0 l -38.45,25.02 v -29.21 c -1.76,1.73 -3.34,3.54 -4.7,5.32 v 31.71 z"
           id="path13" />
        <path
           class="cls-1"
           d="m 283.26,126.53 c -0.43,-0.66 -0.93,-1.31 -1.51,-1.96 -0.89,-0.99 -1.95,-1.94 -3.2,-2.77 v 26.57 l -29.31,-12.91 v 0 c -0.93,2.25 -1.72,4.77 -2.33,7.58 v 0 l 19.89,8.76 -10.51,1.1 -10.29,-4.53 v 0 c -0.11,0.89 -0.21,1.8 -0.28,2.74 l 5.31,2.34 -5.49,0.58 v 0 c -0.03,0.78 -0.06,1.58 -0.07,2.4 -0.01,0.93 0.01,1.84 0.06,2.74 l 37.72,-3.96 v -28.67 z"
           id="path14" />
        <path
           class="cls-3"
           d="m 331.41,165.53 c 3.44,-5.2 6.34,-10.62 8.31,-16.27 v 0 l -42.36,4.45 V 122 c -0.26,0.34 -0.52,0.67 -0.76,1 -2.64,3.63 -4.34,7 -4.78,9.02 -1.37,6.25 -5.64,3.2 -6.4,-0.61 -0.25,-1.27 -0.95,-3.06 -2.16,-4.9 v 28.67 l -37.72,3.96 v 0 c 0.28,5.48 1.56,10.47 3.52,15.02 l 34.2,-3.59 v 40.15 c 2.82,2.43 4.96,4.62 5.96,6.63 1.25,-3.72 4.22,-7.9 8.14,-12.49 v -35.77 l 34.05,-3.58 z"
           id="path15" />
        <path
           d="m 328.12,97.88 c -13.42,0 -29.29,9.91 -38.89,26.38 -2.59,-5.95 -11.83,-12.43 -22.8,-12.43 -8.84,0 -33.67,11.05 -33.67,46.73 0,46.05 46.59,55.51 56.01,69.82 0.65,0.99 2.73,1.73 3.53,-0.62 7.51,-22.18 65.79,-47.24 65.79,-92.37 0,-25.31 -16.53,-37.51 -29.95,-37.51 z m -10.39,84.96 c -5.31,5.93 -10.74,11.45 -15.45,16.54 -0.07,0.08 -0.15,0.16 -0.22,0.24 -1.67,1.81 -3.25,3.56 -4.7,5.26 -3.92,4.59 -6.89,8.77 -8.14,12.49 -1,-2.02 -3.14,-4.2 -5.96,-6.63 -1.41,-1.22 -3,-2.51 -4.7,-3.86 -1.74,-1.39 -3.6,-2.86 -5.52,-4.42 -4.29,-3.49 -8.87,-7.44 -13.04,-11.97 v 0 c -0.55,-0.59 -1.09,-1.2 -1.62,-1.81 v 0 c -1.05,-1.21 -2.07,-2.47 -3.04,-3.77 v 0 c -2.46,-3.29 -4.62,-6.85 -6.29,-10.72 v 0 c -1.96,-4.56 -3.24,-9.54 -3.52,-15.02 v 0 c -0.05,-0.9 -0.07,-1.81 -0.06,-2.74 0,-0.82 0.03,-1.61 0.07,-2.4 v 0 c 0.04,-1 0.1,-1.97 0.18,-2.92 v 0 c 0.08,-0.94 0.17,-1.85 0.28,-2.74 v 0 c 0.23,-1.89 0.54,-3.66 0.91,-5.34 v 0 c 0.62,-2.81 1.41,-5.33 2.33,-7.58 v 0 c 1.3,-3.16 2.86,-5.79 4.56,-7.95 4.83,-6.15 10.76,-8.51 14.91,-8.51 4.15,0 7.36,1.16 9.84,2.81 1.25,0.83 2.31,1.78 3.2,2.77 0.57,0.64 1.07,1.3 1.51,1.96 1.21,1.83 1.91,3.63 2.16,4.9 0.76,3.81 5.03,6.86 6.4,0.61 0.44,-2.02 2.14,-5.39 4.78,-9.02 0.24,-0.33 0.5,-0.67 0.76,-1 1.36,-1.78 2.94,-3.59 4.7,-5.32 5.49,-5.4 12.73,-9.97 20.72,-9.97 8.53,0 13.87,5.02 16.81,11.77 0.34,0.78 0.64,1.57 0.92,2.39 v 0 c 0.27,0.79 0.5,1.59 0.71,2.41 v 0 c 0.43,1.67 0.74,3.39 0.95,5.12 v 0 c 0.27,2.28 0.36,4.59 0.29,6.83 -0.02,0.55 -0.05,1.1 -0.09,1.65 v 0 c -0.17,2.4 -0.55,4.76 -1.1,7.09 v 0 c -0.42,1.78 -0.94,3.55 -1.55,5.29 v 0 c -1.97,5.64 -4.87,11.07 -8.31,16.27 v 0 c -1.54,2.32 -3.18,4.6 -4.9,6.83 v 0 c -1.1,1.43 -2.24,2.85 -3.39,4.24 v 0 c -1.76,2.12 -3.56,4.2 -5.38,6.23 v 0 z"
           id="path16" />
      </g>
    </g>
  </g>
</svg>
