<?xml version="1.0" encoding="UTF-8" standalone="no"?>
<svg
   id="LOGO_LAYER"
   viewBox="0 0 125.34375 131.44334"
   version="1.1"
   sodipodi:docname="ESC-HEART-BOSNIAHERZEGOVINA-BLACK.svg"
   width="125.34375"
   height="131.44334"
   xmlns:inkscape="http://www.inkscape.org/namespaces/inkscape"
   xmlns:sodipodi="http://sodipodi.sourceforge.net/DTD/sodipodi-0.dtd"
   xmlns="http://www.w3.org/2000/svg"
   xmlns:svg="http://www.w3.org/2000/svg">
  <sodipodi:namedview
     id="namedview7"
     pagecolor="#ffffff"
     bordercolor="#cccccc"
     borderopacity="1"
     inkscape:showpageshadow="0"
     inkscape:pageopacity="1"
     inkscape:pagecheckerboard="0"
     inkscape:deskcolor="#d1d1d1" />
  <defs
     id="defs1">
    <style
       id="style1">.cls-1{fill:#f4c800;}.cls-2{fill:#fff;}.cls-3{fill:#290072;}</style>
  </defs>
  <g
     id="LOGO_GROUP"
     transform="translate(-232.75178,-97.88034)">
    <g
       id="SELECT_FLAG_HERE">
      <g
         id="BLACK_FLAG">
        <path
           class="cls-3"
           d="m 245.48,156.43 c -0.38,34.31 38.35,50.05 43.74,60.94 3.16,-9.4 17.23,-21.67 30.11,-36.33 l -62.86,-56.46 c -5.77,5.45 -10.81,15.38 -10.99,31.85 z m 56.18,20.28 1.83,5.46 5.92,-0.62 -4.78,3.99 1.82,5.46 -4.79,-2.97 -4.79,3.98 1.83,-5.84 -4.79,-2.98 5.92,-0.63 1.82,-5.84 z m -11.09,-9.97 1.83,5.46 5.92,-0.62 -4.78,3.99 1.82,5.46 -4.79,-2.97 -4.79,3.98 1.83,-5.84 -4.79,-2.98 5.92,-0.62 1.83,-5.84 z m -11.1,-9.97 1.83,5.46 5.92,-0.62 -4.78,3.99 1.82,5.46 -4.79,-2.97 -4.79,3.98 1.83,-5.84 -4.79,-2.98 5.92,-0.62 1.83,-5.84 z m -11.1,-9.97 1.83,5.46 5.92,-0.63 -4.78,3.99 1.82,5.46 -4.79,-2.97 -4.79,3.98 1.83,-5.84 -4.79,-2.98 5.92,-0.63 1.82,-5.84 z m -3.35,-5.14 -4.78,3.99 1.82,5.46 -4.79,-2.97 -4.79,3.98 1.83,-5.84 -4.79,-2.98 5.92,-0.63 1.82,-5.84 1.83,5.46 5.92,-0.62 z"
           id="path1" />
        <polygon
           class="cls-2"
           points="257.27,148.13 262.06,151.1 260.24,145.64 265.02,141.65 259.1,142.27 257.27,136.82 255.45,142.66 249.52,143.28 254.31,146.27 252.49,152.11 "
           id="polygon1" />
        <polygon
           class="cls-2"
           points="271.34,155.62 276.12,151.62 270.2,152.25 268.37,146.79 266.54,152.63 260.62,153.26 265.41,156.24 263.58,162.09 268.37,158.11 273.16,161.07 "
           id="polygon2" />
        <polygon
           class="cls-2"
           points="282.43,165.59 287.21,161.6 281.29,162.22 279.46,156.76 277.64,162.61 271.72,163.23 276.51,166.21 274.67,172.06 279.46,168.08 284.25,171.05 "
           id="polygon3" />
        <polygon
           class="cls-2"
           points="293.53,175.56 298.31,171.57 292.39,172.19 290.56,166.74 288.73,172.58 282.81,173.2 287.6,176.19 285.77,182.03 290.56,178.05 295.35,181.02 "
           id="polygon4" />
        <polygon
           class="cls-2"
           points="304.62,185.54 309.4,181.54 303.48,182.17 301.66,176.71 299.83,182.55 293.91,183.18 298.7,186.16 296.87,192.01 301.66,188.03 306.44,191 "
           id="polygon5" />
        <path
           class="cls-1"
           d="m 322.79,106.72 c -16.31,0 -29.59,19.06 -30.96,25.31 -1.37,6.25 -5.64,3.2 -6.4,-0.61 -0.76,-3.81 -5.42,-12.43 -16.71,-12.43 -3.41,0 -8.03,1.6 -12.24,5.58 l 62.86,56.46 c 5.32,-6.06 10.44,-12.52 14.5,-19.36 v -51.16 c -2.86,-2.36 -6.5,-3.8 -11.05,-3.8 z"
           id="path5" />
        <path
           class="cls-3"
           d="m 333.84,110.51 v 51.16 c 4.92,-8.28 8.3,-17.11 8.62,-26.44 0.31,-9.11 -2.1,-19.33 -8.62,-24.72 z"
           id="path6" />
        <path
           d="m 328.12,97.88 c -13.42,0 -29.29,9.91 -38.89,26.38 -2.59,-5.95 -11.83,-12.43 -22.8,-12.43 -8.84,0 -33.67,11.05 -33.67,46.73 0,46.05 46.59,55.51 56.01,69.82 0.65,0.99 2.73,1.73 3.53,-0.62 7.51,-22.18 65.79,-47.24 65.79,-92.37 0,-25.31 -16.53,-37.51 -29.95,-37.51 z m 14.33,37.36 c -0.32,9.33 -3.7,18.16 -8.62,26.44 -4.06,6.84 -9.18,13.31 -14.5,19.36 -12.88,14.66 -26.95,26.93 -30.11,36.33 -5.39,-10.89 -44.12,-26.63 -43.74,-60.94 0.18,-16.47 5.22,-26.4 10.99,-31.85 4.22,-3.98 8.83,-5.58 12.24,-5.58 11.28,0 15.94,8.61 16.71,12.43 0.76,3.81 5.03,6.86 6.4,0.61 1.37,-6.25 14.65,-25.31 30.96,-25.31 4.55,0 8.19,1.44 11.05,3.8 6.52,5.39 8.93,15.61 8.62,24.72 z"
           id="path7" />
      </g>
    </g>
  </g>
</svg>
