<?xml version="1.0" encoding="UTF-8" standalone="no"?>
<svg
   id="LOGO_LAYER"
   viewBox="0 0 125.34375 131.44334"
   version="1.1"
   sodipodi:docname="ESC-HEART-UKRAINE-BLACK.svg"
   width="125.34375"
   height="131.44334"
   xmlns:inkscape="http://www.inkscape.org/namespaces/inkscape"
   xmlns:sodipodi="http://sodipodi.sourceforge.net/DTD/sodipodi-0.dtd"
   xmlns="http://www.w3.org/2000/svg"
   xmlns:svg="http://www.w3.org/2000/svg">
  <sodipodi:namedview
     id="namedview3"
     pagecolor="#ffffff"
     bordercolor="#cccccc"
     borderopacity="1"
     inkscape:showpageshadow="0"
     inkscape:pageopacity="1"
     inkscape:pagecheckerboard="0"
     inkscape:deskcolor="#d1d1d1" />
  <defs
     id="defs1">
    <style
       id="style1">.cls-1{fill:#0057b7;}.cls-2{fill:gold;}</style>
  </defs>
  <g
     id="LOGO_GROUP"
     transform="translate(-232.75178,-97.88034)">
    <g
       id="SELECT_FLAG_HERE">
      <g
         id="BLACK_FLAG">
        <path
           class="cls-1"
           d="m 322.79,106.72 c -16.31,0 -29.59,19.06 -30.96,25.31 -1.37,6.25 -5.64,3.2 -6.4,-0.61 -0.76,-3.81 -5.42,-12.43 -16.71,-12.43 -8.08,0 -22.92,8.92 -23.23,37.43 -0.04,3.72 0.38,7.23 1.17,10.53 l 89.5,-9.44 c 3.64,-7.06 6.04,-14.5 6.31,-22.28 0.45,-13.11 -4.73,-28.52 -19.67,-28.52 z"
           id="path1" />
        <path
           class="cls-2"
           d="m 289.22,217.37 c 4.73,-14.06 33.86,-34.54 46.93,-59.85 l -89.5,9.44 c 6.47,27.14 37.77,40.7 42.57,50.41 z"
           id="path2" />
        <path
           d="m 328.12,97.88 c -13.42,0 -29.29,9.91 -38.89,26.38 -2.59,-5.95 -11.83,-12.43 -22.8,-12.43 -8.84,0 -33.67,11.05 -33.67,46.73 0,46.05 46.59,55.51 56.01,69.82 0.65,0.99 2.73,1.73 3.53,-0.62 7.51,-22.18 65.79,-47.24 65.79,-92.37 0,-25.31 -16.53,-37.51 -29.95,-37.51 z m 14.33,37.36 c -0.27,7.78 -2.66,15.22 -6.31,22.28 -13.07,25.32 -42.2,45.79 -46.93,59.85 -4.8,-9.71 -36.11,-23.27 -42.57,-50.41 -0.79,-3.3 -1.21,-6.81 -1.17,-10.53 0.32,-28.51 15.16,-37.43 23.23,-37.43 11.28,0 15.94,8.61 16.71,12.43 0.76,3.81 5.03,6.86 6.4,0.61 1.37,-6.25 14.65,-25.31 30.96,-25.31 14.94,0 20.12,15.41 19.67,28.52 z"
           id="path3" />
      </g>
    </g>
  </g>
</svg>
