<?xml version="1.0" encoding="UTF-8" standalone="no"?>
<svg
   id="LOGO_LAYER"
   viewBox="0 0 125.34375 131.44334"
   version="1.1"
   sodipodi:docname="ESC-HEART-AUSTRIA-BLACK.svg"
   width="125.34375"
   height="131.44334"
   xmlns:inkscape="http://www.inkscape.org/namespaces/inkscape"
   xmlns:sodipodi="http://sodipodi.sourceforge.net/DTD/sodipodi-0.dtd"
   xmlns="http://www.w3.org/2000/svg"
   xmlns:svg="http://www.w3.org/2000/svg">
  <sodipodi:namedview
     id="namedview4"
     pagecolor="#ffffff"
     bordercolor="#cccccc"
     borderopacity="1"
     inkscape:showpageshadow="0"
     inkscape:pageopacity="1"
     inkscape:pagecheckerboard="0"
     inkscape:deskcolor="#d1d1d1" />
  <defs
     id="defs1">
    <style
       id="style1">.cls-1{fill:#f7f7f7;}.cls-2{fill:#ef3340;}</style>
  </defs>
  <g
     id="LOGO_GROUP"
     transform="translate(-232.75178,-97.88034)">
    <g
       id="SELECT_FLAG_HERE">
      <g
         id="BLACK_FLAG">
        <path
           class="cls-2"
           d="m 322.79,106.72 c -16.31,0 -29.59,19.06 -30.96,25.31 -1.37,6.25 -5.64,3.2 -6.4,-0.61 -0.76,-3.81 -5.42,-12.43 -16.71,-12.43 -7.09,0 -19.38,6.87 -22.5,27.82 l 96.16,-10.11 c 0.03,-0.49 0.06,-0.98 0.08,-1.47 0.45,-13.11 -4.73,-28.52 -19.67,-28.52 z"
           id="path1" />
        <path
           class="cls-2"
           d="m 289.22,217.37 c 3.43,-10.18 19.64,-23.72 33.29,-40.03 l -67.51,7.1 c 11.74,16.01 30.58,25.58 34.22,32.93 z"
           id="path2" />
        <path
           class="cls-1"
           d="m 245.48,156.43 c -0.12,11.14 3.88,20.32 9.52,28.01 l 67.51,-7.1 c 10.13,-12.1 18.84,-25.73 19.87,-40.63 l -96.16,10.11 c -0.44,2.92 -0.7,6.12 -0.73,9.61 z"
           id="path3" />
        <path
           d="m 328.12,97.88 c -13.42,0 -29.29,9.91 -38.89,26.38 -2.59,-5.95 -11.83,-12.43 -22.8,-12.43 -8.84,0 -33.67,11.05 -33.67,46.73 0,46.05 46.59,55.51 56.01,69.82 0.65,0.99 2.73,1.73 3.53,-0.62 7.51,-22.18 65.79,-47.24 65.79,-92.37 0,-25.31 -16.53,-37.51 -29.95,-37.51 z m 14.33,37.36 c -0.02,0.49 -0.05,0.98 -0.08,1.47 -1.03,14.9 -9.74,28.53 -19.87,40.63 -13.65,16.31 -29.86,29.85 -33.29,40.03 -3.64,-7.36 -22.49,-16.93 -34.22,-32.93 -5.64,-7.69 -9.64,-16.87 -9.52,-28.01 0.04,-3.49 0.3,-6.69 0.73,-9.61 3.12,-20.95 15.41,-27.82 22.5,-27.82 11.28,0 15.94,8.61 16.71,12.43 0.76,3.81 5.03,6.86 6.4,0.61 1.37,-6.25 14.65,-25.31 30.96,-25.31 14.94,0 20.12,15.41 19.67,28.52 z"
           id="path4" />
      </g>
    </g>
  </g>
</svg>
