<?xml version="1.0" encoding="UTF-8" standalone="no"?>
<svg
   id="LOGO_LAYER"
   viewBox="0 0 125.34375 131.44334"
   version="1.1"
   sodipodi:docname="ESC-HEART-CYPRUS-BLACK.svg"
   width="125.34375"
   height="131.44334"
   xmlns:inkscape="http://www.inkscape.org/namespaces/inkscape"
   xmlns:sodipodi="http://sodipodi.sourceforge.net/DTD/sodipodi-0.dtd"
   xmlns="http://www.w3.org/2000/svg"
   xmlns:svg="http://www.w3.org/2000/svg">
  <sodipodi:namedview
     id="namedview38"
     pagecolor="#ffffff"
     bordercolor="#cccccc"
     borderopacity="1"
     inkscape:showpageshadow="0"
     inkscape:pageopacity="1"
     inkscape:pagecheckerboard="0"
     inkscape:deskcolor="#d1d1d1" />
  <defs
     id="defs1">
    <style
       id="style1">.cls-1{fill:#f9f9f9;}.cls-2{fill:#d57800;}.cls-3{fill:#4e5b31;}</style>
  </defs>
  <g
     id="LOGO_GROUP"
     transform="translate(-232.75178,-97.88034)">
    <g
       id="SELECT_FLAG_HERE">
      <g
         id="BLACK_FLAG">
        <path
           class="cls-1"
           d="m 322.79,106.72 c -16.31,0 -29.59,19.06 -30.96,25.31 -1.37,6.25 -5.64,3.2 -6.4,-0.61 -0.76,-3.81 -5.42,-12.43 -16.71,-12.43 -8.08,0 -22.92,8.92 -23.23,37.43 -0.38,34.31 38.35,50.05 43.74,60.94 6.05,-17.98 52.01,-46.46 53.24,-82.14 0.45,-13.11 -4.73,-28.52 -19.67,-28.52 z m -52.55,70.95 c -0.3,-0.02 -0.82,-0.19 -1.4,-0.46 -0.64,-0.3 -1.17,-0.64 -1.47,-0.96 -0.28,-0.29 -0.44,-0.77 -0.49,-1.43 -0.02,-0.3 -0.02,-0.6 0.01,-0.91 0.05,-0.02 0.11,-0.04 0.17,-0.04 0.22,-0.02 0.46,0.06 0.78,0.24 0.29,0.18 0.57,0.38 0.82,0.61 0.32,0.29 0.63,0.59 0.91,0.91 v 0 c 0.03,0.06 0.32,0.55 0.55,1.03 0.11,0.22 0.2,0.46 0.26,0.7 0.02,0.07 0.02,0.15 0,0.23 0,0.02 -0.03,0.05 -0.05,0.06 -0.02,0 -0.04,0.02 -0.06,0.02 v 0 c 0,0 -0.02,0 -0.03,0 z m -1.82,1.91 c -0.54,-0.04 -0.85,-0.47 -1.01,-0.82 -0.11,-0.24 -0.19,-0.5 -0.23,-0.77 v 0 c 1.68,-0.13 2.48,0.28 2.85,0.64 0.23,0.21 0.37,0.51 0.41,0.83 v 0 c 0,0 -0.24,0.05 -0.6,0.09 v 0 c -0.47,0.05 -0.94,0.06 -1.41,0.03 z m 3.16,-1.96 v 0 c 0,0 0,0 0,0 v 0 c 0,0 -0.19,-0.22 -0.38,-0.5 -0.2,-0.29 -0.38,-0.59 -0.38,-0.86 0,-0.27 -0.06,-0.79 -0.1,-1.08 -0.05,-0.37 -0.09,-0.69 -0.09,-0.72 v 0 c 0,0 1.05,0.28 1.05,1.23 0,0.95 -0.09,1.91 -0.09,1.92 z m 0.69,0.98 c 0.66,0.43 1.27,1.25 1.82,2.42 0,0 0,0 0,0 v 0 c 0,0 0,0 0,0 -0.53,-0.09 -1.04,-0.26 -1.51,-0.5 -0.7,-0.36 -1.56,-1.03 -1.67,-2.21 v 0 c 0.05,-0.02 0.11,-0.03 0.16,-0.04 0.01,0 0.03,0 0.04,0 0.21,-0.02 0.64,0 1.16,0.33 z m -0.69,1.98 c 0,0 0.13,0.2 0.05,0.34 -0.07,0.11 -0.22,0.18 -0.45,0.2 v 0 c -0.61,0.06 -0.82,-0.25 -0.88,-0.38 -0.06,-0.14 -0.09,-0.3 -0.07,-0.46 v 0 c 0.1,-0.04 0.2,-0.06 0.3,-0.07 h 0.02 c 0.4,-0.05 0.78,0.09 1.02,0.38 z m 3.12,1.93 v 0 c -0.5,0.18 -1.02,0.29 -1.53,0.34 v 0 c -0.51,0.06 -1.02,0.05 -1.51,-0.02 -0.84,-0.12 -1.2,-0.4 -1.35,-0.62 -0.07,-0.09 -0.11,-0.19 -0.13,-0.31 0,-0.04 0,-0.09 0,-0.14 v 0 c 0.43,-0.15 0.88,-0.26 1.33,-0.31 0.03,0 0.06,0 0.09,-0.01 0.36,-0.04 0.73,-0.04 1.08,0 0.81,0.08 1.53,0.46 2.03,1.07 v 0 z m -2.1,-5.13 c 0.11,-0.07 0.24,-0.11 0.37,-0.13 0.01,0 0.03,0 0.04,0 0.02,0 0.04,0 0.06,0 0.31,-0.02 0.77,0.05 1.29,0.56 0.59,0.58 1.12,1.57 1.57,2.96 v 0 c 0,0 0,0 0,0 v 0 c -0.43,-0.15 -0.84,-0.37 -1.2,-0.64 -0.93,-0.7 -1.66,-1.64 -2.12,-2.73 z m 6.63,5.8 v 0 c 0,0 0,0 0,0 v 0 c 0,0 0,0 0,0 -1.99,0.14 -3.03,-0.32 -3.54,-0.73 -0.22,-0.17 -0.4,-0.39 -0.54,-0.63 -0.05,-0.09 -0.09,-0.19 -0.11,-0.3 v 0 c 0.16,-0.07 0.33,-0.11 0.49,-0.13 h 0.05 c 0.67,-0.08 2.04,0.06 3.65,1.78 z m -2.97,-3.07 c 0.06,-0.03 0.13,-0.06 0.2,-0.07 h 0.01 c 0.32,-0.03 0.57,0.21 0.68,0.48 0.06,0.11 0.07,0.25 0.03,0.38 -0.05,0.12 -0.17,0.2 -0.29,0.21 v 0 c -0.15,0.02 -0.3,-0.03 -0.4,-0.12 -0.09,-0.1 -0.15,-0.22 -0.18,-0.35 -0.04,-0.17 -0.06,-0.35 -0.04,-0.53 z m 1.48,0.46 c 0.16,-0.05 0.33,-0.09 0.49,-0.11 0.02,0 0.04,0 0.07,0 0.02,0 0.05,0 0.07,0 0.81,-0.07 2.27,0.14 3.02,2.31 v 0 c 0,0 0,0 0,0 -1.6,-0.08 -2.51,-0.67 -2.99,-1.15 -0.3,-0.29 -0.52,-0.64 -0.66,-1.04 z m -2.63,3.22 c -0.07,-0.09 -0.12,-0.19 -0.14,-0.3 -0.03,-0.15 -0.04,-0.3 -0.04,-0.46 v 0 c 0,0 0.1,-0.05 0.15,-0.05 0.12,0 0.24,0.03 0.33,0.11 0.1,0.08 0.17,0.19 0.21,0.31 0.04,0.1 0.05,0.22 0.02,0.33 -0.04,0.1 -0.13,0.17 -0.23,0.18 v 0 c -0.12,0.01 -0.24,-0.03 -0.31,-0.11 z m 4.73,1.04 c -0.21,0.18 -0.59,0.31 -1.13,0.37 h -0.08 c 0,0 0,0 0,0 -0.99,0.1 -2.35,-0.06 -3.2,-0.81 v 0 c 0,0 0,0 0,0 0.64,-0.22 1.3,-0.38 1.97,-0.47 0.06,0 0.12,-0.02 0.19,-0.02 0.93,-0.1 1.64,0 2.11,0.31 0.13,0.07 0.23,0.18 0.28,0.32 0.01,0.11 -0.04,0.22 -0.13,0.29 z m 1.65,-1.21 c 0,0 0.1,-0.01 0.15,-0.02 0.73,-0.08 1.83,0.04 2.99,1.05 v 0 c 0,0 0,0 0,0 -0.48,0.12 -0.97,0.2 -1.46,0.26 v 0 c -0.94,0.1 -1.65,0.01 -2.12,-0.26 -0.2,-0.11 -0.36,-0.27 -0.47,-0.47 -0.04,-0.08 -0.06,-0.16 -0.08,-0.25 0.31,-0.16 0.65,-0.27 0.98,-0.31 z m 0.71,-1.66 c 0.06,-0.03 0.13,-0.06 0.2,-0.07 h 0.01 c 0.32,-0.03 0.57,0.21 0.68,0.48 0.06,0.11 0.07,0.25 0.03,0.38 -0.05,0.12 -0.17,0.2 -0.3,0.2 v 0 c -0.15,0.02 -0.3,-0.03 -0.4,-0.13 -0.09,-0.09 -0.15,-0.21 -0.18,-0.35 -0.04,-0.17 -0.06,-0.35 -0.04,-0.53 z m 1.62,0.34 v 0 c 0,0 0,0 0,0 0.11,-0.04 0.22,-0.06 0.34,-0.07 0.58,-0.06 2.08,0.08 3.52,2.65 v 0 c 0,0 0,0 0,0 -2.2,-0.08 -3.13,-0.78 -3.52,-1.35 -0.25,-0.34 -0.37,-0.78 -0.33,-1.23 z m -2.39,3.82 c -0.05,0.12 -0.17,0.2 -0.3,0.2 v 0 c -0.15,0.02 -0.3,-0.03 -0.4,-0.13 -0.09,-0.09 -0.15,-0.21 -0.18,-0.35 -0.04,-0.17 -0.06,-0.35 -0.04,-0.53 0.06,-0.03 0.13,-0.06 0.2,-0.07 h 0.01 c 0.32,-0.03 0.57,0.21 0.68,0.48 0.06,0.11 0.07,0.25 0.03,0.38 z m 3.42,0.64 c -0.89,0.09 -1.76,-0.07 -2.52,-0.44 v 0 c 0,0 0,0 0,0 0.09,-0.16 0.22,-0.31 0.36,-0.43 0.25,-0.21 0.69,-0.47 1.41,-0.55 h 0.01 c 0.85,-0.09 1.89,0.09 3.09,0.53 -0.71,0.5 -1.52,0.8 -2.35,0.89 z m 7.82,0.14 c 0,0 -0.26,0.25 -0.52,0.51 -0.12,0.12 -0.26,0.27 -0.36,0.39 -0.04,0.05 -0.08,0.1 -0.12,0.16 -0.02,0.04 -0.04,0.08 -0.06,0.12 v 0 c 0,0 -0.03,-0.01 -0.04,-0.03 h -0.02 c -0.07,-0.07 -0.14,-0.13 -0.2,-0.2 -0.17,-0.17 -0.39,-0.43 -0.59,-0.66 -0.39,-0.45 -0.72,-0.84 -0.78,-0.91 l -0.02,-0.03 -0.02,0.03 c -0.06,0.09 -0.39,0.54 -0.78,1.08 -0.2,0.27 -0.43,0.57 -0.59,0.78 -0.06,0.08 -0.13,0.16 -0.2,0.23 l -0.02,0.02 c 0,0 -0.03,0.03 -0.04,0.04 v 0 c 0,0 -0.04,-0.07 -0.06,-0.11 -0.04,-0.05 -0.08,-0.09 -0.12,-0.13 -0.1,-0.1 -0.25,-0.22 -0.36,-0.31 -0.26,-0.21 -0.52,-0.4 -0.52,-0.4 v 0 c 0,0 1.77,-1.49 1.77,-1.49 l -0.11,-0.02 -0.72,-0.26 0.38,-0.47 1.32,0.43 h 0.08 c 0,0 0.08,-0.02 0.08,-0.02 l 1.32,-0.7 0.38,0.39 -0.72,0.41 -0.11,0.05 1.77,1.12 v 0 z m -0.45,-2.5 v 0 c 1.44,-2.88 2.94,-3.33 3.52,-3.39 0.11,-0.01 0.23,-0.01 0.34,0 v 0 c 0,0 0,0 0,0 0.03,0.44 -0.08,0.9 -0.33,1.3 -0.39,0.65 -1.33,1.55 -3.52,2.09 v 0 z m 5.35,0.32 v 0 c -0.76,0.53 -1.63,0.87 -2.52,0.97 -0.83,0.09 -1.64,-0.05 -2.35,-0.39 1.2,-0.69 2.24,-1.09 3.09,-1.18 h 0.01 c 0.72,-0.07 1.16,0.09 1.41,0.25 0.15,0.09 0.27,0.21 0.36,0.35 z m 1.78,-0.84 c -0.03,0.14 -0.09,0.27 -0.18,0.38 -0.1,0.12 -0.25,0.2 -0.4,0.21 v 0 c -0.12,0.02 -0.24,-0.04 -0.3,-0.14 -0.04,-0.13 -0.02,-0.26 0.03,-0.39 0.11,-0.28 0.36,-0.59 0.68,-0.62 h 0.01 c 0.07,0 0.14,0 0.2,0.02 0.01,0.18 0,0.36 -0.04,0.54 z m -0.03,-1.66 c -0.11,0.22 -0.27,0.42 -0.47,0.57 -0.47,0.37 -1.19,0.61 -2.12,0.7 v 0 c -0.49,0.05 -0.98,0.06 -1.46,0.05 v 0 c 0,0 0,0 0,0 1.16,-1.25 2.27,-1.6 2.99,-1.68 0.05,0 0.1,0 0.15,-0.01 0.34,-0.02 0.67,0.01 0.98,0.11 -0.01,0.09 -0.04,0.18 -0.08,0.26 z m -2.51,-1.28 c 0.11,-0.28 0.36,-0.59 0.68,-0.62 h 0.01 c 0.07,0 0.14,0 0.2,0.02 0.01,0.18 0,0.36 -0.04,0.54 -0.03,0.14 -0.09,0.27 -0.18,0.38 -0.1,0.12 -0.25,0.2 -0.4,0.21 v 0 c -0.12,0.02 -0.24,-0.04 -0.3,-0.14 -0.04,-0.13 -0.02,-0.26 0.03,-0.39 z m 7.53,-2.55 h 0.05 c 0.17,-0.02 0.33,-0.01 0.49,0.02 v 0 c -0.03,0.11 -0.07,0.22 -0.11,0.32 -0.13,0.28 -0.32,0.53 -0.54,0.75 -0.52,0.52 -1.55,1.19 -3.54,1.47 v 0 c 0,0 0,0 0,0 0,0 0,0 0,0 v 0 c 1.61,-2.06 2.98,-2.49 3.65,-2.56 z m -1.57,-0.54 c 0.11,-0.28 0.36,-0.59 0.68,-0.62 h 0.01 c 0.07,0 0.14,0 0.2,0.02 0.01,0.18 0,0.36 -0.04,0.53 -0.03,0.14 -0.09,0.27 -0.18,0.39 -0.1,0.12 -0.25,0.2 -0.4,0.21 v 0 c -0.12,0.02 -0.24,-0.04 -0.29,-0.14 -0.04,-0.12 -0.03,-0.26 0.03,-0.39 z m -1.26,1.35 c -0.48,0.59 -1.39,1.37 -2.99,1.78 v 0 c 0,0 0,0 0,0 0.75,-2.33 2.21,-2.85 3.02,-2.95 0.02,0 0.05,0 0.07,0 0.02,0 0.04,0 0.07,0 0.17,-0.02 0.33,-0.01 0.49,0 -0.14,0.43 -0.36,0.83 -0.66,1.18 z m 2.96,2.17 c -0.85,0.94 -2.21,1.38 -3.2,1.49 v 0 c 0,0 -0.08,0 -0.08,0 -0.54,0.05 -0.92,0 -1.13,-0.14 -0.09,-0.05 -0.14,-0.15 -0.13,-0.26 0.05,-0.15 0.14,-0.29 0.28,-0.38 0.47,-0.4 1.18,-0.66 2.11,-0.76 0.06,0 0.12,-0.01 0.19,-0.02 0.66,-0.05 1.32,-0.03 1.97,0.05 v 0 c 0,0 0,0 0,0 z m 0.5,-1.48 c 0,0.16 0,0.31 -0.04,0.47 -0.02,0.12 -0.07,0.23 -0.14,0.33 -0.08,0.1 -0.19,0.17 -0.31,0.18 v 0 c -0.1,0.01 -0.19,-0.04 -0.23,-0.13 -0.03,-0.11 -0.02,-0.23 0.02,-0.34 0.04,-0.13 0.12,-0.25 0.21,-0.36 0.09,-0.1 0.2,-0.16 0.33,-0.18 0.05,0 0.11,0 0.15,0.02 v 0 z m -0.98,-2.06 v 0 c 0,0 0,0 0,0 v 0 c 0.45,-1.48 0.98,-2.59 1.57,-3.29 0.52,-0.61 0.98,-0.79 1.29,-0.83 0.02,0 0.04,0 0.06,0 0.01,0 0.03,0 0.04,0 0.13,0 0.25,0.01 0.37,0.05 -0.46,1.19 -1.19,2.28 -2.12,3.18 -0.36,0.35 -0.76,0.65 -1.2,0.9 z m 4.73,-0.64 c -0.23,0.02 -0.38,-0.01 -0.45,-0.11 -0.08,-0.12 0.02,-0.3 0.05,-0.35 0.24,-0.34 0.62,-0.56 1.02,-0.59 h 0.02 c 0.1,-0.01 0.2,0 0.3,0 v 0 c 0.02,0.16 0,0.32 -0.07,0.48 -0.06,0.15 -0.27,0.5 -0.88,0.57 v 0 z m 0.46,-6.03 c -0.04,0.3 -0.1,0.85 -0.1,1.1 0,0.25 -0.18,0.61 -0.38,0.94 -0.19,0.31 -0.38,0.57 -0.38,0.58 v 0 c 0,0 0,0 0,0 v 0 c 0,0 -0.09,-0.96 -0.09,-1.9 0,-0.94 1.01,-1.43 1.05,-1.45 v 0 c 0,0 -0.05,0.36 -0.09,0.74 z m -0.4,3.16 c 0,0 0.03,0 0.04,0 0.05,0 0.11,0 0.16,0 v 0 c -0.1,1.2 -0.96,2.05 -1.67,2.56 -0.47,0.34 -0.98,0.61 -1.51,0.82 0,0 0,0 0,0 v 0 c 0,0 0,0 0,0 0.55,-1.29 1.16,-2.23 1.82,-2.8 0.52,-0.45 0.95,-0.55 1.16,-0.58 z m 0.95,3.44 c -0.02,0.12 -0.06,0.23 -0.13,0.33 -0.15,0.25 -0.51,0.61 -1.35,0.9 -0.5,0.17 -1,0.29 -1.51,0.34 v 0 c -0.52,0.06 -1.03,0.05 -1.53,-0.02 v 0 c 0,0 0,0 0,0 0.5,-0.71 1.22,-1.24 2.03,-1.5 0.36,-0.11 0.72,-0.18 1.08,-0.22 0.03,0 0.06,0 0.09,0 0.45,-0.04 0.89,-0.03 1.33,0.03 v 0 c 0,0 0,0.09 0,0.14 z m 2.76,-3.72 c -0.16,0.39 -0.47,0.88 -1.01,1.04 -0.47,0.13 -0.94,0.22 -1.41,0.27 v 0 c -0.36,0.04 -0.6,0.04 -0.6,0.04 v 0 c 0.03,-0.33 0.18,-0.66 0.41,-0.92 0.37,-0.44 1.16,-1.02 2.85,-1.24 v 0 c -0.04,0.28 -0.12,0.55 -0.23,0.82 z m 0.04,-2.52 c -0.31,0.38 -0.83,0.83 -1.47,1.27 -0.58,0.39 -1.1,0.68 -1.4,0.76 -0.01,0 -0.02,0 -0.03,0 v 0 c 0,0 -0.04,0 -0.06,0 -0.02,-0.01 -0.04,-0.03 -0.05,-0.05 -0.02,-0.07 -0.02,-0.15 0,-0.23 0.06,-0.26 0.14,-0.51 0.26,-0.75 0.22,-0.53 0.51,-1.08 0.55,-1.14 v 0 c 0.29,-0.39 0.59,-0.76 0.91,-1.11 0.25,-0.28 0.53,-0.54 0.82,-0.78 0.32,-0.26 0.56,-0.38 0.78,-0.41 0.06,0 0.11,0 0.17,0 0.03,0.3 0.03,0.6 0.01,0.91 -0.05,0.67 -0.21,1.19 -0.49,1.54 z m 12.36,-37.76 -0.06,0.09 -0.06,0.09 -0.07,0.36 -0.12,0.16 -0.02,0.54 v 0.04 l -0.12,0.22 -0.14,0.08 -0.1,0.03 -0.57,0.15 -0.15,0.24 h -0.28 c 0,0 -1.95,1.17 -1.95,1.17 l -0.06,0.03 -0.5,0.41 -0.04,0.08 -0.13,0.29 -0.14,0.05 -0.17,0.56 -0.13,0.18 -0.61,0.55 -0.71,0.37 -0.61,0.47 -0.35,0.39 -0.66,0.74 -2.55,1.4 -0.29,0.2 -0.56,0.39 -1.14,0.96 -0.51,0.52 -0.67,0.84 -0.12,0.23 -0.06,0.21 -0.19,0.65 -0.09,0.15 -0.17,0.13 -0.37,0.15 -0.22,0.05 -0.1,0.02 -0.49,0.06 -0.52,-0.11 -0.3,0.07 -0.31,0.08 -0.37,0.26 -0.04,0.03 -0.21,0.22 -0.22,0.34 -0.25,0.52 -0.23,0.21 -0.37,0.79 -0.03,0.14 -0.22,1.14 0.02,0.24 v 0.03 c 0,0 0.27,0.74 0.27,0.74 l -0.06,0.14 -0.14,0.05 -0.13,0.14 v 0 c 0,0 0.01,0.02 0.01,0.02 l 0.03,0.02 0.26,-0.03 0.12,0.06 0.09,0.11 0.52,0.66 v 0.02 c 0,0 0.27,0.25 0.27,0.25 l 0.31,0.21 0.18,0.37 0.06,0.13 0.04,0.08 0.3,0.36 0.42,0.38 0.1,0.07 v 0 c 0,0 0.27,0.19 0.27,0.19 l 0.78,0.54 0.6,0.85 0.12,0.17 0.02,0.03 0.06,0.06 0.34,0.39 -0.22,0.26 0.23,0.37 0.26,0.03 0.02,0.03 0.05,0.07 -0.13,0.19 h -0.11 c 0,0 -0.08,-0.11 -0.08,-0.11 l -0.02,-0.02 h -0.02 c 0,0 -0.13,0.06 -0.13,0.06 l -0.08,0.03 h -0.04 c 0,0 -0.02,0 -0.02,0 h -0.04 c 0,0 -0.72,-0.35 -0.72,-0.35 h -0.2 c 0,0 -0.35,-0.21 -0.35,-0.21 l -0.32,0.07 -0.17,0.04 -0.22,-0.07 -0.28,0.08 -0.4,-0.1 -0.16,0.02 -0.18,0.22 -0.04,0.03 -0.07,0.05 -0.66,0.11 -0.56,0.28 -0.06,0.1 v 0 c 0,0 0,0 0,0 v 0 c 0,0 0,0 0,0 l -0.16,0.26 v 0 c 0,0 -0.29,0.2 -0.29,0.2 l -0.21,0.2 -0.28,0.18 -0.2,0.05 -0.07,-0.02 -0.24,-0.08 -0.07,-0.06 -0.37,-0.32 -0.35,-0.24 -0.3,-0.07 h -0.06 c 0,0 -0.9,-0.07 -0.9,-0.07 l -0.36,0.04 c 0,0 -0.37,0.03 -0.39,0.05 l -1.07,0.13 -0.08,0.02 h -0.05 c 0,0 0,0.01 0,0.01 l -0.31,0.08 -0.22,0.12 -0.43,0.34 -0.27,0.32 -0.3,0.75 -0.06,0.57 0.05,0.55 -0.08,0.32 v 0.48 c 0,0 -0.49,0.76 -0.49,0.76 l -0.18,0.13 -0.17,0.64 -0.1,0.07 h -0.77 c 0,0 -0.65,0.09 -0.65,0.09 l -0.2,0.14 -0.14,0.22 -0.17,0.27 -0.24,0.12 -0.21,0.26 -0.35,0.08 -0.16,0.29 -0.81,0.14 -0.31,0.11 -0.28,0.18 -0.33,0.29 -0.51,0.33 -0.05,0.03 -0.13,0.08 -0.5,0.2 -0.52,0.43 -0.1,0.05 -0.27,0.02 -0.43,0.28 -0.21,0.02 -0.3,0.2 -0.18,-0.03 -0.45,-0.06 -0.16,0.04 -0.35,0.19 -0.04,0.04 -0.06,0.06 -0.11,0.31 v 0 c 0,0 -0.12,0.05 -0.12,0.05 l -3.16,0.11 -0.47,0.13 h -0.02 c 0,0 -1.05,0.47 -1.05,0.47 h -0.05 c 0,0 -0.01,0.04 -0.01,0.04 l -0.41,0.22 -0.4,0.31 -0.51,0.51 -0.47,0.35 -0.18,0.26 -0.02,0.07 v 0 c 0,0 -0.06,0.26 -0.06,0.26 l -0.09,0.12 -0.04,0.32 0.02,0.24 0.03,0.35 0.1,0.27 0.13,0.18 0.32,0.34 0.15,0.15 0.02,0.12 -0.05,0.11 -0.07,0.05 h -0.19 c 0,0 -0.38,-0.13 -0.38,-0.13 l -0.13,-0.05 -0.32,0.04 -0.29,-0.09 -0.18,0.11 -0.27,0.16 h -0.43 c 0,0 -0.15,0.04 -0.15,0.04 l -0.12,0.08 -0.06,0.04 -0.03,-0.08 v -0.03 c 0,0 0.04,-0.08 0.04,-0.08 l 0.17,-0.15 v -0.2 c 0,0 -0.11,-0.29 -0.11,-0.29 l -0.16,-0.2 -0.21,-0.59 -0.02,-0.06 -0.29,-0.41 -0.32,-0.3 0.1,-0.18 -0.24,0.02 h -0.03 c 0,0 -0.22,-0.22 -0.22,-0.22 l -0.19,-0.12 -0.73,-0.09 -0.33,0.15 -0.38,-0.07 -0.56,0.3 -0.22,-0.05 -0.75,0.17 -0.22,0.13 -0.06,0.1 -0.31,0.23 -0.2,0.05 -0.2,-0.03 -0.25,0.04 -0.25,0.24 -0.18,0.02 -0.24,-0.06 -0.34,-0.09 -0.36,-0.05 -0.67,-0.19 v 0 c 0,0 0,0 0,0 v 0 c 0,0 -0.13,-0.03 -0.13,-0.03 l -0.17,-0.02 -0.31,-0.04 -0.36,-0.12 -0.18,-0.13 -0.14,-0.1 -0.23,-0.12 -0.54,-0.28 -0.27,-0.04 -0.61,-0.12 -0.28,0.03 -0.22,-0.12 -0.11,-0.06 -0.26,0.05 h -0.03 c 0,0 -0.23,0.19 -0.23,0.19 l -0.15,-0.14 -0.12,-0.05 v 0 c 0,0 -0.17,-0.07 -0.17,-0.07 l -0.75,-0.6 -0.15,-0.06 -0.24,0.06 -0.25,-0.35 -0.21,-0.15 h -0.13 c 0,0 -0.2,0.05 -0.2,0.05 l -0.18,-0.15 0.08,-0.52 -0.05,-0.19 -0.14,-0.23 v -0.05 c 0,0 0,-0.33 0,-0.33 l -0.23,-0.59 -0.03,-0.49 -0.12,-0.15 -0.16,-0.06 -0.1,-0.04 -0.15,-0.14 -0.16,0.02 -0.1,-0.07 -0.18,0.06 -0.16,-0.12 -0.21,-0.5 -0.39,-0.31 -0.23,-0.18 -0.03,-0.16 0.05,-0.06 0.19,-0.23 0.12,-0.4 -0.11,-0.27 -0.5,-0.57 0.03,-0.19 0.17,-0.15 -0.07,-0.21 0.13,-0.33 -0.19,-0.55 v 0 c 0,0 -0.09,-0.15 -0.09,-0.15 l -0.11,-0.18 -0.03,-0.04 -0.17,-0.4 -0.56,-0.72 -0.04,-0.33 v -0.05 c 0,0 0.08,-0.82 0.08,-0.82 l 0.03,-0.15 0.04,-0.16 0.07,-0.12 0.17,-0.02 0.23,0.12 h 0.02 c 0,0 0.1,0.06 0.1,0.06 l 0.73,0.65 0.51,0.35 0.46,0.24 0.42,0.08 h 0.47 c 0,0 0.25,-0.01 0.25,-0.01 l 0.51,-0.16 0.59,-0.28 0.62,-0.55 0.27,-0.24 0.31,-0.37 0.09,-0.11 0.29,-0.46 0.47,-1.11 0.18,-0.28 0.25,-0.25 0.25,-0.25 0.08,-0.18 0.02,-0.29 0.09,-0.07 0.16,0.02 0.09,0.05 0.18,0.09 0.1,-0.03 0.08,-0.02 h 0.05 c 0,0 0,-0.01 0,-0.01 l 0.07,-0.04 0.15,-0.08 0.17,-0.09 0.13,-0.07 h 0.12 c 0,0 0.15,-0.02 0.15,-0.02 l 0.12,-0.08 0.02,-0.04 0.18,-0.29 0.16,-0.03 0.22,0.06 0.17,-0.1 0.34,-0.19 0.32,-0.02 0.24,0.03 0.45,0.16 0.48,-0.04 0.1,0.02 0.14,0.03 v 0 c 0,0 0.38,0.07 0.38,0.07 h 0.27 c 0,0 0.13,0.14 0.13,0.14 l 0.5,0.24 0.46,0.05 0.41,0.25 0.31,0.05 0.32,0.14 h 0.26 c 0,0 0.41,-0.09 0.41,-0.09 l 0.16,-0.08 0.51,-0.34 0.69,-0.54 0.3,-0.24 0.12,-0.18 0.45,-1.42 0.12,-0.53 0.13,-0.57 0.04,-0.17 0.11,-1.09 v -0.68 c 0,0 -0.07,-0.66 -0.07,-0.66 l -0.09,-0.23 -0.22,-0.22 -0.06,-0.17 v -0.2 c 0,0 0.02,-0.33 0.02,-0.33 l -0.04,-0.35 -0.11,-0.34 0.03,-0.11 h 0.23 c 0,0 0.6,0.24 0.6,0.24 l 0.89,0.46 0.69,0.3 0.12,-0.02 0.38,-0.08 0.17,0.02 0.46,0.17 0.44,0.07 0.38,-0.05 0.28,-0.1 0.32,-0.15 0.22,-0.18 0.17,-0.03 1.08,0.2 0.32,0.06 1.19,-0.28 0.21,0.16 0.35,0.02 0.15,0.1 0.16,0.02 0.28,-0.13 h 0.12 c 0,0 0.34,0.08 0.34,0.08 l 0.14,-0.03 0.19,-0.13 0.42,0.08 0.19,0.04 h 0.79 c 0,0 0.54,0.13 0.54,0.13 l 0.32,-0.11 h 0.68 c 0,0 1.49,-0.22 1.49,-0.22 h 0.04 c 0,0 0.18,0.04 0.18,0.04 l 0.51,-0.12 0.26,-0.1 0.41,-0.04 0.55,-0.24 1.1,-0.22 0.99,-0.43 h 0.03 c 0,0 0.17,0.02 0.17,0.02 l 0.27,-0.03 0.48,-0.13 0.15,-0.06 0.21,-0.09 v 0 c 0,0 0,0.26 0,0.26 l 0.6,-0.25 0.51,-0.32 0.33,-0.33 0.99,-0.58 0.59,-0.34 0.31,-0.1 0.49,-0.06 h 0.71 c 0,0 0.27,-0.12 0.27,-0.12 h 0.46 c 0,0 0.99,-0.4 0.99,-0.4 l 0.14,-0.06 0.04,-0.02 0.7,-0.29 0.79,-0.38 0.45,-0.12 0.31,-0.13 1.52,-0.92 0.96,-0.58 0.37,-0.34 0.52,-0.21 0.51,-0.31 0.6,-0.69 0.31,-0.44 0.04,-0.05 0.28,-0.2 0.15,-0.21 v -0.03 c 0,0 0.05,-0.25 0.05,-0.25 l 0.14,-0.04 0.19,0.07 0.25,0.09 0.2,-0.03 0.15,-0.11 0.09,0.13 0.22,-0.11 h 0.19 c 0,0 0.04,-0.01 0.04,-0.01 l 0.16,-0.11 0.1,-0.07 0.05,-0.05 0.21,-0.22 0.49,-0.1 0.26,-0.17 h 0.06 c 0,0 0.26,-0.03 0.26,-0.03 l 0.2,-0.12 0.22,-0.21 0.28,-0.13 0.1,-0.12 0.05,-0.27 0.1,-0.03 0.14,0.04 0.13,-0.04 0.22,-0.25 0.2,-0.43 0.13,-0.1 0.42,-0.08 0.22,-0.24 0.15,-0.06 0.35,-0.02 h 0.09 c 0,0 0.27,-0.16 0.27,-0.16 l 0.52,-0.52 0.24,-0.12 0.53,0.09 0.4,-0.25 0.48,-0.1 0.14,-0.11 0.11,-0.19 0.04,-0.25 0.12,-0.07 0.21,0.07 0.22,-0.08 0.03,-0.02 0.6,-0.47 0.34,-0.2 0.36,-0.02 0.12,-0.06 0.3,-0.15 v 0 c 0,0 0,0 0,0 v 0 c 0,0 0.03,0.06 0.03,0.06 l -0.16,0.13 z"
           id="path1" />
        <path
           class="cls-3"
           d="m 270.53,180.2 c -0.1,0.01 -0.2,0.04 -0.3,0.07 v 0 c -0.02,0.16 0,0.32 0.07,0.46 0.06,0.14 0.27,0.45 0.88,0.38 v 0 c 0.23,-0.02 0.38,-0.09 0.45,-0.2 0.08,-0.14 -0.02,-0.29 -0.05,-0.34 -0.24,-0.29 -0.62,-0.43 -1.02,-0.38 h -0.02 z"
           id="path2" />
        <path
           class="cls-3"
           d="m 271.11,178.27 c 0,0 -0.03,0 -0.04,0 -0.05,0 -0.11,0.02 -0.16,0.04 v 0 c 0.1,1.18 0.96,1.85 1.67,2.21 0.47,0.24 0.98,0.41 1.51,0.5 -0.55,-1.17 -1.16,-1.99 -1.82,-2.42 -0.52,-0.34 -0.95,-0.35 -1.16,-0.33 z"
           id="path3" />
        <polygon
           class="cls-3"
           points=""
           id="polygon3" />
        <path
           class="cls-3"
           d="m 275.91,180.76 v 0 c 0,0 0,0 0,0 -0.45,-1.39 -0.98,-2.38 -1.57,-2.96 -0.52,-0.5 -0.98,-0.58 -1.29,-0.56 -0.02,0 -0.04,0 -0.06,0 -0.01,0 -0.03,0 -0.04,0 -0.13,0.02 -0.25,0.06 -0.37,0.13 0.46,1.09 1.19,2.03 2.12,2.73 0.36,0.28 0.76,0.49 1.2,0.64 v 0 z"
           id="path4" />
        <path
           class="cls-3"
           d="m 271.58,181.45 c 0,0 -0.06,0 -0.09,0.01 -0.45,0.05 -0.89,0.15 -1.33,0.31 v 0 c 0,0 0,0.09 0,0.14 0.02,0.11 0.06,0.22 0.13,0.31 0.15,0.22 0.51,0.5 1.35,0.62 0.5,0.07 1,0.08 1.51,0.02 v 0 c 0.52,-0.05 1.03,-0.17 1.53,-0.34 v 0 c -0.5,-0.61 -1.22,-0.99 -2.03,-1.07 -0.36,-0.03 -0.72,-0.03 -1.08,0 z"
           id="path5" />
        <polygon
           class="cls-3"
           points=""
           id="polygon5" />
        <path
           class="cls-3"
           d="m 270.62,174.47 v 0 c 0,0 0.05,0.35 0.09,0.72 0.04,0.29 0.1,0.83 0.1,1.08 0,0.25 0.18,0.57 0.38,0.86 0.19,0.27 0.38,0.49 0.38,0.49 v 0 c 0,0 0,0 0,0 v 0 c 0,0 0.09,-0.98 0.09,-1.92 0,-0.94 -1.01,-1.22 -1.05,-1.23 z"
           id="path6" />
        <path
           class="cls-3"
           d="m 270.32,177.65 c 0,0 0.04,-0.04 0.05,-0.06 0.02,-0.08 0.02,-0.15 0,-0.23 -0.06,-0.25 -0.14,-0.48 -0.26,-0.7 -0.22,-0.48 -0.51,-0.97 -0.55,-1.03 v 0 c -0.29,-0.33 -0.59,-0.63 -0.91,-0.92 -0.25,-0.23 -0.53,-0.43 -0.82,-0.61 -0.32,-0.19 -0.56,-0.26 -0.78,-0.24 -0.06,0 -0.11,0.02 -0.17,0.04 -0.03,0.3 -0.03,0.61 -0.01,0.91 0.05,0.66 0.21,1.14 0.49,1.43 0.31,0.32 0.83,0.66 1.47,0.96 0.58,0.27 1.1,0.44 1.4,0.46 0.01,0 0.02,0 0.03,0 v 0 c 0,0 0.04,0 0.06,-0.02 z"
           id="path7" />
        <path
           class="cls-3"
           d="m 270.42,179.47 v 0 c -0.03,-0.33 -0.18,-0.62 -0.41,-0.83 -0.37,-0.36 -1.16,-0.77 -2.85,-0.65 v 0 c 0.04,0.27 0.12,0.53 0.23,0.77 0.16,0.35 0.47,0.78 1.01,0.82 0.47,0.03 0.94,0.02 1.41,-0.03 v 0 c 0.36,-0.04 0.6,-0.09 0.6,-0.09 z"
           id="path8" />
        <path
           class="cls-3"
           d="m 280.73,185.25 h -0.01 c -0.07,0.01 -0.14,0.03 -0.2,0.07 -0.01,0.18 0,0.36 0.04,0.53 0.03,0.13 0.09,0.25 0.18,0.35 0.1,0.1 0.25,0.15 0.4,0.13 v 0 c 0.12,0 0.24,-0.09 0.3,-0.21 0.04,-0.13 0.02,-0.27 -0.03,-0.38 -0.11,-0.26 -0.36,-0.51 -0.68,-0.48 z"
           id="path9" />
        <path
           class="cls-3"
           d="m 284.13,185.33 h -0.01 c -0.72,0.08 -1.16,0.34 -1.41,0.55 -0.15,0.12 -0.27,0.27 -0.36,0.43 v 0 c 0,0 0,0 0,0 0.76,0.37 1.63,0.53 2.52,0.44 0.83,-0.08 1.64,-0.39 2.35,-0.89 -1.2,-0.44 -2.24,-0.62 -3.09,-0.53 z"
           id="path10" />
        <path
           class="cls-3"
           d="m 287.69,184.87 v 0 c 0,0 0,0 0,0 -1.44,-2.57 -2.94,-2.71 -3.52,-2.65 -0.11,0.01 -0.23,0.04 -0.34,0.07 v 0 c -0.03,0.45 0.08,0.88 0.33,1.23 0.39,0.57 1.33,1.27 3.52,1.35 z"
           id="path11" />
        <path
           class="cls-3"
           d="m 275.57,181.4 h -0.05 c -0.17,0.02 -0.33,0.06 -0.49,0.13 v 0 c 0.03,0.11 0.07,0.2 0.11,0.3 0.13,0.25 0.32,0.46 0.54,0.63 0.52,0.41 1.55,0.87 3.54,0.73 v 0 c -1.61,-1.72 -2.98,-1.86 -3.65,-1.79 z"
           id="path12" />
        <path
           class="cls-3"
           d="m 282.84,182.96 v 0 c 0.12,0 0.24,-0.09 0.3,-0.21 0.04,-0.13 0.02,-0.27 -0.03,-0.38 -0.11,-0.26 -0.36,-0.51 -0.68,-0.48 h -0.01 c -0.07,0.01 -0.14,0.03 -0.2,0.07 -0.01,0.18 0,0.36 0.04,0.53 0.03,0.13 0.09,0.25 0.18,0.35 0.1,0.1 0.25,0.15 0.4,0.13 z"
           id="path13" />
        <path
           class="cls-3"
           d="m 279.7,184.22 c -0.47,-0.31 -1.18,-0.41 -2.11,-0.31 -0.06,0 -0.12,0.01 -0.19,0.02 -0.66,0.09 -1.32,0.25 -1.97,0.47 v 0 c 0,0 0,0 0,0 0.85,0.76 2.21,0.92 3.2,0.81 v 0 c 0,0 0.08,0 0.08,0 0.54,-0.07 0.92,-0.19 1.13,-0.37 0.09,-0.07 0.14,-0.18 0.13,-0.29 -0.05,-0.14 -0.14,-0.26 -0.28,-0.32 z"
           id="path14" />
        <path
           class="cls-3"
           d="m 281.06,184.65 c 0.47,0.27 1.19,0.36 2.12,0.26 v 0 c 0.49,-0.06 0.98,-0.14 1.46,-0.26 v 0 c 0,0 0,0 0,0 -1.16,-1.01 -2.27,-1.13 -2.99,-1.05 -0.05,0 -0.1,0.01 -0.15,0.02 -0.34,0.05 -0.67,0.15 -0.98,0.31 0.01,0.09 0.04,0.17 0.08,0.25 0.11,0.2 0.27,0.37 0.47,0.47 z"
           id="path15" />
        <path
           class="cls-3"
           d="m 276.88,181.11 v 0 c 0.12,0 0.24,-0.09 0.29,-0.2 0.04,-0.13 0.03,-0.27 -0.03,-0.38 -0.11,-0.26 -0.36,-0.51 -0.68,-0.48 h -0.01 c -0.07,0.01 -0.14,0.03 -0.2,0.07 -0.01,0.18 0,0.36 0.04,0.53 0.03,0.13 0.09,0.25 0.18,0.35 0.1,0.1 0.25,0.14 0.4,0.12 z"
           id="path16" />
        <path
           class="cls-3"
           d="m 281.39,182.76 v 0 c -0.75,-2.17 -2.21,-2.38 -3.02,-2.31 -0.02,0 -0.05,0 -0.07,0 -0.02,0 -0.04,0 -0.07,0 -0.17,0.02 -0.33,0.06 -0.49,0.11 0.14,0.4 0.36,0.75 0.66,1.04 0.48,0.48 1.39,1.08 2.99,1.15 v 0 z"
           id="path17" />
        <path
           class="cls-3"
           d="m 275.65,183.72 c 0.03,-0.11 0.02,-0.23 -0.02,-0.33 -0.04,-0.12 -0.12,-0.23 -0.21,-0.31 -0.09,-0.08 -0.2,-0.12 -0.33,-0.11 -0.05,0 -0.11,0.02 -0.15,0.05 v 0 c 0,0.16 0,0.31 0.04,0.46 0.02,0.11 0.07,0.22 0.14,0.3 0.08,0.09 0.19,0.13 0.31,0.11 v 0 c 0.1,-0.01 0.19,-0.08 0.23,-0.18 z"
           id="path18" />
        <path
           class="cls-3"
           d="m 299.18,183.31 c -0.32,0.03 -0.57,0.34 -0.68,0.62 -0.06,0.13 -0.07,0.27 -0.03,0.39 0.05,0.11 0.17,0.16 0.3,0.14 v 0 c 0.15,-0.01 0.3,-0.09 0.4,-0.21 0.09,-0.11 0.15,-0.25 0.18,-0.38 0.04,-0.18 0.06,-0.36 0.04,-0.54 -0.06,-0.02 -0.13,-0.03 -0.2,-0.02 z"
           id="path19" />
        <polygon
           class="cls-3"
           points="305.83,177.68 305.83,177.69 "
           id="polygon19" />
        <path
           class="cls-3"
           d="m 295.8,184.1 h -0.01 c -0.85,0.09 -1.89,0.49 -3.09,1.18 0.71,0.35 1.52,0.48 2.35,0.39 0.89,-0.1 1.76,-0.44 2.52,-0.97 v 0 c -0.09,-0.15 -0.22,-0.27 -0.36,-0.36 -0.25,-0.15 -0.69,-0.32 -1.41,-0.25 z"
           id="path20" />
        <path
           class="cls-3"
           d="m 295.75,182.3 c 0.25,-0.4 0.37,-0.85 0.33,-1.3 v 0 c 0,0 0,0 0,0 -0.11,-0.01 -0.22,-0.01 -0.34,0 -0.58,0.06 -2.08,0.51 -3.52,3.39 v 0 c 0,0 0,0 0,0 2.2,-0.54 3.13,-1.44 3.52,-2.09 z"
           id="path21" />
        <path
           class="cls-3"
           d="m 308.24,171.86 c 0,0.95 0.09,1.89 0.09,1.9 v 0 c 0,0 0,0 0,0 v 0 c 0,0 0.19,-0.26 0.38,-0.58 0.2,-0.33 0.38,-0.67 0.38,-0.94 0,-0.27 0.06,-0.8 0.1,-1.1 0.05,-0.38 0.09,-0.71 0.09,-0.74 v 0 c 0,0 -1.05,0.51 -1.05,1.45 z"
           id="path22" />
        <path
           class="cls-3"
           d="m 305.83,177.68 c 0.53,-0.21 1.04,-0.48 1.51,-0.82 0.7,-0.51 1.56,-1.36 1.67,-2.56 v 0 c -0.05,0 -0.11,0 -0.16,0 -0.01,0 -0.03,0 -0.04,0 -0.21,0.02 -0.64,0.13 -1.16,0.58 -0.66,0.57 -1.27,1.52 -1.82,2.8 z"
           id="path23" />
        <path
           class="cls-3"
           d="m 309.89,174.45 c -0.23,0.26 -0.37,0.59 -0.41,0.92 v 0 c 0,0 0.24,0 0.6,-0.04 v 0 c 0.47,-0.05 0.94,-0.14 1.41,-0.27 0.54,-0.16 0.85,-0.65 1.01,-1.04 0.11,-0.26 0.19,-0.54 0.23,-0.82 v 0 c -1.68,0.23 -2.48,0.8 -2.85,1.24 z"
           id="path24" />
        <path
           class="cls-3"
           d="m 312.87,169.05 c -0.22,0.03 -0.46,0.15 -0.78,0.41 -0.29,0.24 -0.57,0.5 -0.82,0.78 -0.32,0.35 -0.63,0.72 -0.91,1.11 v 0 c -0.03,0.07 -0.32,0.62 -0.55,1.15 -0.11,0.24 -0.2,0.5 -0.26,0.75 -0.02,0.08 -0.02,0.15 0,0.23 0,0.02 0.03,0.04 0.05,0.05 0.02,0 0.04,0 0.06,0 v 0 c 0,0 0.02,0 0.03,0 0.3,-0.08 0.82,-0.36 1.4,-0.76 0.64,-0.44 1.17,-0.89 1.47,-1.27 0.28,-0.35 0.44,-0.86 0.49,-1.54 0.02,-0.3 0.02,-0.61 -0.01,-0.91 -0.05,-0.01 -0.11,-0.01 -0.17,0 z"
           id="path25" />
        <path
           class="cls-3"
           d="m 308.43,177.58 c 0,0 -0.06,0 -0.09,0 -0.36,0.04 -0.73,0.11 -1.08,0.22 -0.81,0.25 -1.53,0.79 -2.03,1.5 v 0 c 0,0 0,0 0,0 0.5,0.07 1.02,0.08 1.53,0.02 v 0 c 0.51,-0.05 1.02,-0.17 1.51,-0.34 0.84,-0.3 1.2,-0.66 1.35,-0.9 0.07,-0.1 0.11,-0.22 0.13,-0.33 0,-0.05 0,-0.09 0,-0.14 v 0 c -0.43,-0.06 -0.88,-0.07 -1.33,-0.03 z"
           id="path26" />
        <path
           class="cls-3"
           d="m 304.5,180.02 c -0.1,0.1 -0.17,0.23 -0.21,0.36 -0.04,0.11 -0.05,0.23 -0.02,0.34 0.04,0.09 0.13,0.14 0.23,0.13 v 0 c 0.12,-0.01 0.24,-0.08 0.31,-0.18 0.07,-0.1 0.12,-0.22 0.14,-0.33 0.03,-0.16 0.04,-0.31 0.04,-0.47 v 0 c 0,0 -0.1,-0.03 -0.15,-0.02 -0.12,0.02 -0.24,0.08 -0.33,0.18 z"
           id="path27" />
        <path
           class="cls-3"
           d="m 303.03,178.36 v 0 c 0.15,-0.01 0.3,-0.09 0.4,-0.21 0.09,-0.12 0.15,-0.25 0.18,-0.39 0.04,-0.18 0.06,-0.36 0.04,-0.53 -0.06,-0.02 -0.13,-0.03 -0.2,-0.02 h -0.01 c -0.32,0.03 -0.57,0.34 -0.68,0.62 -0.06,0.13 -0.07,0.26 -0.03,0.39 0.05,0.11 0.17,0.17 0.29,0.14 z"
           id="path28" />
        <path
           class="cls-3"
           d="m 298.27,181.85 c -0.73,0.08 -1.83,0.43 -2.99,1.68 v 0 c 0,0 0,0 0,0 0.48,0.02 0.97,0 1.46,-0.05 v 0 c 0.94,-0.1 1.65,-0.34 2.12,-0.7 0.2,-0.15 0.36,-0.35 0.47,-0.57 0.04,-0.08 0.06,-0.17 0.08,-0.26 -0.31,-0.09 -0.65,-0.13 -0.98,-0.11 -0.05,0 -0.1,0 -0.15,0.01 z"
           id="path29" />
        <path
           class="cls-3"
           d="m 301.61,178 c 0,0 -0.05,0 -0.07,0 -0.81,0.1 -2.27,0.62 -3.02,2.95 v 0 c 0,0 0,0 0,0 1.6,-0.41 2.51,-1.2 2.99,-1.78 0.3,-0.35 0.52,-0.75 0.66,-1.18 -0.16,-0.02 -0.33,-0.02 -0.49,0 -0.02,0 -0.04,0 -0.07,0 z"
           id="path30" />
        <path
           class="cls-3"
           d="m 309.62,176.61 c 0.06,-0.15 0.09,-0.32 0.07,-0.48 v 0 c -0.1,-0.02 -0.2,-0.02 -0.3,-0.01 h -0.02 c -0.4,0.03 -0.78,0.25 -1.02,0.6 -0.03,0.05 -0.13,0.23 -0.05,0.35 0.07,0.1 0.22,0.13 0.45,0.11 v 0 c 0.61,-0.06 0.82,-0.42 0.88,-0.57 z"
           id="path31" />
        <path
           class="cls-3"
           d="m 306.95,173.68 c 0,0 -0.03,0 -0.04,0 -0.02,0 -0.04,0 -0.06,0 -0.31,0.04 -0.77,0.22 -1.29,0.83 -0.59,0.7 -1.12,1.81 -1.57,3.29 v 0 c 0,0 0,0 0,0 v 0 c 0.43,-0.24 0.84,-0.55 1.2,-0.9 0.93,-0.9 1.66,-1.99 2.12,-3.18 -0.11,-0.04 -0.24,-0.06 -0.37,-0.05 z"
           id="path32" />
        <path
           class="cls-3"
           d="m 302.51,181.29 c -0.06,0 -0.12,0.01 -0.19,0.02 -0.93,0.1 -1.64,0.35 -2.11,0.76 -0.13,0.09 -0.23,0.23 -0.28,0.38 -0.01,0.11 0.04,0.21 0.13,0.26 0.21,0.14 0.59,0.18 1.13,0.14 h 0.08 c 0,0 0,0 0,0 0.99,-0.1 2.35,-0.55 3.2,-1.49 v 0 c 0,0 0,0 0,0 -0.64,-0.08 -1.3,-0.1 -1.97,-0.05 z"
           id="path33" />
        <path
           class="cls-3"
           d="m 300.69,180.93 v 0 c 1.99,-0.28 3.03,-0.95 3.54,-1.47 0.22,-0.22 0.4,-0.47 0.54,-0.75 0.05,-0.1 0.09,-0.21 0.11,-0.32 v 0 c -0.16,-0.03 -0.33,-0.04 -0.49,-0.02 h -0.05 c -0.67,0.08 -2.04,0.5 -3.65,2.56 z"
           id="path34" />
        <polygon
           class="cls-3"
           points=""
           id="polygon34" />
        <path
           class="cls-3"
           d="m 297.08,181.46 c 0.15,-0.01 0.3,-0.09 0.4,-0.21 0.09,-0.11 0.15,-0.25 0.18,-0.38 0.04,-0.18 0.06,-0.36 0.04,-0.54 -0.06,-0.02 -0.13,-0.03 -0.2,-0.02 h -0.01 c -0.32,0.03 -0.57,0.34 -0.68,0.62 -0.06,0.13 -0.07,0.27 -0.03,0.39 0.05,0.11 0.17,0.16 0.3,0.14 z"
           id="path35" />
        <path
           class="cls-3"
           d="m 291.02,185.73 0.72,-0.41 -0.38,-0.39 -1.32,0.7 -0.08,0.02 h -0.08 c 0,0 -1.32,-0.43 -1.32,-0.43 l -0.38,0.47 0.72,0.26 0.11,0.02 -1.77,1.49 v 0 c 0,0 0.26,0.19 0.52,0.4 0.12,0.09 0.26,0.21 0.36,0.31 0.04,0.04 0.08,0.09 0.12,0.13 0.02,0.03 0.04,0.07 0.06,0.11 v 0 c 0,0 0.03,-0.02 0.04,-0.04 l 0.02,-0.02 c 0.07,-0.07 0.14,-0.15 0.2,-0.23 0.17,-0.21 0.39,-0.51 0.59,-0.78 0.39,-0.53 0.72,-0.99 0.78,-1.08 l 0.02,-0.03 0.02,0.03 c 0.06,0.07 0.39,0.46 0.78,0.91 0.2,0.23 0.43,0.48 0.59,0.66 0.06,0.07 0.13,0.13 0.2,0.19 h 0.02 c 0,0 0.03,0.03 0.04,0.04 v 0 c 0,0 0.04,-0.08 0.06,-0.12 0.04,-0.05 0.08,-0.11 0.12,-0.16 0.1,-0.12 0.25,-0.27 0.36,-0.39 0.26,-0.26 0.52,-0.51 0.52,-0.51 v 0 c 0,0 -1.77,-1.12 -1.77,-1.12 l 0.11,-0.05 z"
           id="path36" />
        <polygon
           class="cls-2"
           points="325.05,133.56 325.05,133.55 325.04,133.55 "
           id="polygon36" />
        <path
           class="cls-2"
           d="m 324.75,133.7 -0.12,0.06 -0.36,0.02 -0.34,0.2 -0.6,0.47 -0.03,0.02 -0.22,0.08 -0.21,-0.07 -0.12,0.07 -0.04,0.25 -0.11,0.19 -0.14,0.11 -0.48,0.1 -0.4,0.25 -0.53,-0.09 -0.24,0.12 -0.52,0.52 -0.27,0.15 h -0.09 c 0,0 -0.35,0.02 -0.35,0.02 l -0.15,0.06 -0.22,0.24 -0.42,0.08 -0.13,0.1 -0.2,0.43 -0.22,0.25 -0.13,0.04 -0.14,-0.04 -0.1,0.03 -0.05,0.27 -0.1,0.12 -0.28,0.13 -0.22,0.21 -0.2,0.12 -0.26,0.02 h -0.06 c 0,0 -0.26,0.18 -0.26,0.18 l -0.49,0.1 -0.21,0.22 -0.05,0.05 -0.1,0.07 -0.16,0.11 -0.04,0.03 h -0.19 c 0,0 -0.22,0.1 -0.22,0.1 l -0.09,-0.13 -0.15,0.11 -0.2,0.03 -0.25,-0.09 -0.19,-0.07 -0.14,0.04 -0.05,0.25 v 0.03 c 0,0 -0.15,0.21 -0.15,0.21 l -0.28,0.2 -0.04,0.05 -0.31,0.44 -0.6,0.69 -0.51,0.31 -0.52,0.21 -0.37,0.34 -0.96,0.58 -1.52,0.92 -0.31,0.13 -0.45,0.12 -0.79,0.38 -0.7,0.29 -0.04,0.02 -0.14,0.06 -0.99,0.4 h -0.46 c 0,0 -0.27,0.13 -0.27,0.13 h -0.71 c 0,0 -0.49,0.06 -0.49,0.06 l -0.31,0.1 -0.59,0.34 -0.99,0.58 -0.33,0.33 -0.51,0.32 -0.6,0.25 v -0.25 c 0,0 0,-0.01 0,-0.01 l -0.21,0.09 -0.15,0.06 -0.48,0.13 -0.27,0.03 -0.17,-0.03 h -0.03 c 0,0 -0.99,0.44 -0.99,0.44 l -1.1,0.22 -0.55,0.24 -0.41,0.04 -0.26,0.1 -0.51,0.12 -0.18,-0.03 h -0.04 c 0,0 -1.49,0.21 -1.49,0.21 h -0.68 c 0,0 -0.32,0.1 -0.32,0.1 l -0.54,-0.13 h -0.79 c 0,0 -0.19,-0.04 -0.19,-0.04 l -0.42,-0.08 -0.19,0.13 -0.14,0.03 -0.34,-0.09 h -0.12 c 0,0 -0.28,0.14 -0.28,0.14 l -0.16,-0.02 -0.15,-0.1 -0.35,-0.02 -0.21,-0.16 -1.19,0.28 -0.32,-0.06 -1.08,-0.2 -0.17,0.03 -0.22,0.18 -0.32,0.15 -0.28,0.1 -0.38,0.05 -0.44,-0.07 -0.46,-0.17 -0.17,-0.02 -0.38,0.08 -0.12,0.02 -0.69,-0.3 -0.89,-0.46 -0.6,-0.23 h -0.23 c 0,0 -0.03,0.1 -0.03,0.1 l 0.11,0.34 0.04,0.35 v 0.33 c 0,0 -0.02,0.2 -0.02,0.2 l 0.06,0.17 0.22,0.22 0.09,0.23 0.07,0.66 v 0.68 c 0,0 -0.11,1.09 -0.11,1.09 l -0.04,0.17 -0.13,0.57 -0.12,0.53 -0.45,1.42 -0.12,0.18 -0.3,0.24 -0.69,0.54 -0.51,0.34 -0.16,0.08 -0.41,0.07 h -0.26 c 0,0 -0.32,-0.12 -0.32,-0.12 l -0.31,-0.05 -0.41,-0.25 -0.46,-0.05 -0.5,-0.24 -0.13,-0.14 h -0.27 c 0,0 -0.38,-0.07 -0.38,-0.07 v 0 c 0,0 -0.14,-0.03 -0.14,-0.03 l -0.1,-0.02 -0.48,0.04 -0.45,-0.16 -0.24,-0.03 -0.32,0.02 -0.34,0.19 -0.17,0.1 -0.22,-0.06 -0.16,0.03 -0.18,0.29 -0.02,0.04 -0.12,0.08 h -0.15 c 0,0 -0.12,0.02 -0.12,0.02 l -0.13,0.07 -0.17,0.09 -0.15,0.08 -0.07,0.04 v 0 c 0,0 -0.05,0.01 -0.05,0.01 l -0.08,0.02 -0.1,0.03 -0.18,-0.09 -0.09,-0.05 -0.16,-0.02 -0.09,0.07 -0.02,0.29 -0.08,0.18 -0.25,0.25 -0.25,0.25 -0.18,0.28 -0.47,1.11 -0.29,0.46 -0.09,0.11 -0.31,0.37 -0.27,0.24 -0.62,0.55 -0.59,0.28 -0.51,0.16 -0.25,0.03 h -0.47 c 0,0 -0.42,-0.1 -0.42,-0.1 l -0.46,-0.24 -0.51,-0.35 -0.73,-0.65 -0.1,-0.05 h -0.02 c 0,0 -0.23,-0.14 -0.23,-0.14 l -0.17,0.02 -0.07,0.12 -0.04,0.16 -0.03,0.15 -0.08,0.82 v 0.05 c 0,0 0.05,0.33 0.05,0.33 l 0.56,0.72 0.17,0.4 0.03,0.04 0.11,0.18 0.09,0.14 v 0 c 0,0 0.19,0.56 0.19,0.56 l -0.13,0.33 0.07,0.21 -0.17,0.15 -0.03,0.19 0.5,0.57 0.11,0.27 -0.12,0.4 -0.19,0.23 -0.05,0.06 0.03,0.16 0.23,0.18 0.39,0.31 0.21,0.5 0.16,0.12 0.18,-0.06 0.1,0.07 0.16,-0.02 0.15,0.14 0.1,0.04 0.16,0.06 0.12,0.15 0.03,0.49 0.23,0.59 v 0.33 c 0,0 0,0.05 0,0.05 l 0.14,0.23 0.05,0.19 -0.08,0.52 0.18,0.15 0.2,-0.06 h 0.13 c 0,0 0.21,0.16 0.21,0.16 l 0.25,0.35 0.24,-0.06 0.15,0.06 0.75,0.6 0.17,0.07 v 0 c 0,0 0.12,0.05 0.12,0.05 l 0.15,0.14 0.23,-0.18 h 0.03 c 0,0 0.26,-0.05 0.26,-0.05 l 0.11,0.06 0.22,0.12 0.28,-0.03 0.61,0.12 0.27,0.04 0.54,0.28 0.23,0.12 0.14,0.1 0.18,0.13 0.36,0.12 0.31,0.04 0.17,0.02 0.13,0.04 v 0 c 0,0 0,0 0,0 v 0 c 0,0 0.67,0.19 0.67,0.19 l 0.36,0.05 0.34,0.09 0.24,0.06 0.18,-0.02 0.25,-0.24 0.25,-0.04 0.2,0.03 0.2,-0.05 0.31,-0.23 0.06,-0.1 0.22,-0.13 0.75,-0.17 0.22,0.05 0.56,-0.3 0.38,0.07 0.33,-0.15 0.73,0.09 0.19,0.12 0.22,0.23 h 0.03 c 0,0 0.24,-0.02 0.24,-0.02 l -0.1,0.18 0.32,0.3 0.29,0.41 0.02,0.06 0.21,0.59 0.16,0.2 0.11,0.29 v 0.2 c 0,0 -0.16,0.15 -0.16,0.15 l -0.03,0.08 v 0.03 c 0,0 0.02,0.08 0.02,0.08 l 0.06,-0.04 0.12,-0.08 0.15,-0.04 h 0.26 c 0,0 0.17,0 0.17,0 l 0.27,-0.16 0.18,-0.11 0.29,0.09 0.32,-0.04 0.13,0.05 0.38,0.13 h 0.19 c 0,0 0.07,-0.06 0.07,-0.06 l 0.05,-0.11 -0.02,-0.12 -0.15,-0.15 -0.32,-0.34 -0.13,-0.18 -0.1,-0.27 -0.03,-0.35 -0.02,-0.24 0.04,-0.32 0.09,-0.12 0.06,-0.26 v 0 c 0,0 0.02,-0.07 0.02,-0.07 l 0.18,-0.26 0.47,-0.35 0.51,-0.51 0.4,-0.31 0.41,-0.22 v -0.05 c 0,0 0.06,0.01 0.06,0.01 l 1.05,-0.47 h 0.02 c 0,0 0.47,-0.13 0.47,-0.13 l 3.16,-0.11 0.12,-0.05 v 0 c 0,0 0.11,-0.31 0.11,-0.31 l 0.06,-0.06 0.04,-0.04 0.35,-0.19 0.16,-0.04 0.45,0.06 0.18,0.03 0.3,-0.2 0.21,-0.02 0.43,-0.28 0.27,-0.02 0.1,-0.05 0.52,-0.43 0.5,-0.2 0.13,-0.08 0.05,-0.03 0.51,-0.33 0.33,-0.29 0.28,-0.18 0.31,-0.11 0.81,-0.14 0.16,-0.29 0.35,-0.08 0.21,-0.26 0.24,-0.12 0.17,-0.27 0.14,-0.22 0.2,-0.14 0.65,-0.11 h 0.77 c 0,0 0.1,-0.06 0.1,-0.06 l 0.17,-0.64 0.18,-0.13 0.49,-0.76 v -0.26 c 0,0 0,-0.22 0,-0.22 l 0.08,-0.32 -0.05,-0.55 0.06,-0.57 0.3,-0.75 0.27,-0.32 0.43,-0.34 0.22,-0.12 0.31,-0.08 v 0 c 0,0 0.05,-0.01 0.05,-0.01 l 0.08,-0.02 1.07,-0.13 c 0,0 0.39,-0.05 0.39,-0.05 l 0.36,-0.04 0.9,0.07 h 0.06 c 0,0 0.3,0.07 0.3,0.07 l 0.35,0.24 0.37,0.32 0.07,0.06 0.24,0.08 0.07,0.02 0.2,-0.05 0.28,-0.18 0.21,-0.2 0.29,-0.19 v 0 c 0,0 0.16,-0.27 0.16,-0.27 v 0 c 0,0 0,0 0,0 v 0 c 0,0 0,0 0,0 l 0.06,-0.1 0.56,-0.28 0.66,-0.11 0.07,-0.05 0.04,-0.03 0.18,-0.22 0.16,-0.02 0.4,0.1 0.28,-0.08 0.22,0.07 0.17,-0.04 0.32,-0.07 0.35,0.21 h 0.2 c 0,0 0.72,0.35 0.72,0.35 h 0.04 c 0,0 0.02,0 0.02,0 h 0.04 c 0,0 0.08,-0.03 0.08,-0.03 l 0.13,-0.05 h 0.02 c 0,0 0.02,0.01 0.02,0.01 l 0.08,0.11 h 0.11 c 0,0 0.13,-0.19 0.13,-0.19 l -0.05,-0.07 -0.02,-0.03 -0.26,-0.03 -0.23,-0.37 0.22,-0.26 -0.34,-0.39 -0.06,-0.06 -0.02,-0.03 -0.12,-0.17 -0.6,-0.85 -0.78,-0.54 -0.27,-0.19 v 0 c 0,0 -0.1,-0.07 -0.1,-0.07 l -0.42,-0.38 -0.3,-0.36 -0.04,-0.08 -0.06,-0.13 -0.18,-0.37 -0.31,-0.21 -0.25,-0.25 v -0.02 c 0,0 -0.54,-0.66 -0.54,-0.66 l -0.09,-0.11 -0.12,-0.06 -0.26,0.03 -0.03,-0.02 h -0.01 c 0,0 0,-0.02 0,-0.02 l 0.13,-0.14 0.14,-0.05 0.06,-0.14 -0.27,-0.74 v -0.03 c 0,0 -0.02,-0.24 -0.02,-0.24 l 0.22,-1.14 0.03,-0.14 0.37,-0.79 0.23,-0.21 0.25,-0.52 0.22,-0.34 0.21,-0.22 0.04,-0.03 0.37,-0.26 0.31,-0.08 0.3,-0.07 0.52,0.11 0.49,-0.06 0.1,-0.02 0.22,-0.05 0.37,-0.15 0.17,-0.13 0.09,-0.15 0.19,-0.65 0.06,-0.21 0.12,-0.23 0.67,-0.84 0.51,-0.52 1.14,-0.96 0.56,-0.39 0.29,-0.2 2.55,-1.4 0.66,-0.74 0.35,-0.39 0.61,-0.47 0.71,-0.37 0.61,-0.55 0.13,-0.18 0.17,-0.56 0.14,-0.05 0.13,-0.29 0.04,-0.08 0.5,-0.41 0.06,-0.03 1.95,-1.18 h 0.28 c 0,0 0.15,-0.23 0.15,-0.23 l 0.57,-0.15 0.1,-0.03 0.14,-0.08 0.12,-0.22 v -0.04 l 0.02,-0.54 0.12,-0.16 0.07,-0.36 0.06,-0.09 0.06,-0.09 0.16,-0.13 -0.03,-0.06 -0.3,0.15 z"
           id="path37" />
        <path
           d="m 328.12,97.88 c -13.42,0 -29.29,9.91 -38.89,26.38 -2.59,-5.95 -11.83,-12.43 -22.8,-12.43 -8.84,0 -33.67,11.05 -33.67,46.73 0,46.05 46.59,55.51 56.01,69.82 0.65,0.99 2.73,1.73 3.53,-0.62 7.51,-22.18 65.79,-47.24 65.79,-92.37 0,-25.31 -16.53,-37.51 -29.95,-37.51 z m 14.33,37.36 c -1.22,35.68 -47.19,64.15 -53.24,82.14 -5.39,-10.89 -44.12,-26.63 -43.74,-60.94 0.32,-28.51 15.16,-37.43 23.23,-37.43 11.28,0 15.94,8.61 16.71,12.43 0.76,3.81 5.03,6.86 6.4,0.61 1.37,-6.25 14.65,-25.31 30.96,-25.31 14.94,0 20.12,15.41 19.67,28.52 z"
           id="path38" />
      </g>
    </g>
  </g>
</svg>
