<?xml version="1.0" encoding="UTF-8" standalone="no"?>
<svg
   id="LOGO_LAYER"
   viewBox="0 0 125.34375 131.44334"
   version="1.1"
   sodipodi:docname="ESC-HEART-SLOVAKIA-BLACK.svg"
   width="125.34375"
   height="131.44334"
   xmlns:inkscape="http://www.inkscape.org/namespaces/inkscape"
   xmlns:sodipodi="http://sodipodi.sourceforge.net/DTD/sodipodi-0.dtd"
   xmlns="http://www.w3.org/2000/svg"
   xmlns:svg="http://www.w3.org/2000/svg">
  <sodipodi:namedview
     id="namedview17"
     pagecolor="#ffffff"
     bordercolor="#cccccc"
     borderopacity="1"
     inkscape:showpageshadow="0"
     inkscape:pageopacity="1"
     inkscape:pagecheckerboard="0"
     inkscape:deskcolor="#d1d1d1" />
  <defs
     id="defs1">
    <style
       id="style1">.cls-1{fill:#f9f9f9;}.cls-2{fill:#eb302e;}.cls-3{fill:#fff;}.cls-4{fill:#124ea2;}</style>
  </defs>
  <g
     id="LOGO_GROUP"
     transform="translate(-232.75178,-97.88034)">
    <g
       id="SELECT_FLAG_HERE">
      <g
         id="BLACK_FLAG">
        <path
           class="cls-2"
           d="m 284.91,185.4 c -3.82,3.24 -6.91,4.52 -7.04,4.57 l -0.28,0.12 -0.28,-0.05 c -0.13,-0.02 -3.22,-0.61 -7.04,-2.99 -1.56,-0.97 -3.39,-2.35 -5.2,-4.23 l -10.45,1.1 c 11.71,16.32 30.93,26.02 34.6,33.46 3.47,-10.31 20.05,-24.06 33.8,-40.65 l -33.07,3.48 c -1.76,2.2 -3.53,3.92 -5.04,5.2 z"
           id="path1" />
        <path
           class="cls-4"
           d="m 296.3,168.91 -0.02,0.06 c -1.73,4.65 -4.02,8.35 -6.33,11.22 l 33.07,-3.48 c 9.86,-11.88 18.26,-25.22 19.34,-39.78 l -44.49,4.68 c 0.54,6.41 1.09,18.63 -1.57,27.3 z"
           id="path2" />
        <path
           class="cls-4"
           d="m 258.89,173.18 -0.02,-0.06 c -2.7,-8.2 -2.1,-20.8 -1.55,-27.24 l -11.15,1.17 c -0.42,2.86 -0.66,5.98 -0.7,9.38 -0.12,10.88 3.7,19.9 9.14,27.48 l 10.45,-1.1 c -2.25,-2.34 -4.48,-5.47 -6.17,-9.63 z"
           id="path3" />
        <path
           class="cls-1"
           d="m 322.79,106.72 c -16.31,0 -29.59,19.06 -30.96,25.31 -1.37,6.25 -5.64,3.2 -6.4,-0.61 -0.76,-3.81 -5.42,-12.43 -16.71,-12.43 -7.12,0 -19.47,6.93 -22.53,28.06 l 11.15,-1.17 c 0.2,-2.33 0.39,-3.86 0.42,-4.08 l 0.11,-0.87 39.45,-4.44 0.11,0.85 c 0.03,0.22 0.24,1.82 0.45,4.28 l 44.49,-4.68 c 0.04,-0.57 0.07,-1.14 0.09,-1.71 0.45,-13.11 -4.73,-28.52 -19.67,-28.52 z"
           id="path4" />
        <path
           class="cls-2"
           d="m 278.4,188.67 c -0.16,0.08 -0.3,0.15 -0.42,0.21 0.12,-0.05 0.26,-0.12 0.42,-0.21 z"
           id="path5" />
        <path
           class="cls-2"
           d="m 288.36,180.65 c -0.78,0.91 -1.56,1.73 -2.33,2.47 0.77,-0.74 1.55,-1.56 2.33,-2.47 z"
           id="path6" />
        <path
           class="cls-2"
           d="m 284.73,184.31 c -0.76,0.66 -1.49,1.24 -2.17,1.75 0.69,-0.51 1.42,-1.09 2.17,-1.75 z"
           id="path7" />
        <path
           class="cls-2"
           d="m 272.64,187.2 c -0.7,-0.36 -1.45,-0.79 -2.22,-1.29 0.78,0.5 1.52,0.93 2.22,1.29 z"
           id="path8" />
        <path
           class="cls-2"
           d="m 269.18,185.04 c -0.79,-0.58 -1.59,-1.24 -2.39,-1.99 0.8,0.75 1.6,1.41 2.39,1.99 z"
           id="path9" />
        <path
           class="cls-2"
           d="m 275.45,188.43 c -0.51,-0.19 -1.1,-0.42 -1.75,-0.72 0.65,0.29 1.24,0.53 1.75,0.72 z"
           id="path10" />
        <path
           class="cls-2"
           d="m 263.14,178.85 c 0.08,-1.49 0.56,-3.88 2.7,-5.23 3.85,-2.02 5.83,0.54 5.83,0.54 0,0 0.86,-3.65 4.01,-4.91 -0.05,0.02 -0.11,0.03 -0.16,0.05 v -6.68 c 0,0 -5.04,0.17 -9.88,1.91 0.99,-2.34 0.49,-3.92 0,-5.95 3.21,0.63 9.88,-0.22 9.88,-0.22 v -4.86 c 0,0 -3.7,0.42 -7.8,1.77 1.19,-2.81 0,-6.04 0,-6.04 0,0 3.36,0.56 7.8,0.11 0.15,-2.29 -0.84,-7.39 -0.84,-7.39 0,0 2.07,0.31 2.91,0.22 0.84,-0.09 2.91,-0.87 2.91,-0.87 0,0 -0.99,5.31 -0.84,7.58 4.44,-0.55 7.8,-1.87 7.8,-1.87 0,0 -1.18,3.5 0,6.04 -4.1,-0.43 -7.8,-0.02 -7.8,-0.02 v 4.86 c 0,0 6.67,-0.65 9.88,-2 -0.49,2.14 -0.99,3.83 0,5.95 -4.84,-0.64 -9.88,0.32 -9.88,0.32 v 6.68 c -0.14,-0.03 -0.28,-0.05 -0.43,-0.07 3.38,0.39 4.28,4.05 4.28,4.05 0,0 1.98,-3 5.83,-1.85 2.14,0.87 2.62,3.15 2.69,4.62 1.23,-2.02 2.37,-4.3 3.33,-6.89 3.65,-11.91 1.09,-31.14 1.09,-31.14 l -18.86,2.12 -18.86,2.12 c 0,0 -2.57,19.81 1.09,30.9 0.96,2.37 2.1,4.39 3.33,6.14 z"
           id="path11" />
        <path
           class="cls-2"
           d="m 291.94,175.75 c -0.71,1.16 -1.46,2.24 -2.21,3.22 0.76,-0.99 1.5,-2.06 2.21,-3.22 z"
           id="path12" />
        <path
           class="cls-2"
           d="m 265.47,181.73 c -0.77,-0.83 -1.52,-1.75 -2.25,-2.77 0.73,1.02 1.48,1.94 2.25,2.77 z"
           id="path13" />
        <path
           class="cls-4"
           d="m 289.34,170.98 c -3.85,-1.15 -5.83,1.85 -5.83,1.85 0,0 -0.9,-3.67 -4.28,-4.05 -0.01,0 -0.02,0 -0.03,0 -0.21,-0.02 -0.44,-0.03 -0.67,-0.02 -0.06,0 -0.13,0 -0.19,0 -0.24,0.01 -0.49,0.04 -0.75,0.08 -0.36,0.02 -0.68,0.07 -1,0.14 -0.1,0.02 -0.19,0.05 -0.28,0.07 -0.22,0.06 -0.43,0.13 -0.63,0.21 -3.15,1.26 -4.01,4.91 -4.01,4.91 0,0 -1.98,-2.55 -5.83,-0.54 -2.14,1.35 -2.62,3.74 -2.7,5.23 0.02,0.04 0.05,0.07 0.07,0.11 0.73,1.02 1.48,1.94 2.25,2.77 0.03,0.03 0.05,0.06 0.08,0.09 0.39,0.41 0.77,0.8 1.17,1.17 0.02,0.02 0.05,0.05 0.07,0.07 0.8,0.75 1.6,1.41 2.39,1.99 0.01,0 0.02,0.02 0.03,0.03 0.39,0.29 0.79,0.56 1.17,0.81 0.01,0 0.02,0.02 0.04,0.02 0.77,0.5 1.52,0.93 2.22,1.29 0,0 0.01,0 0.02,0.01 0.35,0.18 0.69,0.34 1.01,0.49 0,0 0.02,0 0.03,0.01 0.65,0.29 1.24,0.53 1.75,0.72 0,0 0.02,0 0.03,0.01 0.25,0.09 0.48,0.17 0.7,0.24 0.01,0 0.02,0 0.04,0.01 0.42,0.13 0.75,0.22 0.99,0.28 0.01,0 0.02,0 0.03,0 0.11,0.03 0.19,0.05 0.25,0.06 0.01,0 0.02,0 0.03,0 0.04,0 0.07,0.01 0.07,0.01 0,0 0.04,-0.02 0.07,-0.03 0,0 0.02,0 0.03,-0.01 0.06,-0.03 0.14,-0.06 0.25,-0.11 0.01,0 0.03,-0.01 0.04,-0.02 0.12,-0.05 0.26,-0.12 0.42,-0.21 0.16,-0.08 0.35,-0.18 0.55,-0.29 0.02,0 0.03,-0.02 0.05,-0.03 0.21,-0.11 0.44,-0.24 0.68,-0.38 0.02,-0.01 0.04,-0.02 0.05,-0.03 0.5,-0.3 1.08,-0.66 1.71,-1.09 0.02,-0.01 0.04,-0.03 0.06,-0.04 0.31,-0.21 0.64,-0.45 0.98,-0.7 0.02,-0.02 0.04,-0.03 0.06,-0.05 0.69,-0.51 1.42,-1.09 2.17,-1.75 0.03,-0.02 0.05,-0.05 0.08,-0.07 0.37,-0.33 0.75,-0.67 1.13,-1.04 0.03,-0.03 0.06,-0.05 0.08,-0.08 0.77,-0.74 1.55,-1.56 2.33,-2.47 0.04,-0.05 0.08,-0.09 0.12,-0.14 0.38,-0.44 0.76,-0.91 1.13,-1.39 0.04,-0.05 0.08,-0.1 0.12,-0.15 0.76,-0.99 1.5,-2.06 2.21,-3.22 0.03,-0.05 0.06,-0.1 0.09,-0.15 -0.08,-1.47 -0.56,-3.76 -2.69,-4.62 z"
           id="path14" />
        <path
           class="cls-1"
           d="m 276.59,168.97 c 0.32,-0.07 0.65,-0.12 1,-0.14 0.26,-0.05 0.51,-0.07 0.75,-0.08 0.06,0 0.13,0 0.19,0 0.23,0 0.46,0 0.67,0.02 0.01,0 0.02,0 0.03,0 0.15,0.02 0.29,0.04 0.43,0.07 v -6.68 c 0,0 5.04,-0.96 9.88,-0.32 -0.99,-2.12 -0.49,-3.81 0,-5.95 -3.21,1.35 -9.88,2 -9.88,2 v -4.86 c 0,0 3.7,-0.42 7.8,0.02 -1.18,-2.54 0,-6.04 0,-6.04 0,0 -3.36,1.32 -7.8,1.87 -0.15,-2.26 0.84,-7.58 0.84,-7.58 0,0 -2.07,0.78 -2.91,0.87 -0.84,0.1 -2.91,-0.22 -2.91,-0.22 0,0 0.99,5.09 0.84,7.39 -4.44,0.45 -7.8,-0.11 -7.8,-0.11 0,0 1.19,3.24 0,6.04 4.1,-1.35 7.8,-1.77 7.8,-1.77 v 4.86 c 0,0 -6.67,0.85 -9.88,0.22 0.49,2.03 0.99,3.6 0,5.95 4.84,-1.73 9.88,-1.91 9.88,-1.91 v 6.68 c 0,0 0.11,-0.03 0.16,-0.05 0.2,-0.08 0.41,-0.15 0.63,-0.21 0.09,-0.02 0.18,-0.05 0.28,-0.07 z"
           id="path15" />
        <path
           class="cls-3"
           d="m 258.87,173.12 0.02,0.06 c 1.69,4.16 3.92,7.29 6.17,9.63 1.81,1.89 3.64,3.26 5.2,4.23 3.82,2.38 6.91,2.96 7.04,2.99 l 0.28,0.05 0.28,-0.12 c 0.13,-0.05 3.22,-1.33 7.04,-4.57 1.52,-1.29 3.28,-3 5.04,-5.2 2.3,-2.88 4.6,-6.58 6.33,-11.22 l 0.02,-0.06 c 2.66,-8.67 2.12,-20.89 1.57,-27.3 -0.21,-2.45 -0.42,-4.06 -0.45,-4.28 l -0.11,-0.85 -39.45,4.44 -0.11,0.87 c -0.03,0.22 -0.22,1.75 -0.42,4.08 -0.55,6.44 -1.16,19.05 1.55,27.24 z m -0.15,-31.3 18.86,-2.12 18.86,-2.12 c 0,0 2.57,19.23 -1.09,31.14 -0.96,2.58 -2.1,4.87 -3.33,6.89 -0.03,0.05 -0.06,0.1 -0.09,0.15 -0.71,1.16 -1.46,2.23 -2.21,3.22 -0.04,0.05 -0.08,0.1 -0.12,0.15 -0.38,0.49 -0.75,0.95 -1.13,1.39 -0.04,0.05 -0.08,0.09 -0.12,0.14 -0.78,0.91 -1.56,1.73 -2.33,2.47 -0.03,0.03 -0.06,0.05 -0.08,0.08 -0.38,0.37 -0.76,0.71 -1.13,1.04 -0.03,0.02 -0.05,0.05 -0.08,0.07 -0.76,0.66 -1.49,1.24 -2.17,1.75 -0.02,0.02 -0.04,0.03 -0.06,0.05 -0.34,0.25 -0.66,0.48 -0.98,0.7 -0.02,0.01 -0.04,0.03 -0.06,0.04 -0.63,0.43 -1.21,0.79 -1.71,1.09 -0.02,0.01 -0.04,0.02 -0.05,0.03 -0.24,0.14 -0.47,0.27 -0.68,0.38 -0.02,0 -0.03,0.02 -0.05,0.03 -0.21,0.11 -0.39,0.21 -0.55,0.29 -0.16,0.08 -0.3,0.15 -0.42,0.21 -0.01,0 -0.03,0.01 -0.04,0.02 -0.1,0.05 -0.19,0.09 -0.25,0.11 -0.01,0 -0.02,0 -0.03,0.01 -0.04,0.02 -0.07,0.03 -0.07,0.03 0,0 -0.04,0 -0.07,-0.01 0,0 -0.02,0 -0.03,0 -0.06,-0.01 -0.15,-0.03 -0.25,-0.06 -0.01,0 -0.02,0 -0.03,0 -0.23,-0.06 -0.57,-0.15 -0.99,-0.28 -0.01,0 -0.02,0 -0.04,-0.01 -0.21,-0.07 -0.45,-0.15 -0.7,-0.24 0,0 -0.02,0 -0.03,-0.01 -0.51,-0.19 -1.1,-0.42 -1.75,-0.72 0,0 -0.02,0 -0.03,-0.01 -0.32,-0.15 -0.66,-0.31 -1.01,-0.49 0,0 -0.01,0 -0.02,-0.01 -0.7,-0.36 -1.45,-0.79 -2.22,-1.29 -0.01,0 -0.02,-0.02 -0.04,-0.02 -0.38,-0.25 -0.78,-0.52 -1.17,-0.81 -0.01,0 -0.02,-0.02 -0.03,-0.03 -0.79,-0.58 -1.59,-1.24 -2.39,-1.99 -0.02,-0.02 -0.05,-0.05 -0.07,-0.07 -0.39,-0.37 -0.78,-0.76 -1.17,-1.17 -0.03,-0.03 -0.05,-0.06 -0.08,-0.09 -0.77,-0.83 -1.52,-1.75 -2.25,-2.77 -0.02,-0.04 -0.05,-0.07 -0.07,-0.11 -1.23,-1.74 -2.37,-3.77 -3.33,-6.14 -3.65,-11.08 -1.09,-30.9 -1.09,-30.9 z"
           id="path16" />
        <path
           d="m 328.12,97.88 c -13.42,0 -29.29,9.91 -38.89,26.38 -2.59,-5.95 -11.83,-12.43 -22.8,-12.43 -8.84,0 -33.67,11.05 -33.67,46.73 0,46.05 46.59,55.51 56.01,69.82 0.65,0.99 2.73,1.73 3.53,-0.62 7.51,-22.18 65.79,-47.24 65.79,-92.37 0,-25.31 -16.53,-37.51 -29.95,-37.51 z m 14.33,37.36 c -0.02,0.57 -0.05,1.14 -0.09,1.71 -1.08,14.56 -9.48,27.9 -19.34,39.78 -13.75,16.58 -30.33,30.34 -33.8,40.65 -3.68,-7.44 -22.9,-17.14 -34.6,-33.46 -5.44,-7.59 -9.26,-16.6 -9.14,-27.48 0.04,-3.4 0.29,-6.52 0.7,-9.38 3.06,-21.13 15.42,-28.06 22.53,-28.06 11.28,0 15.94,8.61 16.71,12.43 0.76,3.81 5.03,6.86 6.4,0.61 1.37,-6.25 14.65,-25.31 30.96,-25.31 14.94,0 20.12,15.41 19.67,28.52 z"
           id="path17" />
      </g>
    </g>
  </g>
</svg>
