<?xml version="1.0" encoding="UTF-8" standalone="no"?>
<svg
   id="LOGO_LAYER"
   viewBox="0 0 125.34375 131.44334"
   version="1.1"
   sodipodi:docname="ESC-HEART-NORTHMACEDONIA-BLACK.svg"
   width="125.34375"
   height="131.44334"
   xmlns:inkscape="http://www.inkscape.org/namespaces/inkscape"
   xmlns:sodipodi="http://sodipodi.sourceforge.net/DTD/sodipodi-0.dtd"
   xmlns="http://www.w3.org/2000/svg"
   xmlns:svg="http://www.w3.org/2000/svg">
  <sodipodi:namedview
     id="namedview11"
     pagecolor="#ffffff"
     bordercolor="#cccccc"
     borderopacity="1"
     inkscape:showpageshadow="0"
     inkscape:pageopacity="1"
     inkscape:pagecheckerboard="0"
     inkscape:deskcolor="#d1d1d1" />
  <defs
     id="defs1">
    <style
       id="style1">.cls-1{fill:#f8e929;}.cls-2{fill:#d91b20;}</style>
  </defs>
  <g
     id="LOGO_GROUP"
     transform="translate(-232.75178,-97.88034)">
    <g
       id="SELECT_FLAG_HERE">
      <g
         id="BLACK_FLAG">
        <path
           class="cls-2"
           d="m 270.92,163.95 c 0,0.66 0.03,1.31 0.1,1.94 l -23.29,4.79 c 1.6,4.77 3.96,9.1 6.77,13.05 l 18.48,-11.23 c 0.46,0.87 0.99,1.69 1.58,2.46 l -16.37,13.47 c 7.4,8.63 16.52,15.23 23.07,20.61 l 5.37,-27.52 c 1.24,0.12 2.52,0.11 3.83,-0.03 1.32,-0.14 2.59,-0.4 3.84,-0.78 l 4.56,22.44 c 6.04,-6.84 13.93,-14.57 21.33,-23.09 l -13.82,-8.45 c 0.59,-0.89 1.12,-1.83 1.58,-2.79 l 16.27,6.45 c 3.52,-4.35 6.82,-8.89 9.63,-13.6 l -23.93,0.12 c 0.06,-0.65 0.1,-1.3 0.1,-1.96 0,-0.66 -0.03,-1.31 -0.1,-1.94 l 28.8,-5.93 c 2.18,-5.38 3.55,-10.96 3.75,-16.73 0.05,-1.6 0.02,-3.23 -0.1,-4.86 l -34.42,20.9 c -0.46,-0.87 -0.99,-1.69 -1.58,-2.46 l 34.11,-28.05 c -2.68,-7.86 -8.22,-14.04 -17.69,-14.04 -9.47,0 -18.57,6.94 -24.26,13.82 l -4.24,21.72 c -1.24,-0.12 -2.52,-0.11 -3.84,0.03 -1.31,0.14 -2.59,0.4 -3.83,0.78 l -3.37,-16.54 c -2.44,-3.69 -7.01,-7.53 -14.54,-7.53 -5.76,0 -14.94,4.54 -19.86,17.46 l 25.7,15.72 c -0.59,0.89 -1.12,1.83 -1.58,2.79 L 246.6,144.52 c -0.67,3.53 -1.07,7.48 -1.12,11.92 -0.02,1.96 0.09,3.85 0.31,5.69 L 271.01,162 c -0.07,0.65 -0.1,1.3 -0.1,1.96 z m 19.54,-17.75 c 8.63,-0.91 15.64,5.38 15.64,14.04 0,8.66 -7,16.43 -15.64,17.34 -8.63,0.91 -15.64,-5.38 -15.64,-14.04 0,-8.66 7,-16.43 15.64,-17.34 z"
           id="path1" />
        <path
           class="cls-1"
           d="m 290.46,177.58 c 8.63,-0.91 15.64,-8.67 15.64,-17.34 0,-8.67 -7,-14.95 -15.64,-14.04 -8.64,0.91 -15.64,8.67 -15.64,17.34 0,8.67 7,14.95 15.64,14.04 z"
           id="path2" />
        <path
           class="cls-1"
           d="m 274.55,152.17 -25.7,-15.72 c -0.91,2.39 -1.68,5.07 -2.25,8.06 l 26.37,10.45 c 0.46,-0.97 0.99,-1.9 1.58,-2.79 z"
           id="path3" />
        <path
           class="cls-1"
           d="m 271.01,165.89 c -0.07,-0.64 -0.1,-1.28 -0.1,-1.94 0,-0.66 0.03,-1.31 0.1,-1.96 l -25.22,0.13 c 0.36,3.01 1.02,5.86 1.93,8.57 l 23.29,-4.79 z"
           id="path4" />
        <path
           class="cls-1"
           d="m 290.46,142.28 c 1.32,-0.14 2.59,-0.14 3.84,-0.03 l 4.24,-21.72 c -3.74,4.52 -6.16,9.02 -6.7,11.5 -1.37,6.25 -5.64,3.2 -6.4,-0.61 -0.25,-1.27 -0.95,-3.07 -2.16,-4.9 l 3.37,16.54 c 1.24,-0.38 2.52,-0.64 3.83,-0.78 z"
           id="path5" />
        <path
           class="cls-1"
           d="m 307.94,151.27 34.42,-20.9 c -0.24,-3.28 -0.85,-6.57 -1.89,-9.61 l -34.11,28.05 c 0.59,0.77 1.12,1.59 1.58,2.46 z"
           id="path6" />
        <path
           class="cls-1"
           d="m 290.46,181.5 c -1.31,0.14 -2.59,0.14 -3.83,0.03 l -5.37,27.52 c 3.81,3.13 6.75,5.85 7.97,8.32 1.41,-4.18 4.98,-8.93 9.64,-14.21 l -4.56,-22.44 c -1.24,0.38 -2.52,0.64 -3.84,0.78 z"
           id="path7" />
        <path
           class="cls-1"
           d="m 310,159.83 c 0,0.66 -0.03,1.31 -0.1,1.96 l 23.93,-0.12 c 1.88,-3.16 3.53,-6.39 4.87,-9.71 l -28.8,5.93 c 0.06,0.64 0.1,1.28 0.1,1.94 z"
           id="path8" />
        <path
           class="cls-1"
           d="m 272.97,172.51 -18.48,11.23 c 1.16,1.63 2.4,3.2 3.69,4.7 l 16.37,-13.47 c -0.59,-0.77 -1.12,-1.59 -1.58,-2.46 z"
           id="path9" />
        <path
           class="cls-1"
           d="m 306.36,171.62 13.82,8.45 c 1.36,-1.57 2.71,-3.17 4.03,-4.79 l -16.27,-6.45 c -0.46,0.97 -0.99,1.9 -1.58,2.79 z"
           id="path10" />
        <path
           d="m 328.12,97.88 c -13.42,0 -29.29,9.91 -38.89,26.38 -2.59,-5.95 -11.83,-12.43 -22.8,-12.43 -8.84,0 -33.67,11.05 -33.67,46.73 0,46.05 46.59,55.51 56.01,69.82 0.65,0.99 2.73,1.73 3.53,-0.62 7.51,-22.18 65.79,-47.24 65.79,-92.37 0,-25.31 -16.53,-37.51 -29.95,-37.51 z m -82.64,58.55 c 0.05,-4.43 0.45,-8.39 1.12,-11.92 0.57,-2.99 1.34,-5.67 2.25,-8.06 4.92,-12.92 14.11,-17.46 19.86,-17.46 7.53,0 12.1,3.84 14.54,7.53 1.21,1.84 1.91,3.63 2.16,4.9 0.76,3.81 5.03,6.86 6.4,0.61 0.54,-2.48 2.97,-6.97 6.7,-11.5 5.68,-6.88 14.42,-13.82 24.26,-13.82 9.84,0 15,6.18 17.69,14.04 1.04,3.04 1.65,6.33 1.89,9.61 0.12,1.63 0.15,3.27 0.1,4.86 -0.2,5.77 -1.57,11.35 -3.75,16.73 -1.34,3.31 -2.99,6.55 -4.87,9.71 -2.8,4.72 -6.1,9.25 -9.63,13.6 -1.32,1.62 -2.66,3.22 -4.03,4.79 -7.4,8.52 -15.28,16.25 -21.33,23.09 -4.66,5.28 -8.23,10.03 -9.64,14.21 -1.22,-2.47 -4.16,-5.19 -7.97,-8.32 -6.55,-5.39 -15.68,-11.99 -23.07,-20.61 -1.29,-1.5 -2.53,-3.07 -3.69,-4.7 -2.81,-3.94 -5.17,-8.27 -6.77,-13.05 -0.91,-2.71 -1.57,-5.56 -1.93,-8.57 -0.22,-1.84 -0.33,-3.73 -0.31,-5.69 z"
           id="path11" />
      </g>
    </g>
  </g>
</svg>
