<?xml version="1.0" encoding="UTF-8" standalone="no"?>
<svg
   id="LOGO_LAYER"
   viewBox="0 0 125.34375 131.44334"
   version="1.1"
   sodipodi:docname="ESC-HEART-ISRAEL-BLACK.svg"
   width="125.34375"
   height="131.44334"
   xmlns:inkscape="http://www.inkscape.org/namespaces/inkscape"
   xmlns:sodipodi="http://sodipodi.sourceforge.net/DTD/sodipodi-0.dtd"
   xmlns="http://www.w3.org/2000/svg"
   xmlns:svg="http://www.w3.org/2000/svg">
  <sodipodi:namedview
     id="namedview10"
     pagecolor="#ffffff"
     bordercolor="#cccccc"
     borderopacity="1"
     inkscape:showpageshadow="0"
     inkscape:pageopacity="1"
     inkscape:pagecheckerboard="0"
     inkscape:deskcolor="#d1d1d1" />
  <defs
     id="defs1">
    <style
       id="style1">.cls-1{fill:#f9f9f9;}.cls-2{fill:#0235b9;}</style>
  </defs>
  <g
     id="LOGO_GROUP"
     transform="translate(-232.75178,-97.88034)">
    <g
       id="SELECT_FLAG_HERE">
      <g
         id="BLACK_FLAG">
        <polygon
           class="cls-1"
           points="277.1,157.1 279.79,161.58 282.48,156.52 "
           id="polygon1" />
        <polygon
           class="cls-1"
           points="285.85,156.16 281.48,164.4 285.85,171.69 294.61,170.75 298.98,162.51 294.61,155.21 "
           id="polygon2" />
        <path
           class="cls-1"
           d="m 322.79,106.72 c -10.21,0 -19.23,7.46 -24.88,14.58 l 40.93,-4.41 c -3.06,-5.93 -8.21,-10.17 -16.05,-10.17 z"
           id="path2" />
        <polygon
           class="cls-1"
           points="287.54,152.98 292.92,152.4 290.23,147.92 "
           id="polygon3" />
        <path
           class="cls-1"
           d="m 280.36,123.19 c -2.65,-2.35 -6.44,-4.2 -11.65,-4.2 -3.77,0 -9.01,1.94 -13.56,6.91 z"
           id="path3" />
        <path
           class="cls-1"
           d="m 245.48,156.43 c -0.17,15.03 7.18,26.5 15.94,35.56 l 53.21,-5.73 c 13.44,-14.56 27.17,-31.74 27.83,-51.02 0.03,-0.94 0.03,-1.88 0,-2.84 l -95.47,10.28 c -0.9,3.97 -1.45,8.53 -1.51,13.75 z m 38.69,-3.08 6.06,-11.41 6.06,10.11 12.12,-1.31 -6.06,11.41 6.06,10.11 -12.12,1.31 -6.06,11.41 -6.06,-10.11 -12.12,1.31 6.06,-11.41 -6.06,-10.11 z"
           id="path4" />
        <polygon
           class="cls-1"
           points="292.92,173.92 287.54,174.5 290.23,178.99 "
           id="polygon4" />
        <polygon
           class="cls-1"
           points="282.48,172.05 279.79,167.57 277.1,172.63 "
           id="polygon5" />
        <polygon
           class="cls-1"
           points="297.98,154.85 300.67,159.34 303.36,154.27 "
           id="polygon6" />
        <path
           class="cls-1"
           d="m 289.22,217.37 c 1.34,-3.98 4.64,-8.48 8.97,-13.45 l -20.55,2.21 c 5.52,4.4 10,8.03 11.58,11.23 z"
           id="path6" />
        <polygon
           class="cls-1"
           points="303.36,169.81 300.67,165.32 297.98,170.38 "
           id="polygon7" />
        <path
           class="cls-2"
           d="m 246.99,142.68 95.47,-10.28 c -0.15,-5.39 -1.27,-10.94 -3.62,-15.5 l -40.93,4.41 c -3.38,4.26 -5.56,8.39 -6.08,10.73 -1.37,6.25 -5.64,3.2 -6.4,-0.61 -0.41,-2.05 -1.96,-5.49 -5.06,-8.23 l -25.21,2.71 c -3.42,3.73 -6.44,9.17 -8.17,16.77 z"
           id="path7" />
        <path
           class="cls-2"
           d="m 277.64,206.14 20.55,-2.21 c 4.66,-5.35 10.52,-11.25 16.44,-17.66 L 261.42,192 c 5.34,5.53 11.21,10.15 16.22,14.15 z"
           id="path8" />
        <path
           class="cls-2"
           d="m 272.04,176.17 12.12,-1.31 6.06,10.11 6.06,-11.41 12.12,-1.31 -6.06,-10.11 6.06,-11.41 -12.12,1.31 -6.06,-10.11 -6.06,11.41 -12.12,1.31 6.06,10.11 z m 5.06,-3.54 2.69,-5.06 2.69,4.48 z m 13.13,6.35 -2.69,-4.48 5.38,-0.58 z m 13.13,-9.18 -5.38,0.58 2.69,-5.06 z m 0,-15.53 -2.69,5.06 -2.69,-4.48 z m -13.13,-6.35 2.69,4.48 -5.38,0.58 z m -4.38,8.24 8.75,-0.94 4.37,7.3 -4.37,8.24 -8.75,0.94 -4.37,-7.3 z m -8.75,0.94 5.38,-0.58 -2.69,5.06 z"
           id="path9" />
        <path
           d="m 328.12,97.88 c -13.42,0 -29.29,9.91 -38.89,26.38 -2.59,-5.95 -11.83,-12.43 -22.8,-12.43 -8.84,0 -33.67,11.05 -33.67,46.73 0,46.05 46.59,55.51 56.01,69.82 0.65,0.99 2.73,1.73 3.53,-0.62 7.51,-22.18 65.79,-47.24 65.79,-92.37 0,-25.31 -16.53,-37.51 -29.95,-37.51 z M 268.71,119 c 5.21,0 8.99,1.84 11.65,4.2 3.09,2.74 4.65,6.18 5.06,8.23 0.76,3.81 5.03,6.86 6.4,0.61 0.51,-2.34 2.7,-6.47 6.08,-10.73 5.66,-7.12 14.68,-14.58 24.88,-14.58 7.84,0 12.99,4.25 16.05,10.17 2.36,4.56 3.47,10.11 3.62,15.5 0.03,0.95 0.03,1.9 0,2.84 -0.66,19.29 -14.39,36.47 -27.83,51.02 -5.92,6.41 -11.78,12.32 -16.44,17.66 -4.33,4.97 -7.63,9.47 -8.97,13.45 -1.59,-3.21 -6.07,-6.84 -11.58,-11.23 -5.01,-3.99 -10.88,-8.62 -16.22,-14.15 -8.76,-9.06 -16.1,-20.53 -15.94,-35.56 0.06,-5.22 0.61,-9.78 1.51,-13.75 1.72,-7.6 4.75,-13.04 8.17,-16.77 4.55,-4.97 9.79,-6.91 13.56,-6.91 z"
           id="path10" />
      </g>
    </g>
  </g>
</svg>
