<?xml version="1.0" encoding="UTF-8" standalone="no"?>
<svg
   id="LOGO_LAYER"
   viewBox="0 0 125.34375 131.44334"
   version="1.1"
   sodipodi:docname="ESC-HEART-CZECHIA-BLACK.svg"
   width="125.34375"
   height="131.44334"
   xmlns:inkscape="http://www.inkscape.org/namespaces/inkscape"
   xmlns:sodipodi="http://sodipodi.sourceforge.net/DTD/sodipodi-0.dtd"
   xmlns="http://www.w3.org/2000/svg"
   xmlns:svg="http://www.w3.org/2000/svg">
  <sodipodi:namedview
     id="namedview4"
     pagecolor="#ffffff"
     bordercolor="#cccccc"
     borderopacity="1"
     inkscape:showpageshadow="0"
     inkscape:pageopacity="1"
     inkscape:pagecheckerboard="0"
     inkscape:deskcolor="#d1d1d1" />
  <defs
     id="defs1">
    <style
       id="style1">.cls-1{fill:#f9f9f9;}.cls-2{fill:#d7141a;}.cls-3{fill:#11457e;}</style>
  </defs>
  <g
     id="LOGO_GROUP"
     transform="translate(-232.75178,-97.88034)">
    <g
       id="SELECT_FLAG_HERE">
      <g
         id="BLACK_FLAG">
        <path
           class="cls-2"
           d="m 258.04,188.27 c 11.71,13.74 27.85,22.35 31.18,29.1 4.81,-14.3 34.85,-35.23 47.58,-61.14 l -43.12,4.53 z"
           id="path1" />
        <path
           class="cls-1"
           d="m 322.79,106.72 c -16.31,0 -29.59,19.06 -30.96,25.31 -1.37,6.25 -5.64,3.2 -6.4,-0.61 -0.76,-3.81 -5.42,-12.43 -16.71,-12.43 -5.65,0 -14.6,4.38 -19.58,16.75 l 44.55,25.02 v 0 c 0,0 43.12,-4.53 43.12,-4.53 3.28,-6.68 5.41,-13.68 5.66,-20.99 0.45,-13.11 -4.73,-28.52 -19.67,-28.52 z"
           id="path2" />
        <path
           class="cls-3"
           d="m 293.68,160.76 -44.55,-25.02 c -2.14,5.32 -3.56,12.11 -3.65,20.68 -0.14,13.05 5.37,23.41 12.56,31.84 l 35.64,-27.51 v 0 z"
           id="path3" />
        <path
           d="m 328.12,97.88 c -13.42,0 -29.29,9.91 -38.89,26.38 -2.59,-5.95 -11.83,-12.43 -22.8,-12.43 -8.84,0 -33.67,11.05 -33.67,46.73 0,46.05 46.59,55.51 56.01,69.82 0.65,0.99 2.73,1.73 3.53,-0.62 7.51,-22.18 65.79,-47.24 65.79,-92.37 0,-25.31 -16.53,-37.51 -29.95,-37.51 z m 14.33,37.36 c -0.25,7.31 -2.38,14.32 -5.66,20.99 -12.72,25.91 -42.77,46.84 -47.58,61.14 -3.34,-6.75 -19.48,-15.36 -31.18,-29.1 -7.18,-8.43 -12.7,-18.79 -12.56,-31.84 0.1,-8.57 1.51,-15.36 3.65,-20.68 4.98,-12.37 13.93,-16.75 19.58,-16.75 11.28,0 15.94,8.61 16.71,12.43 0.76,3.81 5.03,6.86 6.4,0.61 1.37,-6.25 14.65,-25.31 30.96,-25.31 14.94,0 20.12,15.41 19.67,28.52 z"
           id="path4" />
      </g>
    </g>
  </g>
</svg>
