<?xml version="1.0" encoding="UTF-8" standalone="no"?>
<svg
   id="LOGO_LAYER"
   viewBox="0 0 125.34375 131.44334"
   version="1.1"
   sodipodi:docname="ESC-HEART-SLOVENIA-BLACK.svg"
   width="125.34375"
   height="131.44334"
   xmlns:inkscape="http://www.inkscape.org/namespaces/inkscape"
   xmlns:sodipodi="http://sodipodi.sourceforge.net/DTD/sodipodi-0.dtd"
   xmlns="http://www.w3.org/2000/svg"
   xmlns:svg="http://www.w3.org/2000/svg">
  <sodipodi:namedview
     id="namedview10"
     pagecolor="#ffffff"
     bordercolor="#cccccc"
     borderopacity="1"
     inkscape:showpageshadow="0"
     inkscape:pageopacity="1"
     inkscape:pagecheckerboard="0"
     inkscape:deskcolor="#d1d1d1" />
  <defs
     id="defs1">
    <style
       id="style1">.cls-1{fill:#f9f9f9;}.cls-2{fill:blue;}.cls-3{fill:#ff0;}.cls-4{fill:red;}</style>
  </defs>
  <g
     id="LOGO_GROUP"
     transform="translate(-232.75178,-97.88034)">
    <g
       id="SELECT_FLAG_HERE">
      <g
         id="BLACK_FLAG">
        <path
           class="cls-1"
           d="m 322.79,106.72 c -16.31,0 -29.59,19.06 -30.96,25.31 -1.37,6.25 -5.64,3.2 -6.4,-0.61 -0.76,-3.81 -5.42,-12.43 -16.71,-12.43 -7.01,0 -19.1,6.73 -22.39,27.12 l 10.18,-1.07 c -0.17,-2.27 -0.32,-4.35 -0.42,-5.52 l 1.07,-0.67 c 6.9,-3.73 15.49,-4.93 22.99,-2.59 0,0 1.01,0.4 1.07,0.43 -0.1,1.23 -0.26,3.42 -0.43,5.8 l 61.64,-6.48 c 0.01,-0.26 0.03,-0.52 0.04,-0.79 0.45,-13.11 -4.73,-28.52 -19.67,-28.52 z"
           id="path1" />
        <path
           class="cls-2"
           d="m 280.24,149.91 c -0.1,1.37 -0.17,2.38 -0.2,2.72 -1.27,8.93 -9.38,14.28 -11.4,14.5 -2.02,0.23 -10.13,-3.29 -11.4,-11.94 -0.03,-0.33 -0.1,-1.33 -0.2,-2.67 -0.15,-2.04 -0.36,-4.88 -0.55,-7.47 l -10.18,1.07 c -0.5,3.11 -0.8,6.53 -0.85,10.31 -0.13,11.39 4.06,20.73 9.9,28.53 l 66.61,-7 c 10.5,-12.44 19.61,-26.51 20.42,-41.93 l -61.64,6.48 c -0.19,2.59 -0.39,5.39 -0.53,7.42 z"
           id="path2" />
        <path
           class="cls-4"
           d="m 289.22,217.37 c 3.38,-10.05 19.23,-23.38 32.77,-39.42 l -66.61,7 c 11.76,15.7 30.24,25.14 33.84,32.41 z"
           id="path3" />
        <path
           class="cls-4"
           d="m 257.25,155.19 c 1.27,8.65 9.38,12.17 11.4,11.94 2.02,-0.23 10.13,-5.57 11.4,-14.5 0.03,-0.34 0.1,-1.35 0.2,-2.72 0.15,-2.02 0.35,-4.83 0.53,-7.42 0.17,-2.38 0.33,-4.57 0.43,-5.8 -0.05,-0.02 -1.07,-0.43 -1.07,-0.43 -0.28,3.47 -0.99,14.64 -1.09,15.95 -0.99,8.66 -8.38,13.76 -10.4,13.98 -2.02,0.23 -9.41,-3.2 -10.4,-11.64 -0.1,-1.29 -0.82,-12.3 -1.09,-15.71 l -1.07,0.67 c 0.09,1.17 0.25,3.25 0.42,5.52 0.19,2.59 0.4,5.44 0.55,7.47 0.1,1.34 0.17,2.34 0.2,2.67 z"
           id="path4" />
        <path
           class="cls-2"
           d="m 268.65,166.21 c 2.02,-0.22 9.41,-5.32 10.4,-13.98 0.1,-1.31 0.81,-12.49 1.09,-15.95 -7.49,-2.35 -16.09,-1.14 -22.99,2.59 0.27,3.41 0.99,14.41 1.09,15.71 0.99,8.44 8.38,11.87 10.4,11.64 z m 0,-0.92 c -1.22,0.14 -4.18,-1.17 -6.48,-3.81 1.26,-0.34 1.44,-1.22 3.02,-1.4 1.75,-0.2 1.79,0.85 3.46,0.71 1.67,-0.23 1.71,-1.29 3.46,-1.49 1.56,-0.18 1.76,0.64 2.98,0.72 -2.29,3.15 -5.23,5.13 -6.44,5.27 z m 7.04,-6.15 c 0,0 0,0 0,0 -1.79,0.2 -1.79,-0.9 -3.57,-0.7 -1.75,0.2 -1.79,1.25 -3.46,1.49 -1.67,0.14 -1.71,-0.9 -3.46,-0.71 -1.79,0.2 -1.79,1.3 -3.57,1.5 -0.02,0 -0.04,0 -0.05,0 -0.2,-0.27 -0.4,-0.55 -0.58,-0.84 0.19,0 0.39,0 0.63,-0.02 1.79,-0.2 1.79,-1.3 3.57,-1.5 1.75,-0.2 1.79,0.85 3.46,0.71 1.67,-0.23 1.71,-1.29 3.46,-1.49 1.79,-0.2 1.79,0.9 3.57,0.7 0.22,-0.03 0.41,-0.06 0.58,-0.11 -0.18,0.33 -0.38,0.65 -0.58,0.97 z m -4.53,-22.12 0.72,0.06 0.24,-0.73 0.24,0.67 0.72,-0.22 -0.48,0.61 0.48,0.51 -0.72,-0.06 -0.24,0.73 -0.24,-0.67 -0.72,0.22 0.49,-0.61 -0.49,-0.5 z m -3.47,5.04 0.72,0.06 0.24,-0.73 0.24,0.67 0.72,-0.22 -0.49,0.61 0.49,0.5 -0.72,-0.06 -0.24,0.73 -0.24,-0.67 -0.72,0.22 0.48,-0.61 z m -3.47,-4.21 0.72,0.06 0.24,-0.73 0.24,0.67 0.72,-0.22 -0.48,0.61 0.48,0.51 -0.72,-0.06 -0.24,0.73 -0.24,-0.67 -0.72,0.22 0.48,-0.61 -0.48,-0.5 z M 264,149.26 c 0.09,-0.08 1.87,2.24 1.87,2.17 0.02,0.11 2.84,-5.95 2.84,-5.95 0.05,-0.12 2.2,4.88 2.7,5.35 0.5,-0.54 1.8,-2.74 1.89,-2.68 0.66,0.89 4.56,5.78 4.58,5.72 -0.23,1.13 -0.6,2.21 -1.06,3.22 -0.3,0.16 -0.65,0.29 -1.14,0.34 -1.79,0.2 -1.79,-0.9 -3.57,-0.7 -1.75,0.2 -1.79,1.25 -3.46,1.49 -1.67,0.14 -1.71,-0.9 -3.46,-0.71 -1.79,0.2 -1.79,1.3 -3.57,1.5 -0.52,0.06 -0.89,0 -1.19,-0.1 -0.45,-0.89 -0.81,-1.87 -1.04,-2.94 0,0 3.92,-5.78 4.61,-6.7 z"
           id="path5" />
        <path
           class="cls-1"
           d="m 272.11,159.31 c -1.75,0.2 -1.79,1.25 -3.46,1.49 -1.67,0.14 -1.71,-0.9 -3.46,-0.71 -1.58,0.18 -1.76,1.06 -3.02,1.4 2.3,2.64 5.26,3.95 6.48,3.81 1.21,-0.14 4.15,-2.12 6.44,-5.27 -1.22,-0.07 -1.42,-0.89 -2.98,-0.72 z"
           id="path6" />
        <path
           class="cls-1"
           d="m 272.11,157.59 c -1.75,0.2 -1.79,1.25 -3.46,1.49 -1.67,0.14 -1.71,-0.9 -3.46,-0.71 -1.79,0.2 -1.79,1.3 -3.57,1.5 -0.24,0.03 -0.45,0.03 -0.63,0.02 0.19,0.29 0.38,0.57 0.58,0.84 0.02,0 0.03,0 0.05,0 1.79,-0.2 1.79,-1.3 3.57,-1.5 1.75,-0.2 1.79,0.85 3.46,0.71 1.67,-0.23 1.71,-1.29 3.46,-1.49 1.79,-0.2 1.79,0.9 3.57,0.7 0,0 0,0 0,0 0.2,-0.31 0.39,-0.64 0.58,-0.97 -0.17,0.05 -0.36,0.08 -0.58,0.11 -1.79,0.2 -1.79,-0.9 -3.57,-0.7 z"
           id="path7" />
        <path
           class="cls-1"
           d="m 261.62,159.01 c 1.79,-0.2 1.79,-1.3 3.57,-1.5 1.75,-0.2 1.79,0.85 3.46,0.71 1.67,-0.23 1.71,-1.29 3.46,-1.49 1.79,-0.2 1.79,0.9 3.57,0.7 0.49,-0.05 0.84,-0.18 1.14,-0.34 0.46,-1.01 0.83,-2.09 1.06,-3.22 -0.01,0.07 -3.92,-4.83 -4.58,-5.72 -0.09,-0.06 -1.39,2.15 -1.89,2.68 -0.5,-0.47 -2.65,-5.47 -2.7,-5.35 0,0 -2.82,6.06 -2.84,5.95 0,0.07 -1.78,-2.25 -1.87,-2.17 -0.69,0.92 -4.61,6.7 -4.61,6.7 0.22,1.07 0.58,2.05 1.04,2.94 0.31,0.11 0.67,0.16 1.19,0.1 z"
           id="path8" />
        <polygon
           class="cls-3"
           points="269.13,142.46 269.61,141.85 268.89,142.07 268.65,141.4 268.41,142.13 267.69,142.07 268.17,142.57 267.69,143.18 268.41,142.96 268.65,143.63 268.89,142.9 269.61,142.96 "
           id="polygon8" />
        <polygon
           class="cls-3"
           points="265.66,138.25 266.14,137.64 265.42,137.86 265.18,137.19 264.94,137.91 264.21,137.85 264.7,138.36 264.21,138.97 264.94,138.75 265.18,139.42 265.42,138.69 266.14,138.75 "
           id="polygon9" />
        <polygon
           class="cls-3"
           points="272.6,137.42 273.09,136.8 272.36,137.03 272.12,136.35 271.88,137.08 271.16,137.02 271.65,137.53 271.16,138.14 271.88,137.91 272.12,138.59 272.36,137.86 273.09,137.92 "
           id="polygon10" />
        <path
           d="m 328.12,97.88 c -13.42,0 -29.29,9.91 -38.89,26.38 -2.59,-5.95 -11.83,-12.43 -22.8,-12.43 -8.84,0 -33.67,11.05 -33.67,46.73 0,46.05 46.59,55.51 56.01,69.82 0.65,0.99 2.73,1.73 3.53,-0.62 7.51,-22.18 65.79,-47.24 65.79,-92.37 0,-25.31 -16.53,-37.51 -29.95,-37.51 z m 14.33,37.36 c 0,0.26 -0.03,0.52 -0.04,0.79 -0.81,15.43 -9.92,29.49 -20.42,41.93 -13.54,16.03 -29.39,29.36 -32.77,39.42 -3.6,-7.28 -22.08,-16.72 -33.84,-32.41 -5.84,-7.8 -10.03,-17.14 -9.9,-28.53 0.04,-3.77 0.34,-7.2 0.85,-10.31 3.29,-20.4 15.38,-27.12 22.39,-27.12 11.28,0 15.94,8.61 16.71,12.43 0.76,3.81 5.03,6.86 6.4,0.61 1.37,-6.25 14.65,-25.31 30.96,-25.31 14.94,0 20.12,15.41 19.67,28.52 z"
           id="path10" />
      </g>
    </g>
  </g>
</svg>
