<?xml version="1.0" encoding="UTF-8" standalone="no"?>
<svg
   id="LOGO_LAYER"
   viewBox="0 0 125.34375 131.44334"
   version="1.1"
   sodipodi:docname="ESC-HEART-GREECE-BLACK.svg"
   width="125.34375"
   height="131.44334"
   xmlns:inkscape="http://www.inkscape.org/namespaces/inkscape"
   xmlns:sodipodi="http://sodipodi.sourceforge.net/DTD/sodipodi-0.dtd"
   xmlns="http://www.w3.org/2000/svg"
   xmlns:svg="http://www.w3.org/2000/svg">
  <sodipodi:namedview
     id="namedview12"
     pagecolor="#ffffff"
     bordercolor="#cccccc"
     borderopacity="1"
     inkscape:showpageshadow="0"
     inkscape:pageopacity="1"
     inkscape:pagecheckerboard="0"
     inkscape:deskcolor="#d1d1d1" />
  <defs
     id="defs1">
    <style
       id="style1">.cls-1{fill:#f9f9f9;}.cls-2{fill:#0d5eaf;}</style>
  </defs>
  <g
     id="LOGO_GROUP"
     transform="translate(-232.75178,-97.88034)">
    <g
       id="SELECT_FLAG_HERE">
      <g
         id="BLACK_FLAG">
        <path
           class="cls-1"
           d="m 278.97,207.2 18.04,-1.92 c 3.35,-3.96 7.44,-8.23 11.77,-12.81 l -42.2,4.48 c 4.29,3.86 8.63,7.24 12.38,10.24 z"
           id="path1" />
        <path
           class="cls-1"
           d="m 272.67,173.2 v -23.11 l 22.86,-2.43 v -11.55 l -22.86,2.43 v -19.15 c -1.22,-0.25 -2.54,-0.39 -3.96,-0.39 -2.15,0 -4.77,0.64 -7.47,2.1 v 18.66 l -13.9,1.48 c -0.89,3.43 -1.5,7.33 -1.74,11.74 l 15.64,-1.66 v 23.11 l -11.52,1.22 c 1.85,3.92 4.2,7.52 6.84,10.83 l 63.97,-6.8 c 3.48,-4.03 6.84,-8.23 9.85,-12.6 l -34.83,3.7 -22.86,2.43 z"
           id="path2" />
        <path
           class="cls-1"
           d="m 295.54,159.22 41.96,-4.46 c 1.8,-3.89 3.19,-7.88 4.04,-11.99 l -45.99,4.89 v 11.56 z"
           id="path3" />
        <path
           class="cls-1"
           d="m 295.54,124.55 v 11.56 l 46.87,-4.98 c -0.22,-3.88 -0.95,-7.79 -2.28,-11.31 l -44.59,4.74 z"
           id="path4" />
        <path
           class="cls-2"
           d="m 266.59,196.96 42.2,-4.48 c 3.83,-4.04 7.85,-8.31 11.73,-12.8 l -63.97,6.8 c 3.08,3.87 6.54,7.34 10.04,10.49 z"
           id="path5" />
        <path
           class="cls-2"
           d="m 289.22,217.37 c 1.22,-3.61 4.04,-7.65 7.8,-12.08 l -18.04,1.92 c 4.9,3.92 8.79,7.22 10.25,10.17 z"
           id="path6" />
        <path
           class="cls-2"
           d="m 261.24,121.09 c -5.37,2.9 -11.04,9.09 -13.9,20.13 l 13.9,-1.48 v -18.66 z"
           id="path7" />
        <path
           class="cls-2"
           d="m 261.24,151.31 -15.64,1.66 c -0.06,1.12 -0.11,2.27 -0.12,3.46 -0.08,7.18 1.56,13.54 4.24,19.21 l 11.52,-1.22 z"
           id="path8" />
        <path
           class="cls-2"
           d="m 295.54,136.11 v -11.56 l 44.59,-4.74 c -2.8,-7.4 -8.26,-13.09 -17.34,-13.09 -16.31,0 -29.59,19.06 -30.96,25.31 -1.37,6.25 -5.64,3.2 -6.4,-0.61 -0.67,-3.33 -4.31,-10.33 -12.75,-12.04 v 19.15 l 22.86,-2.43 z"
           id="path9" />
        <path
           class="cls-2"
           d="m 295.54,147.66 -22.86,2.43 v 23.11 l 22.86,-2.43 34.83,-3.7 c 2.73,-3.97 5.17,-8.08 7.12,-12.31 l -41.96,4.46 v -11.56 z"
           id="path10" />
        <path
           class="cls-2"
           d="m 295.54,147.66 45.99,-4.89 c 0.51,-2.48 0.84,-4.99 0.92,-7.54 0.05,-1.35 0.03,-2.73 -0.05,-4.11 l -46.87,4.98 v 11.55 z"
           id="path11" />
        <path
           d="m 328.12,97.88 c -13.42,0 -29.29,9.91 -38.89,26.38 -2.59,-5.95 -11.83,-12.43 -22.8,-12.43 -8.84,0 -33.67,11.05 -33.67,46.73 0,46.05 46.59,55.51 56.01,69.82 0.65,0.99 2.73,1.73 3.53,-0.62 7.51,-22.18 65.79,-47.24 65.79,-92.37 0,-25.31 -16.53,-37.51 -29.95,-37.51 z m 14.33,37.36 c -0.09,2.55 -0.41,5.06 -0.92,7.54 -0.85,4.1 -2.24,8.1 -4.04,11.99 -1.96,4.24 -4.39,8.34 -7.12,12.31 -3.01,4.37 -6.37,8.57 -9.85,12.6 -3.88,4.49 -7.9,8.76 -11.73,12.8 -4.34,4.57 -8.42,8.85 -11.77,12.81 -3.75,4.43 -6.58,8.47 -7.8,12.08 -1.46,-2.94 -5.35,-6.24 -10.25,-10.17 -3.75,-3.01 -8.09,-6.38 -12.38,-10.24 -3.5,-3.15 -6.96,-6.62 -10.04,-10.49 -2.64,-3.31 -4.99,-6.91 -6.84,-10.83 -2.68,-5.68 -4.32,-12.04 -4.24,-19.21 0.01,-1.19 0.06,-2.34 0.12,-3.46 0.25,-4.41 0.86,-8.31 1.74,-11.74 2.85,-11.04 8.52,-17.23 13.9,-20.13 2.7,-1.46 5.33,-2.1 7.47,-2.1 1.42,0 2.74,0.14 3.96,0.39 8.44,1.71 12.08,8.71 12.75,12.04 0.76,3.81 5.03,6.86 6.4,0.61 1.37,-6.25 14.65,-25.31 30.96,-25.31 9.08,0 14.55,5.69 17.34,13.09 1.33,3.53 2.06,7.44 2.28,11.31 0.08,1.38 0.1,2.76 0.05,4.11 z"
           id="path12" />
      </g>
    </g>
  </g>
</svg>
