<?xml version="1.0" encoding="UTF-8" standalone="no"?>
<svg
   id="LOGO_LAYER"
   viewBox="0 0 125.33 131.44291"
   version="1.1"
   sodipodi:docname="ESC-HEART-ARMENIA-BLACK.svg"
   inkscape:export-filename="ESC-HEART-ARMENIA-BLACK.svg"
   inkscape:export-xdpi="96"
   inkscape:export-ydpi="96"
   inkscape:version="1.3 (0e150ed6c4, 2023-07-21)"
   width="125.33"
   height="131.44292"
   xmlns:inkscape="http://www.inkscape.org/namespaces/inkscape"
   xmlns:sodipodi="http://sodipodi.sourceforge.net/DTD/sodipodi-0.dtd"
   xmlns="http://www.w3.org/2000/svg"
   xmlns:svg="http://www.w3.org/2000/svg">
  <sodipodi:namedview
     id="namedview4"
     pagecolor="#ffffff"
     bordercolor="#cccccc"
     borderopacity="1"
     inkscape:showpageshadow="0"
     inkscape:pageopacity="1"
     inkscape:pagecheckerboard="0"
     inkscape:deskcolor="#d1d1d1"
     inkscape:zoom="0.437022"
     inkscape:cx="288.315"
     inkscape:cy="140.72518"
     inkscape:window-width="1366"
     inkscape:window-height="705"
     inkscape:window-x="1912"
     inkscape:window-y="113"
     inkscape:window-maximized="1"
     inkscape:current-layer="LOGO_LAYER" />
  <defs
     id="defs1">
    <style
       id="style1">.cls-1{fill:#0054a6;}.cls-2{fill:#f7941e;}.cls-3{fill:#ed1b35;}</style>
  </defs>
  <g
     id="LOGO_GROUP"
     transform="translate(-232.76,-97.88)">
    <g
       id="SELECT_FLAG_HERE">
      <g
         id="BLACK_FLAG">
        <path
           class="cls-3"
           d="m 322.79,106.72 c -16.31,0 -29.59,19.06 -30.96,25.31 -1.37,6.25 -5.64,3.2 -6.4,-0.61 -0.76,-3.81 -5.42,-12.43 -16.71,-12.43 -7.04,0 -19.22,6.79 -22.44,27.42 l 96.12,-10.1 c 0.02,-0.36 0.05,-0.71 0.06,-1.07 0.45,-13.11 -4.73,-28.52 -19.67,-28.52 z"
           id="path1" />
        <path
           class="cls-1"
           d="m 245.48,156.43 c -0.13,11.52 4.16,20.94 10.1,28.79 l 66.14,-6.95 c 10.55,-12.44 19.75,-26.52 20.67,-41.96 l -96.12,10.1 c -0.47,3.03 -0.76,6.36 -0.8,10.02 z"
           id="path2" />
        <path
           class="cls-2"
           d="m 289.22,217.37 c 3.36,-9.99 19.03,-23.21 32.51,-39.1 l -66.14,6.95 c 11.77,15.54 30.06,24.91 33.64,32.15 z"
           id="path3" />
        <path
           d="m 328.12,97.88 c -13.42,0 -29.29,9.91 -38.89,26.38 -2.59,-5.95 -11.83,-12.43 -22.8,-12.43 -8.84,0 -33.67,11.05 -33.67,46.73 0,46.05 46.59,55.51 56.01,69.82 0.65,0.99 2.73,1.73 3.53,-0.62 7.51,-22.18 65.79,-47.24 65.79,-92.37 0,-25.31 -16.53,-37.51 -29.95,-37.51 z m 14.33,37.36 c -0.01,0.36 -0.04,0.72 -0.06,1.07 -0.92,15.44 -10.12,29.52 -20.67,41.96 -13.48,15.89 -29.15,29.12 -32.51,39.1 -3.58,-7.24 -21.87,-16.61 -33.64,-32.15 -5.95,-7.85 -10.23,-17.27 -10.1,-28.79 0.04,-3.66 0.32,-6.98 0.8,-10.02 3.22,-20.63 15.39,-27.42 22.44,-27.42 11.28,0 15.94,8.61 16.71,12.43 0.76,3.81 5.03,6.86 6.4,0.61 1.37,-6.25 14.65,-25.31 30.96,-25.31 14.94,0 20.12,15.41 19.67,28.52 z"
           id="path4" />
      </g>
    </g>
  </g>
</svg>
