<?xml version="1.0" encoding="UTF-8" standalone="no"?>
<svg
   id="LOGO_LAYER"
   viewBox="0 0 125.34375 131.44334"
   version="1.1"
   sodipodi:docname="ESC-HEART-DENMARK-BLACK.svg"
   width="125.34375"
   height="131.44334"
   xmlns:inkscape="http://www.inkscape.org/namespaces/inkscape"
   xmlns:sodipodi="http://sodipodi.sourceforge.net/DTD/sodipodi-0.dtd"
   xmlns="http://www.w3.org/2000/svg"
   xmlns:svg="http://www.w3.org/2000/svg">
  <sodipodi:namedview
     id="namedview6"
     pagecolor="#ffffff"
     bordercolor="#cccccc"
     borderopacity="1"
     inkscape:showpageshadow="0"
     inkscape:pageopacity="1"
     inkscape:pagecheckerboard="0"
     inkscape:deskcolor="#d1d1d1" />
  <defs
     id="defs1">
    <style
       id="style1">.cls-1{fill:#f9f9f9;}.cls-2{fill:#c60c30;}</style>
  </defs>
  <g
     id="LOGO_GROUP"
     transform="translate(-232.75178,-97.88034)">
    <g
       id="SELECT_FLAG_HERE">
      <g
         id="BLACK_FLAG">
        <path
           class="cls-2"
           d="m 288.38,215.99 c 0.33,0.47 0.62,0.93 0.84,1.38 4.17,-12.4 27.34,-29.8 41.71,-51.12 l -42.55,4.47 z"
           id="path1" />
        <path
           class="cls-2"
           d="m 249.34,174.83 c 5.28,11.76 15.09,20.62 23.73,27.65 v -30.14 z"
           id="path2" />
        <path
           class="cls-2"
           d="m 322.79,106.72 c -16.31,0 -29.59,19.06 -30.96,25.31 -0.69,3.13 -2.1,3.93 -3.44,3.46 v 19.92 l 51.06,-5.37 c 1.75,-4.79 2.84,-9.73 3.01,-14.81 0.45,-13.11 -4.73,-28.52 -19.67,-28.52 z"
           id="path3" />
        <path
           class="cls-2"
           d="m 273.07,119.48 c -1.33,-0.3 -2.77,-0.49 -4.36,-0.49 -8.08,0 -22.92,8.92 -23.23,37.43 -0.01,1.18 0.02,2.35 0.1,3.49 l 27.49,-2.89 z"
           id="path4" />
        <path
           class="cls-1"
           d="m 288.38,135.5 c -1.33,-0.46 -2.58,-2.17 -2.96,-4.07 -0.65,-3.28 -4.2,-10.09 -12.35,-11.94 v 37.54 l -27.49,2.89 c 0.37,5.44 1.73,10.39 3.76,14.91 l 23.73,-2.49 v 30.14 c 6.68,5.43 12.66,9.77 15.31,13.52 v -45.27 l 42.55,-4.47 c 3.49,-5.18 6.46,-10.58 8.52,-16.21 l -51.06,5.37 V 135.5 Z"
           id="path5" />
        <path
           d="m 328.12,97.88 c -13.42,0 -29.29,9.91 -38.89,26.38 -2.59,-5.95 -11.83,-12.43 -22.8,-12.43 -8.84,0 -33.67,11.05 -33.67,46.73 0,46.05 46.59,55.51 56.01,69.82 0.65,0.99 2.73,1.73 3.53,-0.62 7.51,-22.18 65.79,-47.24 65.79,-92.37 0,-25.31 -16.53,-37.51 -29.95,-37.51 z m 14.33,37.36 c -0.17,5.09 -1.26,10.03 -3.01,14.81 -2.05,5.62 -5.02,11.03 -8.52,16.21 -14.37,21.31 -37.54,38.71 -41.71,51.12 -0.22,-0.45 -0.51,-0.91 -0.84,-1.38 -2.65,-3.75 -8.63,-8.09 -15.31,-13.52 -8.64,-7.03 -18.45,-15.89 -23.73,-27.65 -2.03,-4.52 -3.39,-9.47 -3.76,-14.91 -0.08,-1.14 -0.12,-2.3 -0.1,-3.49 0.32,-28.51 15.16,-37.43 23.23,-37.43 1.59,0 3.03,0.18 4.36,0.49 8.14,1.85 11.69,8.66 12.35,11.94 0.38,1.9 1.63,3.61 2.96,4.07 1.34,0.47 2.75,-0.33 3.44,-3.46 1.37,-6.25 14.65,-25.31 30.96,-25.31 14.94,0 20.12,15.41 19.67,28.52 z"
           id="path6" />
      </g>
    </g>
  </g>
</svg>
