<?xml version="1.0" encoding="UTF-8" standalone="no"?>
<svg
   id="LOGO_LAYER"
   viewBox="0 0 125.34375 131.44334"
   version="1.1"
   sodipodi:docname="ESC-HEART-SWITZERLAND-BLACK.svg"
   width="125.34375"
   height="131.44334"
   xmlns:inkscape="http://www.inkscape.org/namespaces/inkscape"
   xmlns:sodipodi="http://sodipodi.sourceforge.net/DTD/sodipodi-0.dtd"
   xmlns="http://www.w3.org/2000/svg"
   xmlns:svg="http://www.w3.org/2000/svg">
  <sodipodi:namedview
     id="namedview2"
     pagecolor="#ffffff"
     bordercolor="#cccccc"
     borderopacity="1"
     inkscape:showpageshadow="0"
     inkscape:pageopacity="1"
     inkscape:pagecheckerboard="0"
     inkscape:deskcolor="#d1d1d1" />
  <defs
     id="defs1">
    <style
       id="style1">.cls-1{fill:#f9f9f9;}.cls-2{fill:red;}</style>
  </defs>
  <g
     id="LOGO_GROUP"
     transform="translate(-232.75178,-97.88034)">
    <g
       id="SELECT_FLAG_HERE">
      <g
         id="BLACK_FLAG">
        <path
           class="cls-2"
           d="m 322.79,106.72 c -16.31,0 -29.59,19.06 -30.96,25.31 -1.37,6.25 -5.64,3.2 -6.4,-0.61 -0.76,-3.81 -5.42,-12.43 -16.71,-12.43 -8.08,0 -22.92,8.92 -23.23,37.43 -0.38,34.31 38.35,50.05 43.74,60.94 6.05,-17.98 52.01,-46.46 53.24,-82.14 0.45,-13.11 -4.73,-28.52 -19.67,-28.52 z m -8.81,63.89 -16.38,1.72 v 16.38 l -14.04,1.48 v -16.38 l -16.38,1.72 v -14.04 l 16.38,-1.72 v -16.38 l 14.04,-1.48 v 16.38 l 16.38,-1.72 z"
           id="path1" />
        <polygon
           class="cls-1"
           points="267.18,175.53 283.56,173.8 283.56,190.18 297.6,188.71 297.6,172.33 313.98,170.61 313.98,156.57 297.6,158.29 297.6,141.92 283.56,143.39 283.56,159.77 267.18,161.49 "
           id="polygon1" />
        <path
           d="m 328.12,97.88 c -13.42,0 -29.29,9.91 -38.89,26.38 -2.59,-5.95 -11.83,-12.43 -22.8,-12.43 -8.84,0 -33.67,11.05 -33.67,46.73 0,46.05 46.59,55.51 56.01,69.82 0.65,0.99 2.73,1.73 3.53,-0.62 7.51,-22.18 65.79,-47.24 65.79,-92.37 0,-25.31 -16.53,-37.51 -29.95,-37.51 z m 14.33,37.36 c -1.22,35.68 -47.19,64.15 -53.24,82.14 -5.39,-10.89 -44.12,-26.63 -43.74,-60.94 0.32,-28.51 15.16,-37.43 23.23,-37.43 11.28,0 15.94,8.61 16.71,12.43 0.76,3.81 5.03,6.86 6.4,0.61 1.37,-6.25 14.65,-25.31 30.96,-25.31 14.94,0 20.12,15.41 19.67,28.52 z"
           id="path2" />
      </g>
    </g>
  </g>
</svg>
