<?xml version="1.0" encoding="UTF-8" standalone="no"?>
<svg
   id="LOGO_LAYER"
   viewBox="0 0 125.32812 131.44334"
   version="1.1"
   sodipodi:docname="ESC-HEART-ICELAND-BLACK-v2.svg"
   width="125.32812"
   height="131.44334"
   xmlns:inkscape="http://www.inkscape.org/namespaces/inkscape"
   xmlns:sodipodi="http://sodipodi.sourceforge.net/DTD/sodipodi-0.dtd"
   xmlns="http://www.w3.org/2000/svg"
   xmlns:svg="http://www.w3.org/2000/svg">
  <defs
     id="defs9" />
  <sodipodi:namedview
     id="namedview9"
     pagecolor="#ffffff"
     bordercolor="#cccccc"
     borderopacity="1"
     inkscape:showpageshadow="0"
     inkscape:pageopacity="1"
     inkscape:pagecheckerboard="0"
     inkscape:deskcolor="#d1d1d1" />
  <g
     id="LOGO_GROUP"
     transform="translate(-232.74998,-97.877194)">
    <g
       id="SELECT_FLAG_HERE">
      <g
         id="ICELAND">
        <path
           d="m 269.05295,119.01056 c -0.11554,-0.002 -0.22113,-0.0162 -0.33807,-0.0162 -7.95142,0 -22.4375,8.65655 -23.19843,36.10492 l 23.5365,-2.47382 z"
           fill="#02529c"
           id="path1" />
        <path
           d="m 292.051,211.81757 c 7.2771,-11.17236 24.43689,-25.51972 36.71917,-42.47058 L 292.051,173.2063 Z"
           fill="#02529c"
           id="path2" />
        <path
           d="m 250.66837,177.55579 c 4.58056,8.69299 11.57001,15.72034 18.38458,21.57013 v -23.50244 z"
           fill="#02529c"
           id="path3" />
        <path
           d="m 322.78812,106.71894 c -15.66693,0 -28.52466,17.57153 -30.73712,24.50262 v 18.98676 l 48.95569,-5.14551 c 0.82922,-3.21131 1.33599,-6.48834 1.45037,-9.82862 0.44825,-13.1065 -4.72656,-28.51525 -19.66894,-28.51525 z"
           fill="#02529c"
           id="path4" />
        <path
           d="m 274.80246,119.96881 c -1.68353,-0.57232 -3.59137,-0.92395 -5.74951,-0.95825 v 33.61493 l -23.5365,2.47382 c -0.0123,0.44256 -0.0314,0.87579 -0.0364,1.32818 -0.0167,1.50495 0.0461,2.97211 0.17383,4.4068 l 29.14862,-3.0636 z"
           fill="#f9f9f9"
           id="path5" />
        <path
           d="m 286.30149,213.55377 c 1.31591,1.34363 2.32269,2.60956 2.91919,3.81562 0.58941,-1.75159 1.5617,-3.60413 2.83032,-5.55182 V 173.2063 l 36.71917,-3.85931 c 1.46741,-2.02521 2.86219,-4.08875 4.1651,-6.18732 l -46.63378,4.90143 z"
           fill="#f9f9f9"
           id="path6" />
        <path
           d="m 292.051,131.22156 c -0.0914,0.28644 -0.17133,0.56128 -0.22583,0.80939 -1.08618,4.94854 -3.98346,4.0628 -5.52368,1.59076 v 22.94037 l 52.78125,-5.54749 c 0.755,-1.95801 1.40484,-3.94153 1.92395,-5.95178 l -48.95569,5.14551 z"
           fill="#f9f9f9"
           id="path7" />
        <path
           d="m 248.20725,172.06494 c 0.70837,1.9007 1.53369,3.73084 2.46112,5.49085 l 18.38458,-1.93231 v 23.50244 c 1.95123,1.67499 3.88788,3.25348 5.74951,4.74701 v -34.60321 z"
           fill="#f9f9f9"
           id="path8" />
        <path
           d="m 286.30149,133.62171 c -0.4054,-0.6507 -0.72199,-1.40491 -0.88062,-2.19916 -0.60632,-3.03632 -3.69684,-9.10071 -10.61841,-11.45374 v 37.80188 l -29.14862,3.0636 c 0.35657,4.0047 1.25238,7.73944 2.55341,11.23065 l 26.59521,-2.79522 v 34.60321 c 4.59625,3.68744 8.73303,6.8565 11.49903,9.68084 V 168.0611 l 46.63378,-4.90143 c 2.43622,-3.92407 4.53937,-7.97449 6.14747,-12.14508 l -52.78125,5.54749 z"
           fill="#dc1e35"
           id="path9" />
      </g>
    </g>
    <g
       id="CHANGE_GROUP_FILL_COLOUR">
      <path
         id="HEART_SHAPE"
         d="m 328.12497,97.8772 c -13.41791,0 -29.28711,9.91016 -38.8916,26.37885 -2.59277,-5.9477 -11.82617,-12.42865 -22.80365,-12.42865 -8.84473,0 -33.67285,11.05468 -33.67285,46.73486 0,46.04834 46.58832,55.50629 56.00635,69.81689 0.64697,0.98529 2.73187,1.72852 3.52685,-0.62408 7.51465,-22.17871 65.78711,-47.23627 65.78711,-92.36908 0,-25.31104 -16.53418,-37.50879 -29.95221,-37.50879 z m 14.33209,37.35699 c -1.22168,35.67817 -47.18554,64.15375 -53.23638,82.1352 -5.38666,-10.8916 -44.12061,-26.63281 -43.74067,-60.9419 0.31787,-28.50982 15.15528,-37.4331 23.23487,-37.4331 11.28375,0 15.94433,8.61377 16.70599,12.42816 0.76135,3.81164 5.03223,6.85944 6.4043,0.6084 1.37311,-6.25086 14.6485,-25.31201 30.96295,-25.31201 14.94238,0 20.11719,15.40875 19.66894,28.51525 z" />
    </g>
  </g>
</svg>
