<?xml version="1.0" encoding="UTF-8" standalone="no"?>
<svg
   id="LOGO_LAYER"
   viewBox="0 0 125.34375 131.44334"
   version="1.1"
   sodipodi:docname="ESC-HEART-YUGOSLAVIA-BLACK.svg"
   width="125.34375"
   height="131.44334"
   xmlns:inkscape="http://www.inkscape.org/namespaces/inkscape"
   xmlns:sodipodi="http://sodipodi.sourceforge.net/DTD/sodipodi-0.dtd"
   xmlns="http://www.w3.org/2000/svg"
   xmlns:svg="http://www.w3.org/2000/svg">
  <sodipodi:namedview
     id="namedview6"
     pagecolor="#ffffff"
     bordercolor="#cccccc"
     borderopacity="1"
     inkscape:showpageshadow="0"
     inkscape:pageopacity="1"
     inkscape:pagecheckerboard="0"
     inkscape:deskcolor="#d1d1d1" />
  <defs
     id="defs1">
    <style
       id="style1">.cls-1{fill:#f9f9f9;}.cls-2{fill:#003893;}.cls-3{fill:#fcd115;}.cls-4{fill:#de0000;}</style>
  </defs>
  <g
     id="LOGO_GROUP"
     transform="translate(-232.75178,-97.88034)">
    <g
       id="SELECT_FLAG_HERE">
      <g
         id="BLACK_FLAG">
        <path
           class="cls-2"
           d="m 322.79,106.72 c -16.31,0 -29.59,19.06 -30.96,25.31 -1.37,6.25 -5.64,3.2 -6.4,-0.61 -0.76,-3.81 -5.42,-12.43 -16.71,-12.43 -7.37,0 -20.36,7.43 -22.82,30.38 l 41.76,-4.39 1.98,-6.29 1.98,5.87 50.52,-5.31 c 0.17,-1.33 0.29,-2.67 0.33,-4.03 0.45,-13.11 -4.73,-28.52 -19.67,-28.52 z"
           id="path1" />
        <path
           class="cls-1"
           d="m 295.18,155.19 17.96,-1.89 -14.53,12.08 4.43,13.16 20.24,-2.13 c 9.22,-11.17 17.11,-23.62 18.85,-37.16 l -50.52,5.31 3.57,10.62 z"
           id="path2" />
        <polygon
           class="cls-1"
           points="299.4,178.93 289.63,172.85 279.86,180.98 "
           id="polygon2" />
        <path
           class="cls-1"
           d="m 280.65,167.27 -14.53,-9.03 17.96,-1.89 3.57,-11.37 -41.76,4.39 c -0.24,2.21 -0.38,4.55 -0.41,7.05 -0.12,10.76 3.61,19.7 8.95,27.23 l 21.79,-2.29 z"
           id="path3" />
        <path
           class="cls-4"
           d="m 304.16,181.88 -4.76,-2.96 -19.55,2.05 -4.76,3.95 1.12,-3.57 -21.79,2.29 c 11.69,16.48 31.09,26.24 34.79,33.71 3.49,-10.37 20.25,-24.23 34.06,-40.95 l -20.24,2.13 1.12,3.34 z"
           id="path4" />
        <polygon
           class="cls-4"
           points="297.06,165.05 309.08,155.05 294.22,156.61 289.63,142.96 285.04,157.57 270.18,159.14 282.2,166.61 277.61,181.22 289.63,171.23 301.65,178.7 "
           id="polygon4" />
        <path
           class="cls-3"
           d="m 266.12,158.25 14.53,9.03 -4.43,14.09 -1.12,3.57 4.76,-3.95 9.77,-8.13 9.77,6.07 4.76,2.96 -1.12,-3.34 -4.43,-13.16 14.53,-12.08 -17.96,1.89 -3.57,-10.62 -1.98,-5.87 -1.98,6.29 -3.57,11.37 -17.96,1.89 z m 23.51,-15.28 4.59,13.65 14.86,-1.56 -12.02,10 4.59,13.65 -12.02,-7.47 -12.02,10 4.59,-14.61 -12.02,-7.47 14.86,-1.56 4.59,-14.61 z"
           id="path5" />
        <path
           d="m 328.12,97.88 c -13.42,0 -29.29,9.91 -38.89,26.38 -2.59,-5.95 -11.83,-12.43 -22.8,-12.43 -8.84,0 -33.67,11.05 -33.67,46.73 0,46.05 46.59,55.51 56.01,69.82 0.65,0.99 2.73,1.73 3.53,-0.62 7.51,-22.18 65.79,-47.24 65.79,-92.37 0,-25.31 -16.53,-37.51 -29.95,-37.51 z m 14.33,37.36 c -0.05,1.35 -0.16,2.69 -0.33,4.03 -1.73,13.54 -9.62,25.99 -18.85,37.16 -13.8,16.72 -30.57,30.58 -34.06,40.95 -3.7,-7.48 -23.1,-17.24 -34.79,-33.71 -5.34,-7.53 -9.07,-16.47 -8.95,-27.23 0.03,-2.5 0.17,-4.85 0.41,-7.05 2.47,-22.95 15.45,-30.38 22.82,-30.38 11.28,0 15.94,8.61 16.71,12.43 0.76,3.81 5.03,6.86 6.4,0.61 1.37,-6.25 14.65,-25.31 30.96,-25.31 14.94,0 20.12,15.41 19.67,28.52 z"
           id="path6" />
      </g>
    </g>
  </g>
</svg>
