<?xml version="1.0" encoding="UTF-8" standalone="no"?>
<svg
   id="LOGO_LAYER"
   viewBox="0 0 125.34375 131.44334"
   version="1.1"
   sodipodi:docname="ESC-HEART-GERMANY-BLACK.svg"
   width="125.34375"
   height="131.44334"
   xmlns:inkscape="http://www.inkscape.org/namespaces/inkscape"
   xmlns:sodipodi="http://sodipodi.sourceforge.net/DTD/sodipodi-0.dtd"
   xmlns="http://www.w3.org/2000/svg"
   xmlns:svg="http://www.w3.org/2000/svg">
  <sodipodi:namedview
     id="namedview4"
     pagecolor="#ffffff"
     bordercolor="#cccccc"
     borderopacity="1"
     inkscape:showpageshadow="0"
     inkscape:pageopacity="1"
     inkscape:pagecheckerboard="0"
     inkscape:deskcolor="#d1d1d1" />
  <defs
     id="defs1">
    <style
       id="style1">.cls-1{fill:#ffcc01;}.cls-2{fill:red;}.cls-3{fill:#0b0e0e;}</style>
  </defs>
  <g
     id="LOGO_GROUP"
     transform="translate(-232.75178,-97.88034)">
    <g
       id="SELECT_FLAG_HERE">
      <g
         id="BLACK_FLAG">
        <path
           class="cls-3"
           d="m 322.79,106.72 c -16.31,0 -29.59,19.06 -30.96,25.31 -1.37,6.25 -5.64,3.2 -6.4,-0.61 -0.76,-3.81 -5.42,-12.43 -16.71,-12.43 -7.06,0 -19.28,6.81 -22.46,27.55 l 96.14,-10.1 c 0.03,-0.4 0.05,-0.8 0.06,-1.2 0.45,-13.11 -4.73,-28.52 -19.67,-28.52 z"
           id="path1" />
        <path
           class="cls-2"
           d="m 245.48,156.43 c -0.13,11.58 4.2,21.04 10.19,28.91 l 65.93,-6.93 c 10.57,-12.44 19.82,-26.52 20.79,-41.97 l -96.14,10.1 c -0.46,3 -0.73,6.28 -0.77,9.88 z"
           id="path2" />
        <path
           class="cls-1"
           d="m 289.22,217.37 c 3.35,-9.96 18.93,-23.13 32.38,-38.96 l -65.93,6.93 c 11.77,15.46 29.98,24.81 33.55,32.03 z"
           id="path3" />
        <path
           d="m 328.12,97.88 c -13.42,0 -29.29,9.91 -38.89,26.38 -2.59,-5.95 -11.83,-12.43 -22.8,-12.43 -8.84,0 -33.67,11.05 -33.67,46.73 0,46.05 46.59,55.51 56.01,69.82 0.65,0.99 2.73,1.73 3.53,-0.62 7.51,-22.18 65.79,-47.24 65.79,-92.37 0,-25.31 -16.53,-37.51 -29.95,-37.51 z m 14.33,37.36 c -0.01,0.4 -0.04,0.8 -0.06,1.2 -0.97,15.45 -10.22,29.53 -20.79,41.97 -13.45,15.83 -29.03,29 -32.38,38.96 -3.57,-7.22 -21.77,-16.56 -33.55,-32.03 -6,-7.88 -10.32,-17.34 -10.19,-28.91 0.04,-3.6 0.31,-6.89 0.77,-9.88 3.19,-20.73 15.4,-27.55 22.46,-27.55 11.28,0 15.94,8.61 16.71,12.43 0.76,3.81 5.03,6.86 6.4,0.61 1.37,-6.25 14.65,-25.31 30.96,-25.31 14.94,0 20.12,15.41 19.67,28.52 z"
           id="path4" />
      </g>
    </g>
  </g>
</svg>
