<?xml version="1.0" encoding="UTF-8" standalone="no"?>
<svg
   id="LOGO_LAYER"
   viewBox="0 0 125.34375 131.44334"
   version="1.1"
   sodipodi:docname="ESC-HEART-SWEDEN-BLACK.svg"
   width="125.34375"
   height="131.44334"
   xmlns:inkscape="http://www.inkscape.org/namespaces/inkscape"
   xmlns:sodipodi="http://sodipodi.sourceforge.net/DTD/sodipodi-0.dtd"
   xmlns="http://www.w3.org/2000/svg"
   xmlns:svg="http://www.w3.org/2000/svg">
  <sodipodi:namedview
     id="namedview6"
     pagecolor="#ffffff"
     bordercolor="#cccccc"
     borderopacity="1"
     inkscape:showpageshadow="0"
     inkscape:pageopacity="1"
     inkscape:pagecheckerboard="0"
     inkscape:deskcolor="#d1d1d1" />
  <defs
     id="defs1">
    <style
       id="style1">.cls-1{fill:#fd0;}.cls-2{fill:#1770b8;}</style>
  </defs>
  <g
     id="LOGO_GROUP"
     transform="translate(-232.75178,-97.88034)">
    <g
       id="SELECT_FLAG_HERE">
      <g
         id="BLACK_FLAG">
        <path
           class="cls-2"
           d="m 276.75,120.77 c -2.19,-1.08 -4.84,-1.78 -8.03,-1.78 -8.08,0 -22.92,8.92 -23.23,37.43 0,0.55 0,1.09 0.01,1.63 l 31.25,-3.29 v -34 z"
           id="path1" />
        <path
           class="cls-2"
           d="m 294.43,208.48 c 8.63,-11.23 24.92,-25.29 36.13,-41.68 l -36.13,3.8 z"
           id="path2" />
        <path
           class="cls-2"
           d="m 322.79,106.72 c -12.67,0 -23.51,11.5 -28.36,19.56 v 26.63 l 45.69,-4.8 c 1.36,-4.18 2.19,-8.47 2.34,-12.88 0.45,-13.11 -4.73,-28.52 -19.67,-28.52 z"
           id="path3" />
        <path
           class="cls-2"
           d="m 249.56,175.31 c 6.12,13.22 17.93,22.74 27.19,30.11 v -32.97 z"
           id="path4" />
        <path
           class="cls-1"
           d="m 294.43,126.28 c -1.4,2.32 -2.3,4.36 -2.61,5.75 -1.37,6.25 -5.64,3.2 -6.4,-0.61 -0.55,-2.74 -3.11,-7.92 -8.67,-10.65 v 34 l -31.25,3.29 c 0.16,6.38 1.68,12.1 4.07,17.26 l 27.19,-2.86 v 32.97 c 5.92,4.72 10.8,8.57 12.47,11.94 0.92,-2.72 2.75,-5.69 5.21,-8.89 V 170.6 l 36.13,-3.8 c 4.05,-5.93 7.44,-12.17 9.56,-18.69 l -45.69,4.8 v -26.63 z"
           id="path5" />
        <path
           d="m 328.12,97.88 c -13.42,0 -29.29,9.91 -38.89,26.38 -2.59,-5.95 -11.83,-12.43 -22.8,-12.43 -8.84,0 -33.67,11.05 -33.67,46.73 0,46.05 46.59,55.51 56.01,69.82 0.65,0.99 2.73,1.73 3.53,-0.62 7.51,-22.18 65.79,-47.24 65.79,-92.37 0,-25.31 -16.53,-37.51 -29.95,-37.51 z m 14.33,37.36 c -0.15,4.4 -0.99,8.7 -2.34,12.88 -2.11,6.52 -5.5,12.76 -9.56,18.69 -11.21,16.4 -27.5,30.46 -36.13,41.68 -2.46,3.2 -4.29,6.16 -5.21,8.89 -1.67,-3.38 -6.55,-7.22 -12.47,-11.94 -9.26,-7.38 -21.07,-16.89 -27.19,-30.11 -2.39,-5.16 -3.91,-10.88 -4.07,-17.26 -0.01,-0.54 -0.02,-1.08 -0.01,-1.63 0.32,-28.51 15.16,-37.43 23.23,-37.43 3.19,0 5.84,0.7 8.03,1.78 5.56,2.73 8.13,7.91 8.67,10.65 0.76,3.81 5.03,6.86 6.4,0.61 0.31,-1.4 1.21,-3.43 2.61,-5.75 4.85,-8.06 15.69,-19.56 28.36,-19.56 14.94,0 20.12,15.41 19.67,28.52 z"
           id="path6" />
      </g>
    </g>
  </g>
</svg>
