<?xml version="1.0" encoding="UTF-8" standalone="no"?>
<svg
   id="LOGO_LAYER"
   viewBox="0 0 125.34375 131.44334"
   version="1.1"
   sodipodi:docname="ESC-HEART-GEORGIA-BLACK.svg"
   width="125.34375"
   height="131.44334"
   xmlns:inkscape="http://www.inkscape.org/namespaces/inkscape"
   xmlns:sodipodi="http://sodipodi.sourceforge.net/DTD/sodipodi-0.dtd"
   xmlns="http://www.w3.org/2000/svg"
   xmlns:svg="http://www.w3.org/2000/svg">
  <sodipodi:namedview
     id="namedview10"
     pagecolor="#ffffff"
     bordercolor="#cccccc"
     borderopacity="1"
     inkscape:showpageshadow="0"
     inkscape:pageopacity="1"
     inkscape:pagecheckerboard="0"
     inkscape:deskcolor="#d1d1d1" />
  <defs
     id="defs1">
    <style
       id="style1">.cls-1{fill:#f9f9f9;}.cls-2{fill:red;}</style>
  </defs>
  <g
     id="LOGO_GROUP"
     transform="translate(-232.75178,-97.88034)">
    <g
       id="SELECT_FLAG_HERE">
      <g
         id="BLACK_FLAG">
        <path
           class="cls-1"
           d="m 296.4,206.03 c 9.92,-11.94 26.96,-26.83 37.31,-44.13 l -37.31,3.92 v 40.2 z m 6.92,-30.46 c 1.8,0.17 3.61,0.21 5.43,0.1 -0.09,-1.81 -0.32,-3.6 -0.68,-5.36 1.65,0.04 3.33,-0.13 4.98,-0.52 -0.36,1.83 -0.59,3.67 -0.68,5.5 1.82,-0.28 3.63,-0.7 5.43,-1.25 -0.22,1.68 -0.22,3.35 0,4.98 -1.8,-0.17 -3.61,-0.21 -5.43,-0.1 0.09,1.81 0.32,3.6 0.68,5.36 -1.65,-0.04 -3.33,0.13 -4.98,0.52 0.36,-1.83 0.59,-3.67 0.68,-5.5 -1.82,0.28 -3.63,0.7 -5.43,1.25 0.22,-1.68 0.22,-3.35 0,-4.98 z"
           id="path1" />
        <path
           class="cls-1"
           d="m 282.23,125.13 c -2.62,-3.2 -6.93,-6.14 -13.52,-6.14 -8.08,0 -22.92,8.92 -23.23,37.43 0,0.2 0,0.39 0,0.58 l 36.75,-3.86 z m -6.92,18.26 c -1.8,-0.17 -3.61,-0.21 -5.43,-0.1 0.09,1.81 0.32,3.6 0.68,5.36 -1.65,-0.04 -3.33,0.13 -4.98,0.52 0.36,-1.83 0.59,-3.67 0.68,-5.5 -1.82,0.28 -3.63,0.7 -5.43,1.25 0.22,-1.68 0.22,-3.35 0,-4.98 1.8,0.17 3.61,0.21 5.43,0.1 -0.09,-1.81 -0.32,-3.6 -0.68,-5.36 1.65,0.04 3.33,-0.13 4.98,-0.52 -0.36,1.83 -0.59,3.67 -0.68,5.5 1.82,-0.28 3.63,-0.7 5.43,-1.25 -0.22,1.68 -0.22,3.35 0,4.98 z"
           id="path2" />
        <path
           class="cls-1"
           d="m 247.8,170.93 c 6.34,18.52 24.14,30.3 34.43,38.93 v -42.55 z m 22.08,12.46 c 0.09,1.81 0.32,3.6 0.68,5.36 -1.65,-0.04 -3.33,0.13 -4.98,0.52 0.36,-1.83 0.59,-3.67 0.68,-5.5 -1.82,0.28 -3.63,0.7 -5.43,1.25 0.22,-1.68 0.22,-3.35 0,-4.98 1.8,0.17 3.61,0.21 5.43,0.1 -0.09,-1.81 -0.32,-3.6 -0.68,-5.36 1.65,0.04 3.33,-0.13 4.98,-0.52 -0.36,1.83 -0.59,3.67 -0.68,5.5 1.82,-0.28 3.63,-0.7 5.43,-1.25 -0.22,1.68 -0.22,3.35 0,4.98 -1.8,-0.17 -3.61,-0.21 -5.43,-0.1 z"
           id="path3" />
        <path
           class="cls-1"
           d="m 322.79,106.72 c -11.17,0 -20.92,8.94 -26.39,16.58 v 28.36 l 44.06,-4.63 c 1.15,-3.84 1.87,-7.77 2,-11.79 0.45,-13.11 -4.73,-28.52 -19.67,-28.52 z m -4.98,32.21 c -1.8,-0.17 -3.61,-0.21 -5.43,-0.1 0.09,1.81 0.32,3.6 0.68,5.36 -1.65,-0.04 -3.33,0.13 -4.98,0.52 0.36,-1.83 0.59,-3.67 0.68,-5.5 -1.82,0.28 -3.63,0.7 -5.43,1.25 0.22,-1.68 0.22,-3.35 0,-4.98 1.8,0.17 3.61,0.21 5.43,0.1 -0.09,-1.81 -0.32,-3.6 -0.68,-5.36 1.65,0.04 3.33,-0.13 4.98,-0.52 -0.36,1.83 -0.59,3.67 -0.68,5.5 1.82,-0.28 3.63,-0.7 5.43,-1.25 -0.22,1.68 -0.22,3.35 0,4.98 z"
           id="path4" />
        <path
           class="cls-2"
           d="m 296.4,123.3 c -2.52,3.52 -4.14,6.76 -4.57,8.73 -1.37,6.25 -5.64,3.2 -6.4,-0.61 -0.32,-1.59 -1.32,-4.01 -3.19,-6.29 v 28.01 L 245.49,157 c 0,5.03 0.86,9.65 2.32,13.92 l 34.43,-3.62 v 42.55 c 3.33,2.79 5.87,5.25 6.99,7.51 1.15,-3.41 3.73,-7.2 7.18,-11.34 v -40.2 l 37.31,-3.92 c 2.86,-4.78 5.2,-9.74 6.75,-14.87 l -44.06,4.63 V 123.3 Z"
           id="path5" />
        <path
           class="cls-2"
           d="m 308.75,179.31 c -0.09,1.83 -0.32,3.67 -0.68,5.5 1.65,-0.39 3.33,-0.57 4.98,-0.52 -0.36,-1.76 -0.59,-3.55 -0.68,-5.36 1.82,-0.1 3.63,-0.07 5.43,0.1 -0.22,-1.63 -0.22,-3.3 0,-4.98 -1.8,0.55 -3.61,0.97 -5.43,1.25 0.09,-1.83 0.32,-3.67 0.68,-5.5 -1.65,0.39 -3.33,0.57 -4.98,0.52 0.36,1.76 0.59,3.55 0.68,5.36 -1.82,0.1 -3.63,0.07 -5.43,-0.1 0.22,1.63 0.22,3.3 0,4.98 1.8,-0.55 3.61,-0.97 5.43,-1.25 z"
           id="path6" />
        <path
           class="cls-2"
           d="m 275.31,178.51 c -1.8,0.55 -3.61,0.97 -5.43,1.25 0.09,-1.83 0.32,-3.67 0.68,-5.5 -1.65,0.39 -3.33,0.57 -4.98,0.52 0.36,1.76 0.59,3.55 0.68,5.36 -1.82,0.1 -3.63,0.07 -5.43,-0.1 0.22,1.63 0.22,3.3 0,4.98 1.8,-0.55 3.61,-0.97 5.43,-1.25 -0.09,1.83 -0.32,3.67 -0.68,5.5 1.65,-0.39 3.33,-0.57 4.98,-0.52 -0.36,-1.76 -0.59,-3.55 -0.68,-5.36 1.82,-0.1 3.63,-0.07 5.43,0.1 -0.22,-1.63 -0.22,-3.3 0,-4.98 z"
           id="path7" />
        <path
           class="cls-2"
           d="m 312.38,135.19 c 0.09,-1.83 0.32,-3.67 0.68,-5.5 -1.65,0.39 -3.33,0.57 -4.98,0.52 0.36,1.76 0.59,3.55 0.68,5.36 -1.82,0.1 -3.63,0.07 -5.43,-0.1 0.22,1.63 0.22,3.3 0,4.98 1.8,-0.55 3.61,-0.96 5.43,-1.25 -0.09,1.83 -0.32,3.67 -0.68,5.5 1.65,-0.39 3.33,-0.57 4.98,-0.52 -0.36,-1.76 -0.59,-3.55 -0.68,-5.36 1.82,-0.1 3.63,-0.07 5.43,0.1 -0.22,-1.63 -0.22,-3.3 0,-4.98 -1.8,0.55 -3.61,0.97 -5.43,1.25 z"
           id="path8" />
        <path
           class="cls-2"
           d="m 269.88,139.66 c 0.09,-1.83 0.32,-3.67 0.68,-5.5 -1.65,0.39 -3.33,0.57 -4.98,0.52 0.36,1.76 0.59,3.55 0.68,5.36 -1.82,0.1 -3.63,0.07 -5.43,-0.1 0.22,1.63 0.22,3.3 0,4.98 1.8,-0.55 3.61,-0.97 5.43,-1.25 -0.09,1.83 -0.32,3.67 -0.68,5.5 1.65,-0.39 3.33,-0.57 4.98,-0.52 -0.36,-1.76 -0.59,-3.55 -0.68,-5.36 1.82,-0.1 3.63,-0.07 5.43,0.1 -0.22,-1.63 -0.22,-3.3 0,-4.98 -1.8,0.55 -3.61,0.97 -5.43,1.25 z"
           id="path9" />
        <path
           d="m 328.12,97.88 c -13.42,0 -29.29,9.91 -38.89,26.38 -2.59,-5.95 -11.83,-12.43 -22.8,-12.43 -8.84,0 -33.67,11.05 -33.67,46.73 0,46.05 46.59,55.51 56.01,69.82 0.65,0.99 2.73,1.73 3.53,-0.62 7.51,-22.18 65.79,-47.24 65.79,-92.37 0,-25.31 -16.53,-37.51 -29.95,-37.51 z m 14.33,37.36 c -0.14,4.02 -0.85,7.96 -2,11.79 -1.55,5.13 -3.89,10.1 -6.75,14.87 -10.35,17.3 -27.39,32.19 -37.31,44.13 -3.44,4.14 -6.03,7.93 -7.18,11.34 -1.11,-2.25 -3.66,-4.72 -6.99,-7.51 -10.29,-8.63 -28.1,-20.41 -34.43,-38.93 -1.46,-4.27 -2.31,-8.89 -2.32,-13.92 0,-0.19 0,-0.39 0,-0.58 0.32,-28.51 15.16,-37.43 23.23,-37.43 6.59,0 10.9,2.94 13.52,6.14 1.87,2.28 2.87,4.7 3.19,6.29 0.76,3.81 5.03,6.86 6.4,0.61 0.43,-1.97 2.05,-5.21 4.57,-8.73 5.48,-7.64 15.22,-16.58 26.39,-16.58 14.94,0 20.12,15.41 19.67,28.52 z"
           id="path10" />
      </g>
    </g>
  </g>
</svg>
