<?xml version="1.0" encoding="UTF-8" standalone="no"?>
<svg
   id="LOGO_LAYER"
   viewBox="0 0 125.34375 131.44334"
   version="1.1"
   sodipodi:docname="ESC-HEART-NORWAY-BLACK.svg"
   width="125.34375"
   height="131.44334"
   xmlns:inkscape="http://www.inkscape.org/namespaces/inkscape"
   xmlns:sodipodi="http://sodipodi.sourceforge.net/DTD/sodipodi-0.dtd"
   xmlns="http://www.w3.org/2000/svg"
   xmlns:svg="http://www.w3.org/2000/svg">
  <sodipodi:namedview
     id="namedview10"
     pagecolor="#ffffff"
     bordercolor="#cccccc"
     borderopacity="1"
     inkscape:showpageshadow="0"
     inkscape:pageopacity="1"
     inkscape:pagecheckerboard="0"
     inkscape:deskcolor="#d1d1d1" />
  <defs
     id="defs1">
    <style
       id="style1">.cls-1{fill:#f9f9f9;}.cls-2{fill:#001a5a;}.cls-3{fill:#bb032c;}</style>
  </defs>
  <g
     id="LOGO_GROUP"
     transform="translate(-232.75178,-97.88034)">
    <g
       id="SELECT_FLAG_HERE">
      <g
         id="BLACK_FLAG">
        <path
           class="cls-3"
           d="m 322.79,106.72 c -12.59,0 -23.37,11.35 -28.26,19.41 v 22.78 L 341.27,144 c 0.67,-2.87 1.09,-5.79 1.19,-8.76 0.45,-13.11 -4.73,-28.52 -19.67,-28.52 z"
           id="path1" />
        <path
           class="cls-3"
           d="m 294.52,208.36 c 8.14,-10.55 22.98,-23.58 34.01,-38.69 l -34.01,3.57 z"
           id="path2" />
        <path
           class="cls-3"
           d="m 250.82,177.84 c 4.84,9.05 12.28,16.28 19.37,22.26 v -24.29 l -19.37,2.04 z"
           id="path3" />
        <path
           class="cls-3"
           d="m 270.19,119.07 c -0.48,-0.03 -0.97,-0.07 -1.48,-0.07 -7.85,0 -22.08,8.43 -23.17,35.06 l 24.65,-2.59 z"
           id="path4" />
        <path
           class="cls-1"
           d="m 248.19,172.03 c 0.75,2.01 1.63,3.95 2.62,5.81 l 19.37,-2.04 v 24.29 c 2.08,1.76 4.14,3.4 6.08,4.96 v -35.97 l -28.08,2.95 z"
           id="path5" />
        <path
           class="cls-1"
           d="m 294.52,126.13 c -1.45,2.38 -2.38,4.48 -2.7,5.9 -0.68,3.09 -2.06,3.9 -3.39,3.48 v 20.12 l 50.92,-5.35 c 0.76,-2.07 1.4,-4.16 1.9,-6.28 l -46.74,4.91 v -22.78 z"
           id="path6" />
        <path
           class="cls-1"
           d="m 276.27,120.54 c -1.74,-0.78 -3.76,-1.31 -6.08,-1.48 v 32.4 l -24.65,2.59 c -0.03,0.78 -0.06,1.56 -0.07,2.37 -0.01,1.26 0.03,2.49 0.12,3.71 l 30.67,-3.22 v -36.37 z"
           id="path7" />
        <path
           class="cls-1"
           d="m 288.44,216.08 c 0.31,0.44 0.57,0.87 0.78,1.29 0.93,-2.76 2.8,-5.77 5.3,-9.01 v -35.12 l 34.01,-3.57 c 1.56,-2.14 3.05,-4.32 4.43,-6.55 l -44.52,4.68 z"
           id="path8" />
        <path
           class="cls-2"
           d="m 288.44,135.51 c -1.35,-0.43 -2.63,-2.16 -3.02,-4.09 -0.56,-2.81 -3.25,-8.22 -9.15,-10.88 v 36.37 l -30.67,3.22 c 0.31,4.26 1.23,8.21 2.59,11.89 l 28.08,-2.95 v 35.97 c 5.39,4.3 9.97,7.87 12.17,11.03 v -48.28 l 44.52,-4.68 c 2.57,-4.14 4.76,-8.42 6.4,-12.84 l -50.92,5.35 V 135.5 Z"
           id="path9" />
        <path
           d="m 328.12,97.88 c -13.42,0 -29.29,9.91 -38.89,26.38 -2.59,-5.95 -11.83,-12.43 -22.8,-12.43 -8.84,0 -33.67,11.05 -33.67,46.73 0,46.05 46.59,55.51 56.01,69.82 0.65,0.99 2.73,1.73 3.53,-0.62 7.51,-22.18 65.79,-47.24 65.79,-92.37 0,-25.31 -16.53,-37.51 -29.95,-37.51 z m 14.33,37.36 c -0.1,2.97 -0.52,5.89 -1.19,8.76 -0.5,2.12 -1.14,4.22 -1.9,6.28 -1.63,4.42 -3.83,8.7 -6.4,12.84 -1.38,2.22 -2.86,4.41 -4.43,6.55 -11.03,15.11 -25.87,28.15 -34.01,38.69 -2.5,3.24 -4.37,6.25 -5.3,9.01 -0.21,-0.42 -0.47,-0.86 -0.78,-1.29 -2.2,-3.16 -6.78,-6.73 -12.17,-11.03 -1.95,-1.55 -4,-3.2 -6.08,-4.96 -7.09,-5.98 -14.53,-13.21 -19.37,-22.26 -0.99,-1.86 -1.88,-3.79 -2.62,-5.81 -1.37,-3.68 -2.28,-7.64 -2.59,-11.89 -0.09,-1.21 -0.13,-2.45 -0.12,-3.71 0,-0.81 0.03,-1.59 0.07,-2.37 1.09,-26.63 15.32,-35.06 23.17,-35.06 0.51,0 0.99,0.04 1.48,0.07 2.32,0.16 4.35,0.7 6.08,1.48 5.89,2.65 8.59,8.07 9.15,10.88 0.39,1.93 1.67,3.65 3.02,4.09 1.32,0.42 2.71,-0.39 3.39,-3.48 0.31,-1.43 1.25,-3.52 2.7,-5.9 4.9,-8.06 15.67,-19.41 28.26,-19.41 14.94,0 20.12,15.41 19.67,28.52 z"
           id="path10" />
      </g>
    </g>
  </g>
</svg>
