<?xml version="1.0" encoding="UTF-8" standalone="no"?>
<svg
   id="LOGO_LAYER"
   viewBox="0 0 125.34375 131.44334"
   version="1.1"
   sodipodi:docname="ESC-HEART-AUSTRALIA-BLACK.svg"
   width="125.34375"
   height="131.44334"
   xmlns:inkscape="http://www.inkscape.org/namespaces/inkscape"
   xmlns:sodipodi="http://sodipodi.sourceforge.net/DTD/sodipodi-0.dtd"
   xmlns="http://www.w3.org/2000/svg"
   xmlns:svg="http://www.w3.org/2000/svg">
  <sodipodi:namedview
     id="namedview19"
     pagecolor="#ffffff"
     bordercolor="#cccccc"
     borderopacity="1"
     inkscape:showpageshadow="0"
     inkscape:pageopacity="1"
     inkscape:pagecheckerboard="0"
     inkscape:deskcolor="#d1d1d1" />
  <defs
     id="defs1">
    <style
       id="style1">.cls-1{fill:#f7f7f7;}.cls-2{fill:#00008b;}.cls-3{fill:red;}</style>
  </defs>
  <g
     id="LOGO_GROUP"
     transform="translate(-232.75178,-97.88034)">
    <g
       id="SELECT_FLAG_HERE">
      <g
         id="BLACK_FLAG">
        <path
           class="cls-2"
           d="m 283.73,127.28 c -0.35,-0.59 -0.75,-1.19 -1.21,-1.79 l -3.01,2.23 z"
           id="path1" />
        <path
           class="cls-2"
           d="m 262.45,120.49 c -2.18,0.99 -4.44,2.51 -6.59,4.68 l 6.59,3.5 z"
           id="path2" />
        <path
           class="cls-2"
           d="m 278.51,121.77 c -2.15,-1.41 -4.85,-2.44 -8.19,-2.7 v 8.77 z"
           id="path3" />
        <path
           class="cls-2"
           d="m 247.38,141.1 c -0.37,1.4 -0.68,2.88 -0.95,4.44 l 6.83,-5.06 -5.87,0.62 z"
           id="path4" />
        <path
           class="cls-2"
           d="m 252.12,129.88 c -0.16,0.25 -0.33,0.5 -0.49,0.77 l 1.61,-0.17 -1.13,-0.6 z"
           id="path5" />
        <path
           class="cls-2"
           d="m 322.79,106.72 c -16.31,0 -29.59,19.06 -30.96,25.31 -0.41,1.89 -1.1,2.92 -1.86,3.34 v 1.25 l -10.45,1.1 10.45,5.55 v 3.35 0 c 0,0 -5.27,0.55 -5.27,0.55 l -14.38,-7.64 v 9.14 l -3.93,0.41 -0.69,0.07 -1.66,0.17 -1.57,0.16 v -9.14 l -14.38,10.65 -1.76,0.18 -0.61,0.06 c -0.13,1.64 -0.21,3.36 -0.23,5.16 -0.38,34.31 38.35,50.05 43.74,60.94 6.05,-17.98 52.01,-46.46 53.24,-82.14 0.45,-13.11 -4.73,-28.52 -19.67,-28.52 z m -54.64,70.26 -3.09,-2.93 -3.09,3.58 0.62,-4.51 -4.47,0.08 3.86,-2.69 -2.48,-3.48 4.2,1.15 1.37,-4.41 1.37,4.13 4.2,-2.03 -2.48,4 3.86,1.88 -4.47,0.86 0.62,4.38 z m 50.02,-46.58 2,0.55 0.65,-2.1 0.65,1.96 2,-0.97 -1.18,1.9 1.84,0.9 -2.13,0.41 0.29,2.09 -1.47,-1.39 -1.47,1.7 0.29,-2.15 -2.13,0.04 1.84,-1.28 z m -7.75,18.84 -1.47,-1.39 -1.47,1.7 0.29,-2.15 -2.13,0.04 1.84,-1.28 -1.18,-1.65 2,0.55 0.65,-2.1 0.65,1.96 2,-0.97 -1.18,1.9 1.84,0.9 -2.13,0.41 0.29,2.09 z m 11.87,17.55 -1.47,-1.39 -1.47,1.7 0.29,-2.15 -2.13,0.04 1.84,-1.28 -1.18,-1.66 2,0.55 0.65,-2.1 0.65,1.96 2,-0.97 -1.18,1.9 1.84,0.9 -2.13,0.41 z m 4.44,-15.77 -1.16,-0.6 -1.16,0.84 0.33,-1.36 -1.05,-0.77 1.36,-0.24 0.52,-1.32 0.52,1.21 1.36,-0.04 -1.05,0.99 z m 6.11,-7.3 -1.47,-1.39 -1.47,1.7 0.29,-2.15 -2.13,0.04 1.84,-1.28 -1.18,-1.66 2,0.55 0.65,-2.1 0.65,1.96 2,-0.97 -1.18,1.9 1.84,0.9 -2.13,0.41 z"
           id="path6" />
        <path
           class="cls-3"
           d="m 262.04,139.56 -3.51,0.37 -12.62,9.35 c -0.07,0.65 -0.14,1.31 -0.19,1.99 l 0.61,-0.06 15.72,-11.65 z"
           id="path7" />
        <path
           class="cls-3"
           d="m 258.52,129.93 -4.67,-2.48 c -0.4,0.51 -0.8,1.04 -1.18,1.61 l 2.34,1.24 3.52,-0.37 z"
           id="path8" />
        <path
           class="cls-3"
           d="m 274.24,128.28 6.46,-4.79 c -0.44,-0.41 -0.91,-0.81 -1.42,-1.18 l -8.55,6.34 z"
           id="path9" />
        <polygon
           class="cls-3"
           points="277.76,137.91 274.24,138.28 289.96,146.63 289.96,144.39 "
           id="polygon9" />
        <path
           class="cls-1"
           d="m 268.74,148.85 -2.36,0.25 3.93,-0.41 v -9.14 l 14.38,7.64 5.27,-0.55 -15.72,-8.35 3.52,-0.37 12.2,6.48 v -1.12 l -10.45,-5.55 10.45,-1.1 v -1.25 c -0.83,0.46 -1.77,0.21 -2.58,-0.48 l -18.64,1.96 v 12 z"
           id="path10" />
        <path
           class="cls-1"
           d="m 262.04,139.56 -15.72,11.65 1.76,-0.18 14.38,-10.65 v 9.14 l 1.57,-0.16 v -12 l -16.06,1.69 c -0.21,0.67 -0.4,1.36 -0.59,2.06 l 5.87,-0.62 -6.83,5.06 c -0.21,1.2 -0.38,2.44 -0.53,3.74 l 12.62,-9.35 3.51,-0.37 z"
           id="path11" />
        <path
           class="cls-1"
           d="m 264.02,119.86 c -0.52,0.18 -1.04,0.39 -1.57,0.63 v 8.18 l -6.59,-3.5 c -0.69,0.69 -1.36,1.46 -2.01,2.28 l 4.67,2.48 -3.52,0.37 -2.34,-1.24 c -0.18,0.27 -0.37,0.55 -0.55,0.83 l 1.13,0.6 -1.61,0.17 c -0.4,0.67 -0.79,1.38 -1.16,2.12 l 13.55,-1.42 v -11.49 z"
           id="path12" />
        <path
           class="cls-1"
           d="m 284.7,129.18 c -0.26,-0.6 -0.58,-1.24 -0.96,-1.9 l -4.22,0.44 3.01,-2.23 c -0.53,-0.68 -1.14,-1.36 -1.82,-2 l -6.46,4.79 -3.51,0.37 8.55,-6.34 c -0.25,-0.19 -0.5,-0.37 -0.77,-0.55 l -8.19,6.07 v -8.77 c -0.51,-0.04 -1.03,-0.07 -1.57,-0.08 v 11.86 l 15.96,-1.67 z"
           id="path13" />
        <path
           class="cls-3"
           d="m 264.02,149.35 1.66,-0.17 0.69,-0.07 2.36,-0.25 v -12 l 18.64,-1.96 c -0.92,-0.77 -1.68,-2.07 -1.96,-3.48 -0.13,-0.63 -0.37,-1.4 -0.72,-2.24 l -15.96,1.67 v -11.86 c 0,0 -0.02,0 -0.03,0 -1.4,0 -3,0.27 -4.69,0.86 v 11.49 l -13.55,1.42 c -0.95,1.86 -1.79,3.94 -2.51,6.26 l 16.06,-1.69 v 12 z"
           id="path14" />
        <polygon
           class="cls-1"
           points="263.68,168.18 259.49,167.03 261.97,170.51 258.11,173.2 262.58,173.12 261.97,177.63 265.06,174.05 268.15,176.98 267.53,172.6 272,171.74 268.14,169.86 270.62,165.86 266.43,167.89 265.06,163.77 "
           id="polygon14" />
        <polygon
           class="cls-1"
           points="320.16,162.6 318.17,162.05 319.35,163.71 317.51,164.99 319.64,164.95 319.35,167.1 320.82,165.4 322.29,166.79 322,164.7 324.12,164.3 322.29,163.4 323.47,161.5 321.47,162.46 320.82,160.5 "
           id="polygon15" />
        <polygon
           class="cls-1"
           points="308.29,145.05 306.3,144.51 307.48,146.16 305.64,147.44 307.77,147.4 307.48,149.55 308.95,147.85 310.42,149.24 310.13,147.16 312.25,146.75 310.42,145.85 311.6,143.95 309.6,144.91 308.95,142.95 "
           id="polygon16" />
        <polygon
           class="cls-1"
           points="322,133.05 324.12,132.64 322.29,131.74 323.47,129.84 321.47,130.81 320.82,128.84 320.16,130.94 318.17,130.4 319.35,132.05 317.51,133.34 319.64,133.3 319.35,135.44 320.82,133.74 322.29,135.13 "
           id="polygon17" />
        <polygon
           class="cls-1"
           points="330.72,139.53 328.72,138.98 329.9,140.64 328.06,141.92 330.19,141.88 329.9,144.03 331.37,142.33 332.84,143.72 332.55,141.63 334.68,141.23 332.84,140.33 334.02,138.43 332.02,139.39 331.37,137.43 "
           id="polygon18" />
        <polygon
           class="cls-1"
           points="324.73,149.9 324.4,151.26 325.57,150.42 326.73,151.02 326.4,149.72 327.45,148.73 326.08,148.77 325.57,147.56 325.05,148.88 323.68,149.13 "
           id="polygon19" />
        <path
           d="m 328.12,97.88 c -13.42,0 -29.29,9.91 -38.89,26.38 -2.59,-5.95 -11.83,-12.43 -22.8,-12.43 -8.84,0 -33.67,11.05 -33.67,46.73 0,46.05 46.59,55.51 56.01,69.82 0.65,0.99 2.73,1.73 3.53,-0.62 7.51,-22.18 65.79,-47.24 65.79,-92.37 0,-25.31 -16.53,-37.51 -29.95,-37.51 z m 14.33,37.36 c -1.22,35.68 -47.19,64.15 -53.24,82.14 -5.39,-10.89 -44.12,-26.63 -43.74,-60.94 0.02,-1.8 0.1,-3.51 0.23,-5.16 0.05,-0.68 0.12,-1.34 0.19,-1.99 0.14,-1.3 0.32,-2.54 0.53,-3.74 0.27,-1.56 0.59,-3.04 0.95,-4.44 0.18,-0.71 0.38,-1.39 0.59,-2.06 0.72,-2.32 1.57,-4.4 2.51,-6.26 0.37,-0.74 0.76,-1.45 1.16,-2.12 0.16,-0.26 0.32,-0.51 0.49,-0.77 0.18,-0.28 0.36,-0.56 0.55,-0.83 0.39,-0.56 0.78,-1.1 1.18,-1.61 0.65,-0.83 1.33,-1.59 2.01,-2.28 2.14,-2.16 4.41,-3.69 6.59,-4.68 0.53,-0.24 1.06,-0.45 1.57,-0.63 1.69,-0.59 3.29,-0.86 4.69,-0.86 0,0 0.02,0 0.03,0 0.54,0 1.06,0.04 1.57,0.08 3.34,0.25 6.05,1.29 8.19,2.7 0.27,0.18 0.52,0.36 0.77,0.55 0.51,0.38 0.98,0.77 1.42,1.18 0.69,0.64 1.29,1.32 1.82,2 0.46,0.6 0.86,1.2 1.21,1.79 0.39,0.66 0.71,1.29 0.96,1.9 0.35,0.84 0.6,1.61 0.72,2.24 0.28,1.41 1.04,2.71 1.96,3.48 0.81,0.68 1.75,0.94 2.58,0.48 0.77,-0.43 1.45,-1.45 1.86,-3.34 1.37,-6.25 14.65,-25.31 30.96,-25.31 14.94,0 20.12,15.41 19.67,28.52 z"
           id="path19" />
      </g>
    </g>
  </g>
</svg>
