<?xml version="1.0" encoding="UTF-8" standalone="no"?>
<svg
   id="LOGO_LAYER"
   viewBox="0 0 125.32812 131.44334"
   version="1.1"
   sodipodi:docname="ESC-HEART-AZERBAIJAN-BLACK-v2.svg"
   inkscape:export-filename="ESC-HEART-AZERBAIJAN-BLACK-v2.svg"
   inkscape:export-xdpi="96"
   inkscape:export-ydpi="96"
   width="125.32812"
   height="131.44334"
   xmlns:inkscape="http://www.inkscape.org/namespaces/inkscape"
   xmlns:sodipodi="http://sodipodi.sourceforge.net/DTD/sodipodi-0.dtd"
   xmlns="http://www.w3.org/2000/svg"
   xmlns:svg="http://www.w3.org/2000/svg">
  <defs
     id="defs5" />
  <sodipodi:namedview
     id="namedview5"
     pagecolor="#ffffff"
     bordercolor="#cccccc"
     borderopacity="1"
     inkscape:showpageshadow="0"
     inkscape:pageopacity="1"
     inkscape:pagecheckerboard="0"
     inkscape:deskcolor="#d1d1d1" />
  <g
     id="LOGO_GROUP"
     transform="translate(-232.74998,-97.877194)">
    <g
       id="SELECT_FLAG_HERE">
      <g
         id="AZERBAIJAN">
        <path
           d="m 322.78812,106.71894 c -16.31445,0 -29.58984,19.06115 -30.96295,25.31201 -1.37207,6.25104 -5.64295,3.20324 -6.4043,-0.6084 -0.76166,-3.81439 -5.42224,-12.42816 -16.70599,-12.42816 -7.08985,0 -19.38056,6.87488 -22.50086,27.82171 l 96.1637,-10.10724 c 0.0337,-0.49035 0.0624,-0.98156 0.0793,-1.47467 0.44825,-13.1065 -4.72656,-28.51525 -19.66894,-28.51525 z"
           fill="#00b5e2"
           id="path1" />
        <path
           d="m 289.22068,217.36939 c 3.42517,-10.17865 19.63854,-23.72107 33.28729,-40.02802 l -67.50965,7.09558 c 11.73713,16.00647 30.58429,25.57642 34.22236,32.93244 z"
           fill="#509e2f"
           id="path2" />
        <path
           d="m 245.48001,156.42749 c -0.12335,11.13727 3.87702,20.3161 9.51831,28.00946 l 67.50965,-7.09558 c 10.12958,-12.10241 18.84369,-25.72754 19.86975,-40.63251 l -96.1637,10.10724 c -0.43561,2.92426 -0.69507,6.1189 -0.73401,9.61139 z m 44.1261,-12.20337 c 5.63001,-0.59173 10.61634,1.58661 13.77417,5.41986 1.65442,1.40235 2.92987,3.23127 3.68854,5.35956 l 1.75269,-5.11285 1.83837,4.97626 4.95527,-2.87622 -2.35541,5.20282 5.16949,1.29498 -5.16955,2.38171 2.35547,4.7077 -4.95533,-1.83459 -1.83831,5.36273 -1.75269,-4.74444 c -0.75867,2.28772 -2.03406,4.38452 -3.68835,6.1347 -3.1579,4.49719 -8.14429,7.72376 -13.77436,8.31549 -9.55108,1.00385 -17.29382,-5.92505 -17.29382,-15.47619 0,-9.55115 7.74274,-18.10767 17.29382,-19.11152 z"
           fill="#ef3340"
           id="path3" />
        <path
           d="m 289.60611,178.81183 c 5.63007,-0.59173 10.61646,-3.8183 13.77436,-8.31549 -2.58582,2.73554 -6.07764,4.62421 -9.93128,5.02924 -7.95929,0.83654 -14.4115,-4.9375 -14.4115,-12.89679 0,-7.95929 6.45221,-15.08972 14.4115,-15.92627 3.85358,-0.40503 7.34534,0.74951 9.93109,2.94146 -3.15783,-3.83325 -8.14416,-6.01159 -13.77417,-5.41986 -9.55108,1.00385 -17.29382,9.56037 -17.29382,19.11152 0,9.55114 7.74274,16.48004 17.29382,15.47619 z"
           fill="#f9f9f9"
           id="path4" />
        <path
           d="m 293.44919,146.70252 c -7.95929,0.83655 -14.4115,7.96698 -14.4115,15.92627 0,7.95929 6.45221,13.73333 14.4115,12.89679 3.85364,-0.40503 7.34546,-2.2937 9.93128,-5.02924 1.65429,-1.75018 2.92968,-3.84698 3.68835,-6.1347 l -0.0856,-0.23188 -4.95526,2.87622 2.3554,-5.20282 -5.16949,-1.29498 5.16949,-2.38165 -2.3554,-4.7077 4.95526,1.83459 0.0856,-0.24988 c -0.75867,-2.12829 -2.03412,-3.95721 -3.68854,-5.35956 -2.58575,-2.19195 -6.07751,-3.34649 -9.93109,-2.94146 z"
           fill="#ef3340"
           id="path5" />
        <polygon
           points="302.02793,167.00598 306.98319,164.12976 307.06882,164.36164 308.82151,169.10608 310.65982,163.74335 315.61515,165.57794 313.25968,160.87024 318.42923,158.48853 313.25974,157.19355 315.61515,151.99073 310.65988,154.86695 308.82151,149.89069 307.06882,155.00354 306.98319,155.25342 302.02793,153.41883 304.38333,158.12653 299.21384,160.50818 304.38333,161.80316 "
           fill="#f9f9f9"
           id="polygon5" />
      </g>
    </g>
    <g
       id="CHANGE_GROUP_FILL_COLOUR">
      <path
         id="HEART_SHAPE"
         d="m 328.12497,97.8772 c -13.41791,0 -29.28711,9.91016 -38.8916,26.37885 -2.59277,-5.9477 -11.82617,-12.42865 -22.80365,-12.42865 -8.84473,0 -33.67285,11.05468 -33.67285,46.73486 0,46.04834 46.58832,55.50629 56.00635,69.81689 0.64697,0.98529 2.73187,1.72852 3.52685,-0.62408 7.51465,-22.17871 65.78711,-47.23627 65.78711,-92.36908 0,-25.31104 -16.53418,-37.50879 -29.95221,-37.50879 z m 14.33209,37.35699 c -1.22168,35.67817 -47.18554,64.15375 -53.23638,82.1352 -5.38666,-10.8916 -44.12061,-26.63281 -43.74067,-60.9419 0.31787,-28.50982 15.15528,-37.4331 23.23487,-37.4331 11.28375,0 15.94433,8.61377 16.70599,12.42816 0.76135,3.81164 5.03223,6.85944 6.4043,0.6084 1.37311,-6.25086 14.6485,-25.31201 30.96295,-25.31201 14.94238,0 20.11719,15.40875 19.66894,28.51525 z" />
    </g>
  </g>
</svg>
