<?xml version="1.0" encoding="UTF-8" standalone="no"?>
<svg
   id="LOGO_LAYER"
   viewBox="0 0 125.34375 131.44334"
   version="1.1"
   sodipodi:docname="ESC-HEART-LATVIA-BLACK.svg"
   width="125.34375"
   height="131.44334"
   xmlns:inkscape="http://www.inkscape.org/namespaces/inkscape"
   xmlns:sodipodi="http://sodipodi.sourceforge.net/DTD/sodipodi-0.dtd"
   xmlns="http://www.w3.org/2000/svg"
   xmlns:svg="http://www.w3.org/2000/svg">
  <sodipodi:namedview
     id="namedview4"
     pagecolor="#ffffff"
     bordercolor="#cccccc"
     borderopacity="1"
     inkscape:showpageshadow="0"
     inkscape:pageopacity="1"
     inkscape:pagecheckerboard="0"
     inkscape:deskcolor="#d1d1d1" />
  <defs
     id="defs1">
    <style
       id="style1">.cls-1{fill:#f9f9f9;}.cls-2{fill:#9d2136;}</style>
  </defs>
  <g
     id="LOGO_GROUP"
     transform="translate(-232.75178,-97.88034)">
    <g
       id="SELECT_FLAG_HERE">
      <g
         id="BLACK_FLAG">
        <path
           class="cls-2"
           d="m 289.22,217.37 c 3.86,-11.47 23.97,-27.22 38.33,-46.38 l -76.09,8.03 c 11.01,19.33 33.72,30.2 37.75,38.35 z"
           id="path1" />
        <path
           class="cls-2"
           d="m 322.79,106.72 c -16.31,0 -29.59,19.06 -30.96,25.31 -1.37,6.25 -5.64,3.2 -6.4,-0.61 -0.76,-3.81 -5.42,-12.43 -16.71,-12.43 -8.07,0 -22.9,8.91 -23.23,37.38 l 95.17,-10.04 c 1.03,-3.62 1.67,-7.32 1.8,-11.1 0.45,-13.11 -4.73,-28.52 -19.67,-28.52 z"
           id="path2" />
        <path
           class="cls-1"
           d="m 245.48,156.43 c -0.1,8.63 2.29,16.09 5.99,22.59 l 76.09,-8.03 c 5.76,-7.69 10.6,-15.93 13.1,-24.66 l -95.17,10.04 c 0,0 0,0.04 0,0.05 z"
           id="path3" />
        <path
           d="m 328.12,97.88 c -13.42,0 -29.29,9.91 -38.89,26.38 -2.59,-5.95 -11.83,-12.43 -22.8,-12.43 -8.84,0 -33.67,11.05 -33.67,46.73 0,46.05 46.59,55.51 56.01,69.82 0.65,0.99 2.73,1.73 3.53,-0.62 7.51,-22.18 65.79,-47.24 65.79,-92.37 0,-25.31 -16.53,-37.51 -29.95,-37.51 z m 14.33,37.36 c -0.13,3.78 -0.77,7.48 -1.8,11.1 -2.5,8.73 -7.34,16.97 -13.1,24.66 -14.37,19.16 -34.47,34.91 -38.33,46.38 -4.03,-8.15 -26.74,-19.02 -37.75,-38.35 -3.7,-6.5 -6.09,-13.96 -5.99,-22.59 0,-0.02 0,-0.04 0,-0.05 0.34,-28.47 15.16,-37.38 23.23,-37.38 11.28,0 15.94,8.61 16.71,12.43 0.76,3.81 5.03,6.86 6.4,0.61 1.37,-6.25 14.65,-25.31 30.96,-25.31 14.94,0 20.12,15.41 19.67,28.52 z"
           id="path4" />
      </g>
    </g>
  </g>
</svg>
